<svg width="16" height="16" viewBox="0 0 16 16" fill="none" xmlns="http://www.w3.org/2000/svg">
<path d="M13.5661 3.37353C13.0995 2.45362 12.4092 1.66577 11.5585 1.0824C10.7079 0.499029 9.72436 0.138849 8.69821 0.0349686C8.23378 -0.0116562 7.76584 -0.0116562 7.30141 0.0349686C6.27531 0.139014 5.2918 0.499259 4.44122 1.08261C3.59065 1.66597 2.90027 2.45373 2.43352 3.37353C1.84622 4.54722 1.61931 5.86846 1.78137 7.17087C1.94343 8.47327 2.4872 9.6986 3.34421 10.6925L7.52478 15.7758C7.5825 15.8459 7.65504 15.9024 7.73717 15.9411C7.8193 15.9799 7.90899 16 7.99981 16C8.09063 16 8.18033 15.9799 8.26246 15.9411C8.34459 15.9024 8.41712 15.8459 8.47485 15.7758L12.6548 10.6925C13.5119 9.69866 14.0558 8.47337 14.218 7.17096C14.3801 5.86855 14.1533 4.54727 13.5661 3.37353ZM7.99981 8.61493C7.51301 8.61493 7.03714 8.47055 6.63237 8.20007C6.22761 7.92958 5.91213 7.54513 5.72584 7.09533C5.53955 6.64553 5.49081 6.15058 5.58578 5.67307C5.68075 5.19557 5.91517 4.75695 6.25939 4.41269C6.60361 4.06842 7.04218 3.83398 7.51963 3.739C7.99708 3.64401 8.49197 3.69276 8.94172 3.87908C9.39147 4.06539 9.77588 4.3809 10.0463 4.78571C10.3168 5.19052 10.4611 5.66645 10.4611 6.15331C10.4603 6.80592 10.2007 7.43157 9.73933 7.89304C9.27792 8.3545 8.65235 8.61411 7.99981 8.61493Z" fill="#2BDF27"/>
</svg>
