<svg width="308" height="130" viewBox="0 0 308 130" fill="none" xmlns="http://www.w3.org/2000/svg">
<path fill-rule="evenodd" clip-rule="evenodd" d="M35.9969 0H108.441C128.689 0 144.887 14.4937 144.438 32.2082V97.0271C144.438 114.742 128.239 129.235 108.441 129.235H35.9969C16.1986 129.235 0 114.742 0 97.0271V32.2082C0 14.4937 16.1986 0 35.9969 0ZM108.891 103.871C112.94 103.871 116.54 100.651 116.54 97.0271H116.09V32.2082C116.09 28.5847 112.49 25.3639 108.441 25.3639H35.9969C31.9472 25.3639 28.3475 28.5847 28.3475 32.2082V97.0271C28.3475 100.651 31.9472 103.871 35.9969 103.871H108.891ZM165.486 0H271.135C291.366 0 307.55 14.4892 308 32.1981V44.6749C308 50.8361 303.123 56.7062 298.898 61.7901C298.156 62.684 297.433 63.5536 296.761 64.3963C297.433 65.2389 298.156 66.1085 298.898 67.0025C303.123 72.0863 308 77.9564 308 84.1176V127.183C308 128.39 306.651 129.598 305.303 129.598H281.925C280.576 129.598 279.228 128.39 279.228 127.183V84.1176C279.228 80.4953 275.631 77.2755 271.585 77.2755H191.562V127.585C191.562 128.793 190.213 130 188.864 130H165.486C164.138 130 162.789 128.793 162.789 127.585V2.41486C162.789 1.20743 164.138 0 165.486 0ZM271.135 25.356H191.112V51.9195H271.135C275.181 51.9195 278.778 48.6997 278.778 45.0774V32.1981C278.778 28.5758 275.181 25.356 271.135 25.356Z" fill="url(#paint0_linear_1194_3223)"/>
<defs>
<linearGradient id="paint0_linear_1194_3223" x1="308" y1="65" x2="-1.50021e-06" y2="65" gradientUnits="userSpaceOnUse">
<stop stop-color="white" stop-opacity="0"/>
<stop offset="1" stop-color="white" stop-opacity="0.2"/>
</linearGradient>
</defs>
</svg>
