<svg width="485" height="205" viewBox="0 0 485 205" fill="none" xmlns="http://www.w3.org/2000/svg">
<path fill-rule="evenodd" clip-rule="evenodd" d="M56.6834 0H170.759C202.643 0 228.151 22.8554 227.442 50.7898V153.004C227.442 180.939 201.935 203.794 170.759 203.794H56.6834C25.5075 203.794 0 180.939 0 153.004V50.7898C0 22.8554 25.5075 0 56.6834 0ZM171.467 163.797C177.844 163.797 183.513 158.718 183.513 153.004H182.804V50.7898C182.804 45.076 177.136 39.997 170.759 39.997H56.6834C50.3065 39.997 44.6382 45.076 44.6382 50.7898V153.004C44.6382 158.718 50.3065 163.797 56.6834 163.797H171.467ZM260.587 0H426.95C458.807 0 484.292 22.8483 485 50.774V70.4489C485 80.1647 477.32 89.4214 470.668 97.4383C469.498 98.8479 468.36 100.219 467.302 101.548C468.36 102.877 469.498 104.248 470.668 105.658C477.32 113.675 485 122.931 485 132.647V200.557C485 202.461 482.876 204.365 480.752 204.365H443.94C441.816 204.365 439.693 202.461 439.693 200.557V132.647C439.693 126.935 434.029 121.858 427.658 121.858H301.647V201.192C301.647 203.096 299.523 205 297.4 205H260.587C258.464 205 256.34 203.096 256.34 201.192V3.80805C256.34 1.90402 258.464 0 260.587 0ZM426.95 39.9845H300.939V81.8731H426.95C433.321 81.8731 438.985 76.7957 438.985 71.0836V50.774C438.985 45.0619 433.321 39.9845 426.95 39.9845Z" fill="url(#paint0_linear_1189_785)"/>
<defs>
<linearGradient id="paint0_linear_1189_785" x1="485" y1="102.5" x2="-2.36235e-06" y2="102.5" gradientUnits="userSpaceOnUse">
<stop stop-color="white" stop-opacity="0"/>
<stop offset="1" stop-color="white" stop-opacity="0.2"/>
</linearGradient>
</defs>
</svg>
