<svg width="482" height="205" viewBox="0 0 482 205" fill="none" xmlns="http://www.w3.org/2000/svg">
<path fill-rule="evenodd" clip-rule="evenodd" d="M299.521 154.068C299.521 159.798 305.179 164.891 311.545 164.891V164.255H477.756C479.878 164.255 482 166.165 482 168.075V201.18C482 203.09 479.878 205 477.756 205H310.838C279.717 205 254.255 182.081 254.255 154.068V3.81988C254.255 1.90994 256.377 0 258.499 0H295.277C297.399 0 299.521 1.90994 299.521 3.81988V154.068ZM4.22123 1.20588H169.553C201.213 1.20588 226.54 23.9903 226.54 51.838V71.4579C226.54 81.1465 218.907 90.3773 212.297 98.3717C211.134 99.7775 210.004 101.145 208.951 102.47C210.004 103.795 211.134 105.163 212.297 106.568C218.907 114.563 226.54 123.794 226.54 133.482V154.368C226.54 182.216 201.213 205 170.257 205H4.22123C2.11061 205 0 203.101 0 201.203V5.00329C0 3.10458 2.11061 1.20588 4.22123 1.20588ZM181.513 51.838C181.513 46.1418 175.885 41.0786 169.553 41.0786H44.323V82.8501H169.553C175.885 82.8501 181.513 77.7869 181.513 72.0908V51.838ZM170.257 164.494C176.589 164.494 182.217 159.431 182.217 153.735H181.513V133.482C181.513 127.786 175.885 122.723 169.553 122.723H44.323V164.494H170.257Z" fill="url(#paint0_linear_1189_788)"/>
<defs>
<linearGradient id="paint0_linear_1189_788" x1="482" y1="102.5" x2="-2.34773e-06" y2="102.5" gradientUnits="userSpaceOnUse">
<stop stop-color="white" stop-opacity="0.2"/>
<stop offset="1" stop-color="white" stop-opacity="0"/>
</linearGradient>
</defs>
</svg>
