<svg width="306" height="130" viewBox="0 0 306 130" fill="none" xmlns="http://www.w3.org/2000/svg">
<path fill-rule="evenodd" clip-rule="evenodd" d="M190.152 97.7019C190.152 101.335 193.745 104.565 197.786 104.565V104.161H303.306C304.653 104.161 306 105.373 306 106.584V127.578C306 128.789 304.653 130 303.306 130H197.337C177.58 130 161.415 115.466 161.415 97.7019V2.42236C161.415 1.21118 162.762 0 164.109 0H187.458C188.805 0 190.152 1.21118 190.152 2.42236V97.7019ZM2.67987 0.764645H107.642C127.741 0.764645 143.82 15.2133 143.82 32.8728V45.3147C143.82 51.4587 138.974 57.3124 134.778 62.382C134.04 63.2734 133.322 64.1407 132.654 64.9809C133.322 65.8212 134.04 66.6884 134.778 67.5799C138.974 72.6495 143.82 78.5032 143.82 84.6472V97.8918C143.82 115.551 127.741 130 108.088 130H2.67987C1.33993 130 0 128.796 0 127.592V3.17276C0 1.9687 1.33993 0.764645 2.67987 0.764645ZM115.235 32.8728C115.235 29.2606 111.661 26.0498 107.642 26.0498H28.1387V52.539H107.642C111.661 52.539 115.235 49.3282 115.235 45.716V32.8728ZM108.088 104.313C112.108 104.313 115.681 101.103 115.681 97.4904H115.235V84.6472C115.235 81.035 111.661 77.8242 107.642 77.8242H28.1387V104.313H108.088Z" fill="url(#paint0_linear_1194_3226)"/>
<defs>
<linearGradient id="paint0_linear_1194_3226" x1="306" y1="65" x2="-1.49047e-06" y2="65" gradientUnits="userSpaceOnUse">
<stop stop-color="white" stop-opacity="0.2"/>
<stop offset="1" stop-color="white" stop-opacity="0"/>
</linearGradient>
</defs>
</svg>
