<svg width="100" height="100" viewBox="0 0 100 100" fill="none" xmlns="http://www.w3.org/2000/svg">
<path d="M77.9996 25.9999C80.2085 25.9999 81.9992 24.2092 81.9992 22.0003C81.9992 19.7914 80.2085 18.0007 77.9996 18.0007C75.7907 18.0007 74 19.7914 74 22.0003C74 24.2092 75.7907 25.9999 77.9996 25.9999Z" fill="#EAEBEE"/>
<path d="M64.0004 25.9999C66.2093 25.9999 68 24.2092 68 22.0003C68 19.7914 66.2093 18.0007 64.0004 18.0007C61.7915 18.0007 60.0008 19.7914 60.0008 22.0003C60.0008 24.2092 61.7915 25.9999 64.0004 25.9999Z" fill="#EAEBEE"/>
<path d="M50 25.9999C52.2089 25.9999 53.9996 24.2092 53.9996 22.0003C53.9996 19.7914 52.2089 18.0007 50 18.0007C47.7911 18.0007 46.0004 19.7914 46.0004 22.0003C46.0004 24.2092 47.7911 25.9999 50 25.9999Z" fill="#EAEBEE"/>
<path d="M89.9996 2H10.0004C5.6012 2 2 5.6012 2 10.0004V38C2 42.4016 5.6012 46.0004 10.0004 46.0004H89.9996C94.3988 46.0004 98 42.4016 98 38V10.0004C98 5.6012 94.3988 2 89.9996 2ZM89.9996 38H40.0004V17.9996H32V38H26V17.9996H17.9996V38H10.0004V10.0004H89.9996V38Z" fill="#EAEBEE"/>
<path d="M77.9996 77.9994C80.2085 77.9994 81.9992 76.2088 81.9992 73.9998C81.9992 71.7909 80.2085 70.0002 77.9996 70.0002C75.7907 70.0002 74 71.7909 74 73.9998C74 76.2088 75.7907 77.9994 77.9996 77.9994Z" fill="#EAEBEE"/>
<path d="M64.0004 77.9994C66.2093 77.9994 68 76.2088 68 73.9998C68 71.7909 66.2093 70.0002 64.0004 70.0002C61.7915 70.0002 60.0008 71.7909 60.0008 73.9998C60.0008 76.2088 61.7915 77.9994 64.0004 77.9994Z" fill="#EAEBEE"/>
<path d="M50 77.9994C52.2089 77.9994 53.9996 76.2088 53.9996 73.9998C53.9996 71.7909 52.2089 70.0002 50 70.0002C47.7911 70.0002 46.0004 71.7909 46.0004 73.9998C46.0004 76.2088 47.7911 77.9994 50 77.9994Z" fill="#EAEBEE"/>
<path d="M89.9996 53.9996H10.0004C5.6012 53.9996 2 57.6008 2 62V89.9996C2 94.3988 5.6012 98 10.0004 98H89.9996C94.3988 98 98 94.3988 98 89.9996V62C98 57.6008 94.3988 53.9996 89.9996 53.9996ZM89.9996 89.9996H40.0004V69.9992H32V89.9996H26V69.9992H17.9996V89.9996H10.0004V62H89.9996V89.9996Z" fill="#EAEBEE"/>
</svg>
