<svg width="100" height="100" viewBox="0 0 100 100" fill="none" xmlns="http://www.w3.org/2000/svg">
<g clip-path="url(#clip0_1189_729)">
<path d="M26.0646 29.1867C27.7888 29.1867 29.1866 27.7889 29.1866 26.0647C29.1866 24.3405 27.7888 22.9427 26.0646 22.9427C24.3404 22.9427 22.9427 24.3405 22.9427 26.0647C22.9427 27.7889 24.3404 29.1867 26.0646 29.1867Z" fill="#EAEBEE"/>
<path d="M73.9366 77.0574C75.6609 77.0574 77.0586 75.6596 77.0586 73.9354C77.0586 72.2112 75.6609 70.8135 73.9366 70.8135C72.2124 70.8135 70.8147 72.2112 70.8147 73.9354C70.8147 75.6596 72.2124 77.0574 73.9366 77.0574Z" fill="#EAEBEE"/>
<path d="M26.0646 77.0574C27.7888 77.0574 29.1866 75.6596 29.1866 73.9354C29.1866 72.2112 27.7888 70.8135 26.0646 70.8135C24.3404 70.8135 22.9427 72.2112 22.9427 73.9354C22.9427 75.6596 24.3404 77.0574 26.0646 77.0574Z" fill="#EAEBEE"/>
<path d="M73.9366 29.1867C75.6609 29.1867 77.0586 27.7889 77.0586 26.0647C77.0586 24.3405 75.6609 22.9427 73.9366 22.9427C72.2124 22.9427 70.8147 24.3405 70.8147 26.0647C70.8147 27.7889 72.2124 29.1867 73.9366 29.1867Z" fill="#EAEBEE"/>
<path d="M62.4891 33.3501H37.511C36.4082 33.3537 35.3516 33.7934 34.5719 34.5732C33.7921 35.3529 33.3524 36.4095 33.3488 37.5123V62.4879C33.3524 63.5906 33.7921 64.6472 34.5719 65.427C35.3516 66.2068 36.4082 66.6464 37.511 66.6501H62.4891C64.7731 66.6501 66.6512 64.7769 66.6512 62.4879V37.5123C66.647 36.4097 66.2071 35.3535 65.4274 34.5739C64.6478 33.7942 63.5916 33.3544 62.4891 33.3501ZM58.3269 58.3257H41.6744V41.6745H58.3269V58.3257ZM37.511 70.8135H43.7574V77.0574H37.511V70.8135ZM70.8147 37.5123H77.0586V43.7562H70.8147V37.5123ZM22.9427 37.5123H29.1866V62.4879H22.9427V37.5123ZM70.8147 56.244H77.0586V62.4879H70.8147V56.244ZM50.0013 70.8135H62.4891V77.0574H50.0013V70.8135ZM41.6744 22.9427H58.3269V29.1867H41.6744V22.9427Z" fill="#EAEBEE"/>
<path d="M99.9525 28.1464V21.9025H91.6269V16.6988L83.3025 8.37445H78.0988V0.0488281H71.8549V8.37445H65.611V0.0488281H59.3671V8.37445H53.1232V0.0488281H46.8793V8.37445H40.6329V0.0488281H34.389V8.37445H28.1451V0.0488281H21.9012V8.37445H16.6988L8.37317 16.6988V21.9025H0.0475464V28.1464H8.37317V34.3903H0.0475464V40.6342H8.37317V46.8781H0.0475464V53.122H8.37317V59.3659H0.0475464V65.6098H8.37317V71.8537H0.0475464V78.0976H8.37317V83.3013L16.6988 91.6256H21.9012V99.9513H28.1451V91.6256H34.389V99.9513H40.6329V91.6256H46.8793V99.9513H53.1232V91.6256H59.3671V99.9513H65.611V91.6256H71.8549V99.9513H78.0988V91.6256H83.3025L91.6269 83.3013V78.0976H99.9525V71.8537H91.6269V65.6098H99.9525V59.3659H91.6269V53.122H99.9525V46.8781H91.6269V40.6342H99.9525V34.3903H91.6269V28.1464H99.9525ZM83.3025 79.8534L79.8546 83.3013H20.1454L16.6988 79.8534V20.1479L20.1504 16.6988H79.8559L83.3037 20.1479L83.3025 79.8534Z" fill="#EAEBEE"/>
</g>
<defs>
<clipPath id="clip0_1189_729">
<rect width="100" height="100" fill="white"/>
</clipPath>
</defs>
</svg>
