<svg width="20" height="20" viewBox="0 0 20 20" fill="none" xmlns="http://www.w3.org/2000/svg">
<g clip-path="url(#clip0_1189_1058)">
<circle cx="10" cy="10" r="10" fill="#22D31E"/>
<path d="M4.7266 14.1028L14.1031 4.72666L15.2732 5.89673L5.89672 15.2729L4.7266 14.1028ZM12.92 10.3246C11.4887 10.3246 10.3244 11.4891 10.3244 12.9203C10.3244 14.3516 11.4889 15.5159 12.92 15.5159C14.3515 15.5159 15.5159 14.3516 15.5159 12.9203C15.5159 11.4889 14.3513 10.3246 12.92 10.3246ZM12.92 13.8613C12.4013 13.8613 11.9792 13.4393 11.9792 12.9205C11.9792 12.4016 12.4013 11.9795 12.92 11.9795C13.4389 11.9795 13.861 12.4016 13.861 12.9205C13.861 13.4393 13.439 13.8613 12.92 13.8613ZM7.07979 9.67523C8.51089 9.67523 9.67543 8.51072 9.67543 7.07969C9.67543 5.64841 8.51087 4.48413 7.07979 4.48413C5.64848 4.48413 4.48413 5.64841 4.48413 7.07967C4.48413 8.51093 5.64848 9.67523 7.07979 9.67523ZM7.07979 6.13889C7.59852 6.13889 8.02061 6.56096 8.02061 7.07967C8.02061 7.59838 7.59852 8.02045 7.07979 8.02045C6.56107 8.02045 6.13898 7.59859 6.13898 7.07967C6.13896 6.56096 6.56104 6.13889 7.07979 6.13889Z" fill="white"/>
</g>
<defs>
<clipPath id="clip0_1189_1058">
<rect width="20" height="20" fill="white"/>
</clipPath>
</defs>
</svg>
