<svg width="12" height="12" viewBox="0 0 12 12" fill="none" xmlns="http://www.w3.org/2000/svg">
<g clip-path="url(#clip0_1193_1496)">
<circle cx="6" cy="6" r="6" fill="#22D31E"/>
<path d="M2.83597 8.4617L8.46189 2.83601L9.16396 3.53805L3.53805 9.16375L2.83597 8.4617ZM7.75201 6.19474C6.89322 6.19474 6.19462 6.89345 6.19462 7.75221C6.19462 8.61097 6.89336 9.30953 7.75201 9.30953C8.61093 9.30953 9.30953 8.61097 9.30953 7.75221C9.30953 6.89332 8.6108 6.19474 7.75201 6.19474ZM7.75201 8.31681C7.44077 8.31681 7.18752 8.06356 7.18752 7.75234C7.18752 7.44099 7.44077 7.18773 7.75201 7.18773C8.06337 7.18773 8.31664 7.44097 8.31664 7.75234C8.31664 8.06356 8.06339 8.31681 7.75201 8.31681ZM4.24789 5.80515C5.10655 5.80515 5.80527 5.10644 5.80527 4.24783C5.80527 3.38906 5.10654 2.69049 4.24789 2.69049C3.3891 2.69049 2.69049 3.38906 2.69049 4.24781C2.69049 5.10657 3.3891 5.80515 4.24789 5.80515ZM4.24789 3.68335C4.55912 3.68335 4.81238 3.93659 4.81238 4.24781C4.81238 4.55904 4.55912 4.81228 4.24789 4.81228C3.93665 4.81228 3.6834 4.55917 3.6834 4.24781C3.68339 3.93659 3.93664 3.68335 4.24789 3.68335Z" fill="white"/>
</g>
<defs>
<clipPath id="clip0_1193_1496">
<rect width="12" height="12" fill="white"/>
</clipPath>
</defs>
</svg>
