<svg width="111" height="48" viewBox="0 0 111 48" fill="none" xmlns="http://www.w3.org/2000/svg">
<path d="M0.89 46V40.645L15.38 29.935C19.37 26.953 22.205 24.391 23.885 22.249C25.565 20.107 26.405 17.629 26.405 14.815C26.405 12.253 25.523 10.153 23.759 8.515C22.037 6.835 19.769 5.995 16.955 5.995C13.343 5.995 10.655 7.465 8.891 10.405C8.051 11.749 7.484 13.219 7.19 14.815H1.205C1.583 12.211 2.402 9.859 3.662 7.759C6.644 3.013 11.075 0.639998 16.955 0.639998C21.323 0.639998 24.935 2.005 27.791 4.735C30.647 7.465 32.075 10.825 32.075 14.815C32.075 18.637 30.983 21.997 28.799 24.895C26.657 27.751 23.444 30.691 19.16 33.715L10.025 40.204L9.395 40.582V40.708L9.962 40.645H32.075V46H0.89ZM44.1907 40.771C40.3267 36.445 38.3947 30.838 38.3947 23.95C38.3947 17.062 40.3267 11.455 44.1907 7.129C48.0547 2.803 52.7377 0.639998 58.2397 0.639998C63.7417 0.639998 68.4247 2.803 72.2887 7.129C76.1527 11.455 78.0847 17.062 78.0847 23.95C78.0847 30.838 76.1527 36.445 72.2887 40.771C68.4247 45.097 63.7417 47.26 58.2397 47.26C52.7377 47.26 48.0547 45.097 44.1907 40.771ZM48.0337 10.783C45.3877 13.933 44.0647 18.322 44.0647 23.95C44.0647 29.578 45.3877 33.988 48.0337 37.18C50.7217 40.33 54.1237 41.905 58.2397 41.905C62.3557 41.905 65.7367 40.33 68.3827 37.18C71.0707 33.988 72.4147 29.578 72.4147 23.95C72.4147 18.322 71.0707 13.933 68.3827 10.783C65.7367 7.591 62.3557 5.995 58.2397 5.995C54.1237 5.995 50.7217 7.591 48.0337 10.783Z" fill="#191A1B"/>
<path d="M85.0295 28.99V24.265H95.1095V13.87H100.149V24.265H110.229V28.99H100.149V39.385H95.1095V28.99H85.0295Z" fill="#2BDF27"/>
</svg>
