<svg width="188" height="48" viewBox="0 0 188 48" fill="none" xmlns="http://www.w3.org/2000/svg">
<path d="M0.575 14.815V8.515L9.08 1.9H14.12V46H8.45V8.83L0.575 14.815ZM28.4407 40.771C24.5767 36.445 22.6447 30.838 22.6447 23.95C22.6447 17.062 24.5767 11.455 28.4407 7.129C32.3047 2.803 36.9877 0.639998 42.4897 0.639998C47.9917 0.639998 52.6747 2.803 56.5387 7.129C60.4027 11.455 62.3347 17.062 62.3347 23.95C62.3347 30.838 60.4027 36.445 56.5387 40.771C52.6747 45.097 47.9917 47.26 42.4897 47.26C36.9877 47.26 32.3047 45.097 28.4407 40.771ZM32.2837 10.783C29.6377 13.933 28.3147 18.322 28.3147 23.95C28.3147 29.578 29.6377 33.988 32.2837 37.18C34.9717 40.33 38.3737 41.905 42.4897 41.905C46.6057 41.905 49.9867 40.33 52.6327 37.18C55.3207 33.988 56.6647 29.578 56.6647 23.95C56.6647 18.322 55.3207 13.933 52.6327 10.783C49.9867 7.591 46.6057 5.995 42.4897 5.995C38.3737 5.995 34.9717 7.591 32.2837 10.783ZM75.0755 40.771C71.2115 36.445 69.2795 30.838 69.2795 23.95C69.2795 17.062 71.2115 11.455 75.0755 7.129C78.9395 2.803 83.6225 0.639998 89.1245 0.639998C94.6265 0.639998 99.3095 2.803 103.173 7.129C107.037 11.455 108.969 17.062 108.969 23.95C108.969 30.838 107.037 36.445 103.173 40.771C99.3095 45.097 94.6265 47.26 89.1245 47.26C83.6225 47.26 78.9395 45.097 75.0755 40.771ZM78.9185 10.783C76.2725 13.933 74.9495 18.322 74.9495 23.95C74.9495 29.578 76.2725 33.988 78.9185 37.18C81.6065 40.33 85.0085 41.905 89.1245 41.905C93.2405 41.905 96.6215 40.33 99.2675 37.18C101.955 33.988 103.299 29.578 103.299 23.95C103.299 18.322 101.955 13.933 99.2675 10.783C96.6215 7.591 93.2405 5.995 89.1245 5.995C85.0085 5.995 81.6065 7.591 78.9185 10.783ZM121.71 40.771C117.846 36.445 115.914 30.838 115.914 23.95C115.914 17.062 117.846 11.455 121.71 7.129C125.574 2.803 130.257 0.639998 135.759 0.639998C141.261 0.639998 145.944 2.803 149.808 7.129C153.672 11.455 155.604 17.062 155.604 23.95C155.604 30.838 153.672 36.445 149.808 40.771C145.944 45.097 141.261 47.26 135.759 47.26C130.257 47.26 125.574 45.097 121.71 40.771ZM125.553 10.783C122.907 13.933 121.584 18.322 121.584 23.95C121.584 29.578 122.907 33.988 125.553 37.18C128.241 40.33 131.643 41.905 135.759 41.905C139.875 41.905 143.256 40.33 145.902 37.18C148.59 33.988 149.934 29.578 149.934 23.95C149.934 18.322 148.59 13.933 145.902 10.783C143.256 7.591 139.875 5.995 135.759 5.995C131.643 5.995 128.241 7.591 125.553 10.783Z" fill="#191A1B"/>
<path d="M162.549 28.99V24.265H172.629V13.87H177.669V24.265H187.749V28.99H177.669V39.385H172.629V28.99H162.549Z" fill="#2BDF27"/>
</svg>
