<svg width="134" height="48" viewBox="0 0 134 48" fill="none" xmlns="http://www.w3.org/2000/svg">
<path d="M0.575 14.815V8.515L9.08 1.9H14.12V46H8.45V8.83L0.575 14.815ZM22.3297 34.03H27.9997C28.3777 35.584 29.0287 36.907 29.9527 37.999C32.0527 40.603 35.0767 41.905 39.0247 41.905C42.2587 41.905 44.8417 41.002 46.7737 39.196C48.7477 37.39 49.7347 35.038 49.7347 32.14C49.7347 29.242 48.7477 26.89 46.7737 25.084C44.8417 23.278 42.2587 22.375 39.0247 22.375C36.1267 22.375 33.6277 23.173 31.5277 24.769C30.6457 25.399 29.8897 26.176 29.2597 27.1H24.2197L26.1097 1.9H52.2547V7.255H30.8347L29.8897 20.107V20.17C30.6037 19.54 31.4017 19.015 32.2837 18.595C34.6357 17.545 37.0927 17.02 39.6547 17.02C44.1907 17.02 47.9497 18.469 50.9317 21.367C53.9137 24.265 55.4047 27.856 55.4047 32.14C55.4047 36.466 53.8717 40.078 50.8057 42.976C47.7817 45.832 43.8547 47.26 39.0247 47.26C32.8087 47.26 28.1677 45.055 25.1017 40.645C23.6737 38.671 22.7497 36.466 22.3297 34.03ZM67.2005 40.771C63.3365 36.445 61.4045 30.838 61.4045 23.95C61.4045 17.062 63.3365 11.455 67.2005 7.129C71.0645 2.803 75.7475 0.639998 81.2495 0.639998C86.7515 0.639998 91.4345 2.803 95.2985 7.129C99.1625 11.455 101.094 17.062 101.094 23.95C101.094 30.838 99.1625 36.445 95.2985 40.771C91.4345 45.097 86.7515 47.26 81.2495 47.26C75.7475 47.26 71.0645 45.097 67.2005 40.771ZM71.0435 10.783C68.3975 13.933 67.0745 18.322 67.0745 23.95C67.0745 29.578 68.3975 33.988 71.0435 37.18C73.7315 40.33 77.1335 41.905 81.2495 41.905C85.3655 41.905 88.7465 40.33 91.3925 37.18C94.0805 33.988 95.4245 29.578 95.4245 23.95C95.4245 18.322 94.0805 13.933 91.3925 10.783C88.7465 7.591 85.3655 5.995 81.2495 5.995C77.1335 5.995 73.7315 7.591 71.0435 10.783Z" fill="#191A1B"/>
<path d="M108.039 28.99V24.265H118.119V13.87H123.159V24.265H133.239V28.99H123.159V39.385H118.119V28.99H108.039Z" fill="#2BDF27"/>
</svg>
