<svg width="129" height="48" viewBox="0 0 129 48" fill="none" xmlns="http://www.w3.org/2000/svg">
<path d="M0.575 34.03H6.56C6.938 35.584 7.589 36.907 8.513 37.999C10.613 40.603 13.637 41.905 17.585 41.905C20.987 41.905 23.612 41.086 25.46 39.448C27.35 37.81 28.295 35.689 28.295 33.085C28.295 30.481 27.371 28.36 25.523 26.722C23.675 25.084 21.134 24.265 17.9 24.265H8.765V19.225L23.507 7.318L23.57 7.255H2.78V1.9H31.445V7.255L17.585 18.406L17.018 18.847L16.955 18.91H17.9C22.52 18.91 26.342 20.317 29.366 23.131C32.432 25.903 33.965 29.221 33.965 33.085C33.965 36.991 32.411 40.33 29.303 43.102C26.237 45.874 22.331 47.26 17.585 47.26C11.285 47.26 6.602 45.055 3.536 40.645C2.108 38.629 1.121 36.424 0.575 34.03ZM45.7288 40.771C41.8648 36.445 39.9328 30.838 39.9328 23.95C39.9328 17.062 41.8648 11.455 45.7288 7.129C49.5928 2.803 54.2758 0.639998 59.7778 0.639998C65.2798 0.639998 69.9628 2.803 73.8268 7.129C77.6908 11.455 79.6228 17.062 79.6228 23.95C79.6228 30.838 77.6908 36.445 73.8268 40.771C69.9628 45.097 65.2798 47.26 59.7778 47.26C54.2758 47.26 49.5928 45.097 45.7288 40.771ZM49.5718 10.783C46.9258 13.933 45.6028 18.322 45.6028 23.95C45.6028 29.578 46.9258 33.988 49.5718 37.18C52.2598 40.33 55.6618 41.905 59.7778 41.905C63.8938 41.905 67.2748 40.33 69.9208 37.18C72.6088 33.988 73.9528 29.578 73.9528 23.95C73.9528 18.322 72.6088 13.933 69.9208 10.783C67.2748 7.591 63.8938 5.995 59.7778 5.995C55.6618 5.995 52.2598 7.591 49.5718 10.783ZM88.6465 19.036C86.6305 16.978 85.6225 14.521 85.6225 11.665C85.6225 8.809 86.6305 6.373 88.6465 4.357C90.7045 2.299 93.1615 1.27 96.0175 1.27C98.8735 1.27 101.31 2.299 103.326 4.357C105.384 6.373 106.413 8.809 106.413 11.665C106.413 14.521 105.384 16.978 103.326 19.036C101.31 21.052 98.8735 22.06 96.0175 22.06C93.1615 22.06 90.7045 21.052 88.6465 19.036ZM91.2925 46L117.753 1.9H123.108L96.6475 46H91.2925ZM91.9225 7.381C90.8725 8.473 90.3475 9.901 90.3475 11.665C90.3475 13.429 90.8725 14.878 91.9225 16.012C93.0145 17.104 94.3795 17.65 96.0175 17.65C97.6555 17.65 98.9995 17.104 100.05 16.012C101.142 14.878 101.688 13.429 101.688 11.665C101.688 9.901 101.142 8.473 100.05 7.381C98.9995 6.247 97.6555 5.68 96.0175 5.68C94.3795 5.68 93.0145 6.247 91.9225 7.381ZM111.012 43.606C108.996 41.548 107.988 39.091 107.988 36.235C107.988 33.379 108.996 30.943 111.012 28.927C113.07 26.869 115.527 25.84 118.383 25.84C121.239 25.84 123.675 26.869 125.691 28.927C127.749 30.943 128.778 33.379 128.778 36.235C128.778 39.091 127.749 41.548 125.691 43.606C123.675 45.622 121.239 46.63 118.383 46.63C115.527 46.63 113.07 45.622 111.012 43.606ZM114.288 31.951C113.238 33.043 112.713 34.471 112.713 36.235C112.713 37.999 113.238 39.448 114.288 40.582C115.38 41.674 116.745 42.22 118.383 42.22C120.021 42.22 121.365 41.674 122.415 40.582C123.507 39.448 124.053 37.999 124.053 36.235C124.053 34.471 123.507 33.043 122.415 31.951C121.365 30.817 120.021 30.25 118.383 30.25C116.745 30.25 115.38 30.817 114.288 31.951Z" fill="#191A1B"/>
</svg>
