<svg width="27" height="27" viewBox="0 0 27 27" fill="none" xmlns="http://www.w3.org/2000/svg">
<path d="M25.0651 7.66339C24.5798 6.17003 22.974 5.26564 21.4961 5.05829C16.1803 4.49359 10.8196 4.49359 5.50375 5.05829C4.02584 5.26564 2.41558 6.16121 1.93471 7.66339C1.17812 11.5185 1.17812 15.4838 1.93471 19.3389C2.41999 20.83 4.02584 21.7366 5.50375 21.944C10.8196 22.5087 16.1803 22.5087 21.4961 21.944C22.974 21.7366 24.5843 20.8411 25.0651 19.3389C25.8217 15.4838 25.8217 11.5185 25.0651 7.66339ZM10.597 18.1499V8.85013L18.1675 13.5C15.6153 15.0684 13.1382 16.5882 10.597 18.1499Z" fill="#A1A4A7"/>
</svg>
