<svg width="27" height="27" viewBox="0 0 27 27" fill="none" xmlns="http://www.w3.org/2000/svg">
<path fill-rule="evenodd" clip-rule="evenodd" d="M2.76197 12.0664C9.44335 9.15542 13.8987 7.2363 16.1279 6.30915C22.4928 3.66181 23.8154 3.2019 24.6773 3.18668C24.867 3.18337 25.2909 3.23037 25.5655 3.45321C25.9728 3.78375 25.9751 4.50122 25.9299 4.97608C25.585 8.60017 24.0925 17.3948 23.3333 21.4538C23.0119 23.1713 22.3793 23.7472 21.767 23.8035C20.436 23.926 19.4254 22.9239 18.1362 22.079C16.1191 20.7566 14.9795 19.9335 13.0214 18.6432C10.7586 17.1521 12.2255 16.3325 13.5151 14.9931C13.8526 14.6426 19.7168 9.30861 19.8303 8.82471C19.8445 8.76419 19.8577 8.53858 19.7237 8.4195C19.5896 8.30043 19.3919 8.34108 19.2492 8.37349C19.0468 8.41941 15.8244 10.5494 9.58176 14.7633C8.66705 15.3914 7.83856 15.6974 7.09628 15.6814C6.27791 15.6637 4.70383 15.2187 3.53361 14.8383C2.0983 14.3718 0.957531 14.125 1.05691 13.3327C1.10865 12.9199 1.67698 12.4979 2.76197 12.0664Z" fill="#A1A4A7"/>
</svg>
