<svg width="29" height="27" viewBox="0 0 29 27" fill="none" xmlns="http://www.w3.org/2000/svg">
<g clip-path="url(#clip0_1189_99)">
<path d="M25.7129 12.2384C26.1253 11.742 26.4527 11.3438 26.6945 11.0433C28.4358 8.88784 29.1906 7.5109 28.9593 6.91058L28.8685 6.76999C28.8082 6.68554 28.6519 6.60799 28.4005 6.53779C28.1487 6.46765 27.8267 6.45644 27.4343 6.50274L23.0858 6.5313C22.9852 6.52197 22.8838 6.52415 22.7838 6.53779C22.6831 6.55204 22.6178 6.56635 22.5874 6.57999C22.557 6.59429 22.532 6.60576 22.512 6.61509L22.4517 6.65729C22.4014 6.68523 22.3461 6.73458 22.2857 6.80508C22.2253 6.87553 22.1747 6.95719 22.1347 7.05123C21.6616 8.18512 21.1231 9.23958 20.5191 10.2143C20.1466 10.7954 19.8042 11.2995 19.4925 11.7253C19.1805 12.1521 18.9187 12.466 18.7073 12.6671C18.496 12.8685 18.3046 13.0305 18.1336 13.152C17.9622 13.2742 17.8316 13.3255 17.7412 13.3068C17.6553 13.2894 17.5697 13.2706 17.4845 13.2503C17.3435 13.1663 17.2301 13.0517 17.1448 12.9061C17.0591 12.7612 17.0014 12.5783 16.971 12.3579C16.941 12.1379 16.923 11.9479 16.9184 11.7883C16.913 11.6291 16.9157 11.4044 16.926 11.1135C16.9361 10.823 16.941 10.6265 16.941 10.5231C16.941 10.1674 16.9487 9.78066 16.9638 9.36349C16.9788 8.94662 16.9915 8.61603 17.0014 8.37232C17.0115 8.12897 17.0164 7.87101 17.0164 7.5991C17.0164 7.3278 16.9988 7.11422 16.9633 6.95937C16.9277 6.80466 16.8747 6.65389 16.805 6.50959C16.7343 6.36463 16.6313 6.25193 16.4952 6.17251C16.3593 6.09272 16.1908 6.02973 15.9895 5.98251C15.4557 5.86981 14.7763 5.80961 13.9511 5.79972C12.0788 5.78171 10.8759 5.89406 10.3424 6.13741C10.131 6.24078 9.93967 6.38107 9.76866 6.55925C9.58731 6.76567 9.56231 6.87832 9.69332 6.89633C10.2974 6.98078 10.7249 7.18254 10.9766 7.50101L11.0673 7.66955C11.1376 7.79184 11.208 8.00729 11.2787 8.31643C11.349 8.62562 11.3944 8.96767 11.4147 9.34264C11.465 10.0268 11.465 10.6122 11.4147 11.0999C11.3643 11.5875 11.3167 11.9668 11.2714 12.2381C11.226 12.51 11.158 12.7301 11.0676 12.8987C10.9769 13.0678 10.9166 13.1709 10.8863 13.2084C10.8559 13.2456 10.8309 13.2692 10.8109 13.2786C10.6808 13.3251 10.5426 13.3489 10.4032 13.3487C10.2622 13.3487 10.0911 13.2829 9.88977 13.1516C9.68837 13.0209 9.47934 12.8403 9.26328 12.6106C9.04658 12.3812 8.80285 12.06 8.53079 11.6474C8.25906 11.2355 7.97698 10.7478 7.68526 10.1857L7.44387 9.77782C7.29286 9.51585 7.08645 9.13373 6.82474 8.63242C6.56303 8.1311 6.33129 7.64627 6.13027 7.17727C6.04959 6.98078 5.92887 6.83085 5.76789 6.72748L5.69255 6.68528C5.64221 6.648 5.56153 6.60799 5.45084 6.56604C5.33904 6.52362 5.22253 6.49291 5.10344 6.47449L0.966309 6.50244C0.543569 6.50244 0.256858 6.59186 0.105848 6.76999L0.0454881 6.85413C0.0149811 6.9013 0 6.97641 0 7.07917C0 7.18254 0.0303436 7.30888 0.0907038 7.45851C0.694797 8.78021 1.35162 10.0547 2.06107 11.2821C2.77091 12.51 3.38737 13.499 3.91078 14.2486C4.43419 14.9989 4.96763 15.7059 5.51141 16.3714C6.0552 17.0369 6.41491 17.4631 6.59093 17.6503C6.76694 17.8381 6.90531 17.9787 7.00604 18.0721L7.38345 18.4098C7.62484 18.6346 7.97992 18.904 8.44804 19.2181C8.9161 19.5322 9.43423 19.8414 10.0034 20.1456C10.5718 20.4505 11.2339 20.6984 11.9887 20.8909C12.7435 21.0834 13.4783 21.1606 14.1931 21.1228H15.9295C16.2819 21.0948 16.5485 20.9921 16.7297 20.8136L16.79 20.7434C16.8299 20.6875 16.868 20.6007 16.9033 20.4836C16.9383 20.3666 16.9564 20.2374 16.9564 20.0972C16.946 19.6943 16.979 19.3305 17.0544 19.0076C17.1297 18.6842 17.2154 18.4409 17.3111 18.2764C17.4068 18.1127 17.5148 17.9743 17.6358 17.8616C17.7565 17.7489 17.8418 17.6816 17.8925 17.658C17.9429 17.635 17.9833 17.6186 18.0133 17.6086C18.2546 17.5338 18.539 17.6065 18.8664 17.8265C19.1935 18.0473 19.5006 18.3185 19.7876 18.642C20.0743 18.9654 20.419 19.3282 20.8218 19.7315C21.2242 20.1343 21.5766 20.4342 21.8786 20.631L22.1807 20.8002C22.382 20.9122 22.6434 21.0153 22.9658 21.1094C23.2879 21.2028 23.57 21.2264 23.8113 21.1795L27.6767 21.123C28.0591 21.123 28.3562 21.0647 28.5676 20.9473C28.7789 20.8309 28.9047 20.7012 28.945 20.5609C28.985 20.4203 28.9877 20.2617 28.9527 20.0832C28.9174 19.9053 28.8821 19.7811 28.8471 19.711C28.8118 19.6408 28.779 19.5818 28.7486 19.5353C28.2453 18.6919 27.284 17.6561 25.8648 16.4284L25.8344 16.4005L25.8194 16.3862L25.8044 16.3726H25.7893C25.1448 15.8008 24.7374 15.4165 24.5664 15.2194C24.2544 14.8451 24.1837 14.4654 24.355 14.0812C24.475 13.7898 24.9278 13.1758 25.7129 12.2384Z" fill="#A1A4A7"/>
</g>
<defs>
<clipPath id="clip0_1189_99">
<rect width="29" height="27" fill="white"/>
</clipPath>
</defs>
</svg>
