<svg width="23" height="23" viewBox="0 0 23 23" fill="none" xmlns="http://www.w3.org/2000/svg">
<g clip-path="url(#clip0_1194_4406)">
<path d="M7.94183 0H2.65973C1.19317 0 0 1.19317 0 2.65973V7.94183C0 9.40839 1.19317 10.6016 2.65973 10.6016H7.94183C9.40839 10.6016 10.6016 9.40839 10.6016 7.94183V2.65973C10.6016 1.19317 9.40839 0 7.94183 0ZM8.80469 7.94183C8.80469 8.4176 8.4176 8.80469 7.94183 8.80469H2.65973C2.18397 8.80469 1.79688 8.4176 1.79688 7.94183V2.65973C1.79688 2.18397 2.18397 1.79688 2.65973 1.79688H7.94183C8.4176 1.79688 8.80469 2.18397 8.80469 2.65973V7.94183ZM20.3047 0H15.0938C13.6076 0 12.3984 1.20912 12.3984 2.69531V7.90625C12.3984 9.39245 13.6076 10.6016 15.0938 10.6016H20.3047C21.7909 10.6016 23 9.39245 23 7.90625V2.69531C23 1.20912 21.7909 0 20.3047 0ZM21.2031 7.90625C21.2031 8.40165 20.8001 8.80469 20.3047 8.80469H15.0938C14.5984 8.80469 14.1953 8.40165 14.1953 7.90625V2.69531C14.1953 2.19991 14.5984 1.79688 15.0938 1.79688H20.3047C20.8001 1.79688 21.2031 2.19991 21.2031 2.69531V7.90625ZM7.94183 12.3984H2.65973C1.19317 12.3984 0 13.5916 0 15.0582V20.3403C0 21.8068 1.19317 23 2.65973 23H7.94183C9.40839 23 10.6016 21.8068 10.6016 20.3403V15.0582C10.6016 13.5916 9.40839 12.3984 7.94183 12.3984ZM8.80469 20.3403C8.80469 20.816 8.4176 21.2031 7.94183 21.2031H2.65973C2.18397 21.2031 1.79688 20.816 1.79688 20.3403V15.0582C1.79688 14.5824 2.18397 14.1953 2.65973 14.1953H7.94183C8.4176 14.1953 8.80469 14.5824 8.80469 15.0582V20.3403ZM20.3047 12.3984H15.0938C13.6076 12.3984 12.3984 13.6076 12.3984 15.0938V20.3047C12.3984 21.7909 13.6076 23 15.0938 23H20.3047C21.7909 23 23 21.7909 23 20.3047V15.0938C23 13.6076 21.7909 12.3984 20.3047 12.3984ZM21.2031 20.3047C21.2031 20.8001 20.8001 21.2031 20.3047 21.2031H15.0938C14.5984 21.2031 14.1953 20.8001 14.1953 20.3047V15.0938C14.1953 14.5984 14.5984 14.1953 15.0938 14.1953H20.3047C20.8001 14.1953 21.2031 14.5984 21.2031 15.0938V20.3047Z" fill="#ED1C3B"/>
</g>
<defs>
<clipPath id="clip0_1194_4406">
<rect width="23" height="23" fill="white"/>
</clipPath>
</defs>
</svg>
