<svg width="43" height="43" viewBox="0 0 43 43" fill="none" xmlns="http://www.w3.org/2000/svg">
<path d="M37.1072 8.12188V14.2703L26.229 3.39289C23.6184 0.780171 19.3817 0.780171 16.7702 3.39289L5.89283 14.2703L9.04536 17.4235L19.9242 6.54529C20.7951 5.67377 22.2057 5.67377 23.0767 6.54529L33.5716 17.0395H28.1889V21.4997H39.3373C40.5653 21.4997 41.5667 20.5004 41.5667 19.2702V8.12188H37.1072ZM33.9547 25.5758L23.0758 36.4532C22.205 37.3248 20.7943 37.3248 19.9233 36.4532L9.4284 25.959H14.8111V21.4997H3.66276C2.43472 21.4997 1.43335 22.4989 1.43335 23.7291V34.8774H5.89283V28.729L16.771 39.6064C19.3817 42.2191 23.6184 42.2191 26.2298 39.6064L37.108 28.7282L33.9547 25.5758Z" fill="#191A1B"/>
<path d="M37.1072 14.2707V8.12225H41.5666V19.2706C41.5666 20.5007 40.5653 21.5 39.3372 21.5H28.1889V17.0399H33.5716L23.0767 6.54565C22.2057 5.67414 20.795 5.67414 19.9242 6.54565L9.04532 17.4239L5.89278 14.2707L16.7702 3.39325C19.3816 0.780537 23.6183 0.780537 26.229 3.39325L37.1072 14.2707Z" fill="#2BDF27"/>
</svg>
