<svg width="43" height="43" viewBox="0 0 43 43" fill="none" xmlns="http://www.w3.org/2000/svg">
<g clip-path="url(#clip0_1189_686)">
<path d="M40.3581 9.92659L42.9791 8.17121L41.6098 4.8672L38.5158 5.4772C38.2146 5.11691 37.8824 4.78377 37.5229 4.48165L38.1366 1.39028L34.831 0.02207L33.0746 2.63929C32.6075 2.59875 32.1379 2.59929 31.6709 2.6409L29.9166 0.0209961L26.6126 1.38975L27.2226 4.4838C26.862 4.78443 26.5287 5.11632 26.2265 5.47559L23.1362 4.86237L21.7659 8.16799L24.3842 9.9239C24.3423 10.3895 24.346 10.8561 24.3858 11.3281L21.7659 13.0829L23.1346 16.388L26.2281 15.778C26.5342 16.1426 26.8628 16.4739 27.2215 16.7736L26.6094 19.8639L29.9134 21.2342L31.6698 18.6159C32.1343 18.6567 32.5994 18.6551 33.073 18.6143L34.8283 21.2342L38.1318 19.866L37.5213 16.7719C37.882 16.4713 38.2153 16.1392 38.5174 15.7796L41.6077 16.3923L42.9769 13.0872L40.3597 11.3319C40.4016 10.8658 40.4 10.3986 40.3581 9.92659ZM32.3722 15.102C31.7775 15.1132 31.1865 15.0059 30.6337 14.7861C30.081 14.5663 29.5776 14.2385 29.1531 13.8219C28.7285 13.4053 28.3912 12.9082 28.161 12.3598C27.9307 11.8113 27.8122 11.2224 27.8122 10.6276C27.8122 10.0328 27.9307 9.44391 28.161 8.89545C28.3912 8.34698 28.7285 7.84992 29.1531 7.43332C29.5776 7.01672 30.081 6.68894 30.6337 6.46915C31.1865 6.24936 31.7775 6.14197 32.3722 6.15326C33.5442 6.1755 34.6606 6.65667 35.4816 7.49336C36.3026 8.33004 36.7625 9.45543 36.7625 10.6276C36.7625 11.7998 36.3026 12.9252 35.4816 13.7619C34.6606 14.5985 33.5442 15.0797 32.3722 15.102Z" fill="#2BDF27"/>
<path d="M9.10662 34.0287C8.95842 34.0287 8.691 33.7898 8.67275 33.6405L7.75183 25.6594L4.61053 25.0322L8.9697 17.0426V16.1303C8.9697 9.22261 14.5897 3.60101 21.4989 3.60101V0.0209961C12.598 0.0209961 5.38968 7.23258 5.38968 16.1297L0.0209961 25.9741V26.8698C0.0209961 27.3627 0.415673 27.8433 0.898414 27.9394L4.49561 28.6601L5.11743 34.054C5.34296 36.008 7.13861 37.6093 9.10662 37.6093H14.34L16.1303 42.979H19.9014L18.109 37.5996C20.4858 37.5758 22.8418 37.1536 25.079 36.3506V32.4994C22.8833 33.4697 20.4674 34.0287 17.9195 34.0287H9.10662ZM33.8752 24.1849C32.9859 25.9344 31.8352 27.5286 30.4493 28.891V42.979H34.0293V30.2994C35.6229 28.4869 36.9015 26.4201 37.8117 24.1849H33.8752Z" fill="#191A1B"/>
</g>
<defs>
<clipPath id="clip0_1189_686">
<rect width="43" height="43" fill="white"/>
</clipPath>
</defs>
</svg>
