<svg width="43" height="43" viewBox="0 0 43 43" fill="none" xmlns="http://www.w3.org/2000/svg">
<g clip-path="url(#clip0_1189_702)">
<path d="M28.6666 4.47954L21.5001 0V2.68751H18.8126C8.42319 2.68751 0 11.1107 0 21.5001C0 29.0504 4.45482 35.5402 10.8694 38.5351L12.3819 35.2913C7.18962 32.8661 3.58352 27.612 3.58352 21.5001C3.58352 13.0898 10.4023 6.27103 18.8126 6.27103H21.5001V8.95854L28.6666 4.47954ZM32.1308 4.46557L30.6188 7.70939C35.8105 10.1341 39.4166 15.3887 39.4166 21.5001C39.4166 29.9109 32.5979 36.7297 24.1876 36.7297H21.5001V34.0421L14.3336 38.5217L21.5001 43.0001V40.3126H24.1876C34.577 40.3126 43.0001 31.89 43.0001 21.5001C43.0001 13.9503 38.5453 7.46106 32.1308 4.46557Z" fill="#191A1B"/>
<path d="M29.4785 20.6324L33.1459 18.176L32.0832 15.611L27.7526 16.4689C27.3905 16.0181 26.9805 15.6081 26.5298 15.2461L27.3876 10.9154L24.821 9.85278L22.3663 13.5202C21.7905 13.4573 21.2096 13.4573 20.6339 13.5202L18.1775 9.85278L15.6142 10.9154L16.4699 15.2461C16.0189 15.6078 15.6088 16.0179 15.2471 16.4689L10.9164 15.6132L9.85376 18.1776L13.5206 20.6324C13.458 21.2083 13.458 21.7894 13.5206 22.3653L9.85376 24.8217L10.9164 27.3861L15.246 26.5282C15.6136 26.9851 16.0205 27.3931 16.4699 27.7511L15.6131 32.0817L18.1786 33.146L20.6334 29.477C21.2091 29.5399 21.79 29.5399 22.3657 29.477L24.8221 33.146L27.3871 32.0817L26.5292 27.7532C26.98 27.3897 27.3907 26.9791 27.7542 26.5282L32.0848 27.3861L33.1453 24.8217L29.478 22.3664C29.5421 21.7902 29.5423 21.2086 29.4785 20.6324ZM21.4998 25.9795C19.0257 25.9795 17.0208 23.9713 17.0208 21.4988C17.039 20.323 17.5189 19.2014 18.3569 18.3763C19.1949 17.5512 20.3238 17.0887 21.4998 17.0887C22.6758 17.0887 23.8047 17.5512 24.6427 18.3763C25.4807 19.2014 25.9606 20.323 25.9788 21.4988C25.9788 23.9713 23.9739 25.9795 21.4998 25.9795Z" fill="#2BDF27"/>
</g>
<defs>
<clipPath id="clip0_1189_702">
<rect width="43" height="43" fill="white"/>
</clipPath>
</defs>
</svg>
