<svg width="104" height="26" viewBox="0 0 104 26" fill="none" xmlns="http://www.w3.org/2000/svg">
<g clip-path="url(#clip0_1194_3097)">
<path d="M14.83 0H15.0451C16.4497 0.0595511 17.7657 0.381127 19.069 0.917086C19.8662 1.23866 20.638 1.64361 21.4352 1.84608C21.5997 1.88181 21.7389 1.85799 21.8781 1.77462C22.283 1.50069 22.5993 1.11956 22.9663 0.809895C22.979 0.797984 22.9916 0.786074 23.0169 0.762254C23.0422 0.738433 23.0549 0.726523 23.0802 0.726523C23.5863 0.726523 24.0925 0.726523 24.586 0.726523C24.5986 0.726523 24.6113 0.738433 24.6113 0.750344L23.9659 9.52817C23.9659 9.54008 23.9533 9.54008 23.9533 9.54008H22.4475C22.4348 9.54008 22.4222 9.52817 22.4222 9.51626C21.6377 6.13376 19.8915 1.92945 15.5133 1.73889C13.7292 1.66743 12.0968 2.0962 10.7809 3.27531C8.98406 4.8951 8.16158 7.42006 7.73135 9.65918C7.35175 11.6125 7.21256 13.5538 7.21256 15.5309C7.21256 18.6633 7.79462 23.88 12.0842 24.5112C12.3246 24.547 12.565 24.5589 12.8181 24.5589C15.855 24.4993 17.0318 22.3197 17.2089 19.8186C17.2469 19.1993 17.3987 18.4727 17.3101 17.7939C16.9938 15.4356 14.6782 15.1855 12.641 15.3284C12.6283 15.3284 12.6283 15.3284 12.6283 15.3165L12.7675 13.6134C12.7675 13.6015 12.7801 13.5896 12.7928 13.5896H26.851C26.8636 13.5896 26.8763 13.6015 26.8636 13.6134L26.5979 15.3046C26.5979 15.3165 26.5852 15.3284 26.5726 15.3284C24.915 15.4118 23.4471 16.055 23.6243 17.9011C23.6369 18.0321 23.6369 18.1393 23.6369 18.2464C23.4598 20.6761 23.2826 23.0939 23.0928 25.5236C23.0928 25.5474 23.0802 25.5474 23.0549 25.5474H21.2454C21.2328 25.5474 21.2074 25.5355 21.1948 25.5236L19.9674 24.1658C19.9547 24.1539 19.9421 24.1539 19.9294 24.1658C17.5885 25.4045 14.9566 26.0119 12.274 26.0238C12.0336 26.0238 11.7805 26.0119 11.5401 25.9762C7.31378 25.4759 3.40382 23.7966 1.45516 20.0092C0.468183 18.0797 0.126536 16.0669 0 13.9469V13.8397C0.0506144 13.5896 0.101229 13.3394 0.13919 13.0893C0.556759 10.8264 1.32863 8.55153 2.60664 6.58635C4.28957 4.00183 6.64314 2.16766 9.69266 1.09574C11.3629 0.500229 13.0459 0.178653 14.83 0Z" fill="#191A1B"/>
<path d="M101.874 2.41757L101.482 6.57423C101.482 6.58614 101.469 6.60996 101.444 6.60996H96.0029C95.9776 6.60996 95.965 6.59805 95.965 6.57423L96.3572 2.41757C96.3572 2.40566 96.3699 2.38184 96.3952 2.38184H101.836C101.849 2.38184 101.874 2.39375 101.874 2.41757Z" fill="#191A1B"/>
<path d="M34.3925 20.0333C34.5064 21.665 34.9493 24.4401 37.1383 24.7736C37.3788 24.8093 37.6192 24.8093 37.8722 24.7617C39.8715 24.4163 40.7573 22.1295 41.1495 20.5336C41.6557 18.4731 41.8834 16.3293 41.7822 14.2093C41.7189 12.8158 41.4785 10.9339 40.365 9.89776C39.8083 9.37371 38.9352 9.09977 38.138 9.26651C35.3289 9.85011 34.7215 13.7924 34.4684 15.9362C34.3292 17.294 34.2913 18.6637 34.3925 20.0333ZM30.4066 23.4754C28.5718 21.8556 27.8632 19.4736 27.7873 17.1868C27.7873 17.0677 27.7873 16.9486 27.8126 16.8295C28.42 13.8162 29.989 11.0292 32.8741 9.45708C34.5317 8.5519 36.4804 8.07549 38.429 7.94448C38.6441 7.93257 38.8592 7.93257 39.0743 7.94448C42.0353 8.17077 44.9203 9.14741 46.6412 11.5414C47.7421 13.0778 48.2482 15.0311 48.3241 16.8771C48.3241 16.9843 48.3241 17.1034 48.2988 17.2106C47.9445 18.9495 47.2486 20.6408 46.1224 22.0581C44.0852 24.6069 40.9218 25.6431 37.6445 25.8336C37.5179 25.8455 37.4041 25.8455 37.2775 25.8336C34.8101 25.7026 32.254 25.1071 30.4066 23.4754Z" fill="#191A1B"/>
<path d="M58.2066 10.0637C57.0551 11.1714 56.5616 12.9103 56.2959 14.3871C56.0428 15.7806 55.9163 17.186 55.9289 18.6033C55.9416 20.4613 56.1061 24.5465 58.8772 24.7847C60.092 24.8919 61.1043 24.0701 61.6863 23.153C62.2557 22.2479 62.5974 21.2236 62.8378 20.1993C63.306 18.1388 63.4831 16.0546 63.3693 13.9584C63.2807 12.2671 62.8252 9.56348 60.5602 9.24191C59.6997 9.12281 58.8013 9.49202 58.2066 10.0637ZM51.9431 23.427C50.1462 21.7953 49.4629 19.4728 49.3744 17.186C49.3744 17.0669 49.3744 16.9478 49.3997 16.8287C49.7413 15.1494 50.3867 13.5177 51.399 12.1242C53.4109 9.38483 56.5996 8.19381 60.0161 7.93178C60.2185 7.91987 60.421 7.91987 60.6234 7.93178C64.1285 8.20572 67.3045 9.48011 68.8736 12.6125C69.5189 13.9107 69.8226 15.3876 69.9112 16.8406C69.9112 16.9478 69.9112 17.0669 69.8859 17.186C69.6708 18.2579 69.3165 19.2822 68.8356 20.2708C67.0008 23.9868 63.3819 25.5827 59.2189 25.809C59.0923 25.8209 58.9658 25.8209 58.8519 25.809C56.3971 25.7018 53.7652 25.0825 51.9431 23.427Z" fill="#191A1B"/>
<path d="M86.6899 11.5406C85.1082 12.7435 83.7289 14.1251 82.4129 15.5543C82.4003 15.5662 82.4003 15.5781 82.4129 15.59C83.982 17.8173 85.551 20.0445 87.1327 22.2717C87.3099 22.5099 87.4491 22.7004 87.5756 22.8315C88.3981 23.7128 89.5243 24.2369 90.777 24.2369C90.8023 24.2369 90.8149 24.2488 90.8149 24.2726L90.7137 25.6661C90.7137 25.6899 90.7011 25.6899 90.6757 25.6899H79.3634C79.3508 25.6899 79.3508 25.6899 79.3508 25.678L79.452 24.2607C79.452 24.2488 79.4647 24.2369 79.49 24.2369C79.8696 24.2488 81.059 24.2249 81.1729 23.7247C81.2362 23.427 80.5149 22.4741 80.2998 22.1764C79.6545 21.295 79.0471 20.4137 78.4524 19.5085C78.4397 19.4966 78.4397 19.4966 78.4271 19.5085C77.7438 20.1397 77.0984 20.7948 76.4531 21.4499C76.0861 21.831 75.7445 22.2359 75.4281 22.6647C75.3269 22.7957 75.1245 23.0816 75.2383 23.2126C75.251 23.2245 75.251 23.2364 75.251 23.2483C75.0612 24.213 76.8327 24.2607 77.4401 24.2369C77.4654 24.2369 77.478 24.2488 77.478 24.2726L77.3768 25.678C77.3768 25.6899 77.3642 25.6899 77.3642 25.6899H68.0384C68.0258 25.6899 68.0258 25.6899 68.0258 25.678L68.127 24.2607C68.127 24.2607 68.127 24.2488 68.1397 24.2488C69.9238 24.4036 71.5815 23.4508 72.9101 22.4265C74.5551 21.1521 76.0102 19.6276 77.3135 18.0435C77.3262 18.0316 77.3262 18.0197 77.3135 18.0197C75.5926 15.7211 73.8718 13.4224 72.1509 11.1237C71.9484 10.8617 71.7966 10.683 71.6953 10.5758C71.1639 10.0637 70.4932 9.80168 69.6961 9.81359C69.6708 9.81359 69.6581 9.80168 69.6581 9.77786L69.7593 8.37245C69.7593 8.36054 69.772 8.34863 69.7846 8.34863H80.6414C80.6541 8.34863 80.6541 8.36054 80.6541 8.36054L80.5529 9.77786C80.5529 9.78977 80.5402 9.80168 80.5149 9.80168C80.0594 9.78977 79.2622 9.8255 79.123 10.3495C79.123 10.3615 79.0977 10.3853 79.0724 10.421C79.0597 10.4329 79.0597 10.4448 79.0597 10.4567C79.0597 10.552 79.085 10.6354 79.1104 10.7188C79.3128 11.2071 79.6165 11.6716 79.9202 12.1242C80.401 12.8388 80.9072 13.5534 81.426 14.2442C81.4386 14.2561 81.4386 14.2561 81.4513 14.2442C82.1093 13.6129 82.7546 12.9698 83.3873 12.3028C83.653 12.017 84.5134 11.0999 84.4881 10.7307C84.4881 10.6711 84.4881 10.6235 84.4881 10.5878C84.5767 9.81359 82.8938 9.80168 82.4256 9.80168C82.4003 9.80168 82.4003 9.78977 82.4003 9.76595L82.5015 8.36054C82.5015 8.34863 82.5142 8.34863 82.5268 8.34863H91.2452C91.2578 8.34863 91.2578 8.36054 91.2578 8.36054L91.1186 9.76595C91.1186 9.77786 91.106 9.78977 91.0933 9.78977C89.4737 9.63494 87.892 10.6235 86.6899 11.5406Z" fill="#191A1B"/>
<path d="M93.4849 9.77805C93.371 9.77805 93.2444 9.77805 93.1306 9.80187C93.1179 9.80187 93.1053 9.78996 93.1053 9.77805L93.2065 8.50366C93.2065 8.49175 93.2191 8.47984 93.2318 8.47984L102.115 8.33691C102.127 8.33691 102.127 8.33691 102.127 8.34882C101.798 12.7675 101.469 17.1981 101.14 21.6168C101.14 21.6525 101.115 21.7955 101.09 22.0456C100.849 23.8917 102.444 24.2966 103.975 24.2132C104 24.2132 104.013 24.2251 104.013 24.249L103.911 25.6305C103.911 25.6425 103.899 25.6544 103.886 25.6544H91.9411C91.9285 25.6544 91.9285 25.6544 91.9285 25.6425L92.0297 24.2251C92.0297 24.2132 92.0424 24.2132 92.0424 24.2132C92.2448 24.2132 92.4346 24.2132 92.6244 24.2132C94.1302 24.2013 95.3829 23.5939 95.4209 22.0098C95.4335 21.7002 95.4335 21.5096 95.4462 21.462C95.6613 18.4963 95.889 15.5307 96.1042 12.5531C96.1421 12.0648 96.2687 11.5408 96.1168 11.0524C95.7752 9.98052 94.5225 9.80187 93.4849 9.77805Z" fill="#191A1B"/>
</g>
<defs>
<clipPath id="clip0_1194_3097">
<rect width="104" height="26" fill="white"/>
</clipPath>
</defs>
</svg>
