<svg width="112" height="28" viewBox="0 0 112 28" fill="none" xmlns="http://www.w3.org/2000/svg">
<path d="M95.1494 19.1908H101.09C101.767 14.7771 102.464 10.2749 103.166 5.83853C103.308 4.94629 103.679 4.56581 104.069 4.26686C104.437 3.97221 104.827 3.82328 105.382 3.82328H109.801L112 0.000569466H103.718C102.486 0.0262472 100.698 0.53274 99.3012 1.72168C98.0693 2.76118 97.2473 4.33285 97.0215 5.75501L95.1494 17.8323V19.1908ZM95.1494 1.35911V0.000312689H95.3577L95.1494 1.35911ZM94.9236 19.1908H95.1494V17.8323L94.9236 19.1908ZM95.1494 0.000312689V1.35911L92.3567 19.1908H79.0617C77.501 19.1908 76.1857 18.448 75.3835 17.3859C74.6864 16.4733 74.1734 15.2006 74.5001 13.2484C75.1993 8.78935 75.8591 4.43903 76.5562 0.000312689H82.7203L80.708 12.8657C80.5217 13.9482 80.5831 14.3287 80.8899 14.7544C81.1596 15.1145 81.6309 15.3476 82.1439 15.3726C83.7068 15.3469 85.2675 15.3726 86.8107 15.3726L89.2111 0.0229091L95.1494 0.000312689ZM62.5028 19.1908V15.3727H63.5901C63.7961 15.3727 64.0241 15.347 64.206 15.2841C64.4954 15.2 64.7431 15.051 64.9689 14.8809C65.4204 14.5208 65.7076 14.0114 65.8106 13.5018C66.2008 10.9971 66.5911 8.5128 66.9812 6.03079C67.0448 5.62508 67.0623 5.22233 66.9613 4.88486C66.8998 4.69227 66.7749 4.49969 66.6544 4.35268C66.4045 4.0131 66.0165 3.82308 65.4817 3.82308H62.5026V0.000376883H68.2766C70.2275 -0.0188814 71.2556 0.702406 72.0558 1.5924C72.446 2.018 72.7769 2.55037 72.9807 3.16406C73.2066 3.86385 73.3096 4.67231 73.1649 5.58496C72.7549 8.32291 72.3253 10.9114 71.8913 13.672C71.6041 15.264 70.804 16.4733 69.7956 17.4312C69.3441 17.8524 68.8092 18.2148 68.2349 18.5115C67.3493 18.9577 66.262 19.1909 65.3369 19.1909L62.5028 19.1908ZM62.5026 0.000376883V3.82308L59.789 3.82302L57.9827 15.3727H62.5028V19.1908H60.1003C59.0305 19.1908 58.1866 19.0618 57.4479 18.7447C57.119 21.1225 56.7683 23.5208 56.4197 25.8964L50.8103 27.724V22.119L52.9475 8.38627L57.0379 6.17824L53.6271 3.82302L54.2431 0.000312689L62.5026 0.000376883ZM50.8103 3.82302H51.1193L51.7134 0.000312689H50.8102L50.8103 3.82302ZM50.8102 0.000312689L50.8103 3.82302H39.7775C39.0168 3.82302 38.3416 4.31218 37.9492 4.96895C37.7651 5.30854 37.6621 5.68908 37.6402 6.07181C37.601 6.71054 38.1356 7.68424 39.2009 7.68424H45.7575C46.8447 7.68424 47.9341 8.15286 48.7562 8.91844C49.4138 9.55461 49.907 10.361 50.1131 11.4004C50.2359 11.9936 50.2578 12.5894 50.1523 13.2892C50.0712 13.989 49.8257 14.7771 49.5187 15.4111C49.0672 16.3261 48.449 17.0689 47.6686 17.7256C46.5595 18.6179 45.0381 19.1908 43.6813 19.1908H29.937L30.5332 15.3727H41.875C42.4691 15.347 42.9426 15.1146 43.2912 14.7545C43.6814 14.3719 43.9488 13.8645 44.0101 13.3322C44.0716 12.8656 43.9071 12.2498 43.4972 11.8671C43.2495 11.6341 42.8812 11.5069 42.4472 11.5069C40.2507 11.4813 38.2581 11.5069 36.0594 11.5069C34.148 11.4813 32.5061 10.3384 31.8046 8.55613C31.5175 7.85635 31.4363 7.04788 31.4758 6.17824C31.5394 5.17951 31.9296 4.18308 32.3811 3.35427C33.5933 1.25493 35.8731 0.0229733 38.052 0.000312689H50.8102ZM50.8103 22.119V27.724L49.8874 28L50.8103 22.119ZM8.89762 19.1908V17.6418L11.6291 0.000312689H25.1082C27.366 0.0259904 29.8956 2.12457 29.5866 5.26559C28.8691 9.90759 28.1501 14.5493 27.4296 19.1908H21.2873L23.361 5.81818C23.4837 5.15916 23.2995 4.69266 23.0322 4.35294C22.7451 4.01335 22.3132 3.82334 21.82 3.82334H17.1771L14.7944 19.1911L8.89762 19.1908ZM8.89762 1.57198L9.12343 0.000312689H8.89762V1.57198ZM8.89762 0.000312689V1.57198L6.14443 19.1908H0L1.6638 8.38627L5.77396 6.17824L2.38279 3.82302L2.97907 0.000312689H8.89762ZM8.89762 17.6418L8.64994 19.1908H8.89762V17.6418Z" fill="#191A1B"/>
</svg>
