<svg width="90" height="45" viewBox="0 0 90 45" fill="none" xmlns="http://www.w3.org/2000/svg">
<g clip-path="url(#clip0_1194_3090)">
<path fill-rule="evenodd" clip-rule="evenodd" d="M49.002 0.036326C49.1899 -0.0186191 49.3778 0.018011 49.5657 -0.000304058C50.5991 -0.000304058 51.6325 -0.000304058 52.6659 -0.000304058C52.8162 -0.000304058 52.9477 -0.0186191 53.098 0.018011C53.4738 0.054641 53.8684 -0.0186191 54.2442 0.054641C54.4884 0.072956 54.7139 0.036326 54.9582 0.072956C55.1648 0.109586 55.3715 0.054641 55.5594 0.109586C55.7473 0.146216 55.9352 0.091271 56.1231 0.146216C56.2922 0.182846 56.4613 0.146216 56.6116 0.182846C56.7431 0.219476 56.8935 0.182846 57.0438 0.219476C57.1753 0.256106 57.3256 0.219476 57.4571 0.256106C60.6513 0.530831 63.8266 1.00702 66.9456 1.75794C68.2421 2.06929 69.5385 2.43559 70.8162 2.85684C72.2442 3.31471 73.6534 3.86416 75.0062 4.48688C75.382 4.68834 75.7765 4.81655 76.1335 5.03633C77.8621 5.89713 79.5156 6.94109 81.0187 8.14988C81.3006 8.40629 81.62 8.64439 81.883 8.91911C82.1648 9.13889 82.4091 9.37699 82.6346 9.65171C82.954 9.94475 83.217 10.2744 83.4989 10.6041C84.1753 11.4283 84.7765 12.3074 85.2463 13.2598C85.5093 13.7543 85.716 14.2854 85.9039 14.8165C86.1294 15.5308 86.3173 16.2817 86.4112 17.0327C86.43 17.2341 86.4676 17.4356 86.4676 17.6371C86.5051 17.8202 86.4864 18.0034 86.5051 18.1865C86.5051 18.4429 86.5051 18.6993 86.5051 18.9374C86.4488 18.9374 86.4112 18.9191 86.3548 18.9191C86.3736 18.681 86.3548 18.4612 86.3548 18.2231C86.3736 17.747 86.2985 17.2891 86.2421 16.8312C86.1669 16.4649 86.1106 16.0803 85.979 15.714C85.8099 15.1096 85.5657 14.5235 85.3026 13.9557C84.7202 12.8202 83.9686 11.7763 83.0855 10.8422C82.8601 10.5675 82.5782 10.3477 82.334 10.0913C82.2024 9.94475 82.0333 9.83486 81.9018 9.70666C80.2108 8.24146 78.2943 7.05098 76.2651 6.0986C75.2504 5.60409 74.1983 5.16453 73.1273 4.77992C70.3465 3.75427 67.4529 3.02167 64.5406 2.50885C62.2108 2.08761 59.8433 1.81288 57.4759 1.66636C57.288 1.62973 57.0813 1.66636 56.8747 1.62973C56.668 1.5931 56.4801 1.62973 56.2734 1.5931C55.9916 1.53816 55.7097 1.61142 55.4467 1.55647C55.0709 1.51984 54.6951 1.57479 54.3381 1.51984C53.2296 1.51984 52.121 1.51984 50.9937 1.51984C50.8621 1.51984 50.7118 1.51984 50.5803 1.51984C50.2233 1.57479 49.8475 1.51984 49.4905 1.55647C49.2087 1.61142 48.9081 1.55647 48.6262 1.5931C48.4195 1.62973 48.2317 1.5931 48.025 1.62973C47.8183 1.66636 47.6116 1.62973 47.4049 1.66636C47.2546 1.68468 47.1043 1.66636 46.9352 1.70299C46.7661 1.73962 46.5782 1.70299 46.4091 1.73962C44.3235 1.90446 42.2379 2.14255 40.1523 2.45391C37.8413 2.82021 35.5302 3.25977 33.2567 3.84585C29.5177 4.77992 25.835 6.02534 22.3402 7.61874C21.739 7.89347 21.1565 8.20482 20.5552 8.47955C17.8308 9.87149 15.2191 11.5198 12.9268 13.5528C12.7014 13.7176 12.5323 13.9374 12.3068 14.1206C12.1565 14.2305 12.0062 14.377 11.8747 14.5235C11.7056 14.7616 11.4425 14.9264 11.2734 15.1645C9.9018 16.6297 8.71808 18.3147 7.9853 20.1828C7.68468 20.9704 7.44042 21.7946 7.32768 22.6371C7.2901 22.8568 7.27132 23.0766 7.25253 23.3147C7.23374 23.5345 7.27132 23.7543 7.23374 23.9741C7.19616 24.1206 7.27132 24.2488 7.25253 24.3953C7.23374 24.7799 7.2901 25.1645 7.34647 25.5491C7.68468 27.7836 8.83082 29.8532 10.3715 31.5015C10.5594 31.7396 10.8037 31.9411 11.0291 32.1609C11.2358 32.3623 11.4425 32.5821 11.668 32.7653C13.1335 34.0656 14.8246 35.1279 16.5719 36.0437C19.86 37.7103 23.4112 38.8459 27.0187 39.6151C29.9874 40.2378 33.0124 40.659 36.0375 40.8605C36.2254 40.8971 36.4133 40.8605 36.6012 40.8971C36.7891 40.9338 36.977 40.8971 37.1648 40.9338C37.3903 40.9704 37.6346 40.9338 37.8788 40.9704C38.1982 41.0253 38.5177 40.9704 38.8183 41.007C39.0062 41.0437 39.1941 41.0253 39.382 41.0253C40.5281 41.0253 41.6742 41.0253 42.8204 41.0253C43.0271 41.0253 43.2337 41.0437 43.4216 41.007C43.7223 40.9704 44.0229 41.0253 44.3235 40.9887C44.5866 40.9338 44.8496 40.9887 45.1127 40.9521C45.3193 40.9154 45.5072 40.9521 45.7139 40.9154C45.9018 40.8788 46.1085 40.9154 46.3152 40.8788C51.0688 40.5675 55.7849 39.8532 60.407 38.6993C61.6471 38.388 62.8872 38.04 64.1085 37.6554C64.4091 37.5455 64.7285 37.4722 65.0292 37.3623C65.2734 37.2708 65.5177 37.1975 65.7619 37.1242C67.5657 36.5015 69.3319 35.8239 71.0605 35.0363C71.2672 34.9631 71.455 34.8532 71.6429 34.7616C72.0187 34.5968 72.3945 34.4319 72.7515 34.2305C74.1983 33.5162 75.6074 32.7103 76.9603 31.8312C78.1064 31.0803 79.2337 30.2561 80.2672 29.377C80.4362 29.2671 80.549 29.1023 80.7181 28.9924C80.8872 28.8458 81.0375 28.6627 81.2254 28.5162C81.4697 28.333 81.6763 28.1132 81.8642 27.8752C82.2964 27.4722 82.6722 27.0143 83.0667 26.5748C83.217 26.703 83.3674 26.8129 83.5365 26.9045C83.3674 27.1975 83.1419 27.4539 82.9352 27.7286C82.4843 28.2964 82.0145 28.8458 81.526 29.3587C81.3006 29.6334 80.9999 29.8532 80.7745 30.1279C80.7181 30.2195 80.6241 30.2744 80.549 30.3477C80.3047 30.5675 80.0793 30.8239 79.8162 31.0437C79.6471 31.1535 79.5344 31.3184 79.3653 31.4283C77.2421 33.2781 74.8935 34.8532 72.4321 36.2451C71.7181 36.648 70.9853 37.051 70.2525 37.399C69.8955 37.6004 69.5198 37.7653 69.144 37.9667C68.8809 38.0583 68.6179 38.2231 68.3548 38.333C68.1669 38.4063 67.9978 38.5162 67.8099 38.5894C63.977 40.2927 59.9749 41.6297 55.8788 42.6554C51.7828 43.681 47.5928 44.377 43.3841 44.7799C43.2713 44.7982 43.1398 44.7799 43.0271 44.8165C42.8955 44.8532 42.7452 44.8165 42.6137 44.8532C42.4822 44.8715 42.3507 44.8532 42.2191 44.8898C42.0876 44.9264 41.9561 44.8898 41.8246 44.9264C41.6555 44.9631 41.4676 44.9264 41.2985 44.9631C41.1481 44.9997 40.979 44.9631 40.8287 44.9997C40.6596 45.0363 40.4717 44.9997 40.3026 45.0363C40.1523 45.073 39.9832 45.0546 39.8329 45.0546C39.7202 45.0546 39.6074 45.0913 39.4759 45.0913C39.2692 45.0913 39.0625 45.073 38.8747 45.1096C38.5552 45.1462 38.217 45.0913 37.8976 45.1462C37.4655 45.1462 37.0333 45.1462 36.6012 45.1462C36.4884 45.1462 36.3945 45.1828 36.2818 45.1828C35.6993 45.1828 35.1168 45.1828 34.5156 45.1828C34.215 45.1279 33.9143 45.1645 33.5949 45.1462C33.3319 45.1279 33.05 45.1645 32.787 45.1096C32.4863 45.0913 32.2045 45.1462 31.9039 45.073C31.6784 45.0546 31.4529 45.0913 31.2275 45.0363C31.0396 44.9997 30.8517 45.0546 30.6638 44.9997C30.4947 44.9631 30.3068 45.018 30.1377 44.9631C29.9874 44.9264 29.8183 44.9631 29.668 44.9264C29.5177 44.8898 29.3486 44.9264 29.1982 44.8715C28.5406 44.8349 27.883 44.7616 27.2442 44.6883C24.2003 44.3404 21.1753 43.8092 18.2066 43.0217C15.7076 42.344 13.2463 41.4832 10.9164 40.366C9.28175 39.5784 7.68468 38.6627 6.23791 37.5638C5.95608 37.3806 5.71182 37.1609 5.44877 36.9594C5.29846 36.8312 5.14814 36.7213 4.99783 36.5748C4.80994 36.4466 4.65962 36.2634 4.49052 36.1169C4.37779 35.9887 4.20868 35.9154 4.11474 35.7689C3.96443 35.5491 3.72017 35.4026 3.55106 35.1828C2.72434 34.2854 1.99157 33.2781 1.4091 32.2158C1.25879 31.9777 1.16484 31.703 1.03332 31.4466C0.488434 30.2378 0.13144 28.9374 0.0374947 27.6187C-0.0188727 27.399 0.0562839 27.1609 -8.35555e-05 26.9411C-0.0188727 26.7579 -0.0188727 26.5748 -8.35555e-05 26.41C0.075073 26.1535 -8.35583e-05 25.8971 0.0562839 25.6407C0.169019 24.1389 0.601169 22.6737 1.22121 21.3001C1.29637 21.1169 1.4091 20.9704 1.46547 20.7872C1.52184 20.659 1.5782 20.5308 1.65336 20.4209C2.46129 18.8825 3.51349 17.4722 4.6972 16.1902C4.80994 16.0437 4.96025 15.9338 5.0542 15.7872C5.52393 15.3111 5.99365 14.8715 6.48217 14.3953C6.6137 14.2671 6.76401 14.1755 6.89553 14.029C8.22956 12.8385 9.67633 11.7579 11.1795 10.7689C11.4425 10.5858 11.7243 10.4393 11.9874 10.2561C13.8663 9.06563 15.8204 8.03999 17.8308 7.08761C18.0563 7.01435 18.263 6.86783 18.4696 6.79457C19.6158 6.26343 20.7995 5.78724 21.9832 5.32937C22.8287 5.01801 23.693 4.68834 24.5573 4.41362C25.3653 4.12057 26.192 3.88248 27.0187 3.62607C31.0772 2.39896 35.2484 1.51984 39.4571 0.933762C40.7348 0.768927 42.0124 0.604092 43.2901 0.494201C43.4216 0.457571 43.5532 0.494201 43.6659 0.457571C43.7974 0.420941 43.9289 0.457571 44.0605 0.420941C44.192 0.384311 44.3423 0.420941 44.4738 0.384311C44.6053 0.347681 44.7557 0.384311 44.906 0.347681C45.0751 0.311051 45.263 0.347681 45.4321 0.311051C45.6012 0.274421 45.7703 0.311051 45.9394 0.274421C46.1085 0.237791 46.2964 0.274421 46.4655 0.237791C46.6909 0.182846 46.9164 0.237791 47.1419 0.201161C47.4425 0.127901 47.7619 0.219476 48.0625 0.146216C48.382 0.018011 48.6826 0.054641 49.002 0.036326Z" fill="#191A1B"/>
<path fill-rule="evenodd" clip-rule="evenodd" d="M85.8664 7.23401C86.3361 7.17906 86.8434 7.3439 87.1628 7.69188C87.4259 7.94829 87.5386 8.29628 87.5386 8.66258C87.5574 9.24866 87.1441 9.83474 86.5616 10.0179C86.0919 10.1827 85.5658 10.1095 85.1524 9.85306C84.8142 9.61496 84.5699 9.23034 84.5324 8.8091C84.5324 8.64426 84.5136 8.46111 84.5699 8.29628C84.6451 8.0765 84.739 7.8384 84.9269 7.69188C85.19 7.41716 85.5282 7.27064 85.8664 7.23401ZM86.0167 7.54536C85.81 7.56368 85.6033 7.61862 85.4342 7.72851C85.1336 7.92998 84.9645 8.29628 84.9457 8.66258C84.9645 9.02888 85.1524 9.41349 85.4906 9.59665C85.8476 9.81643 86.3173 9.79811 86.6555 9.57833C87.0125 9.35855 87.1816 8.91899 87.1253 8.51606C87.1065 8.16807 86.881 7.8384 86.5616 7.65525C86.3925 7.60031 86.2046 7.54536 86.0167 7.54536ZM85.8664 7.92998C85.7349 7.98492 85.5658 7.89335 85.4718 7.98492C85.453 8.46111 85.4718 8.9373 85.4718 9.41349C85.6033 9.41349 85.7349 9.41349 85.8664 9.41349C85.8664 9.21203 85.8664 9.02888 85.8664 8.82741C85.9791 8.82741 86.0919 8.82741 86.1858 8.88236C86.2985 9.04719 86.261 9.24866 86.3925 9.39518C86.524 9.41349 86.6555 9.39518 86.7683 9.39518C86.6555 9.15708 86.6931 8.82741 86.4489 8.66258C86.524 8.62595 86.5992 8.571 86.6555 8.49774C86.7307 8.38785 86.7119 8.22302 86.6555 8.11313C86.5804 8.00324 86.4489 7.94829 86.3173 7.92998C86.167 7.94829 86.0167 7.87503 85.8664 7.92998ZM85.8664 8.22302C85.8476 8.33291 85.8664 8.4428 85.8664 8.55269C85.9979 8.55269 86.1294 8.58932 86.2422 8.51606C86.2798 8.47943 86.2985 8.42448 86.3361 8.38785C86.2985 8.31459 86.261 8.22302 86.167 8.2047C86.0543 8.18639 85.9228 8.14976 85.8664 8.22302ZM12.833 16.3732C12.9269 16.3366 13.0397 16.4098 13.1336 16.3915C13.3215 16.3732 13.5094 16.4281 13.6973 16.4648C14.2046 16.5747 14.6743 16.8311 15.1816 16.9776C15.2756 17.0142 15.3319 16.9227 15.3695 16.8677C15.4259 16.7029 15.4259 16.538 15.4823 16.3732C15.7641 16.3732 16.0459 16.3732 16.3278 16.3732C16.3278 17.7835 16.3278 19.1754 16.3278 20.5857C16.0459 20.5857 15.7453 20.5857 15.4635 20.5857C15.4447 20.4391 15.4071 20.2926 15.4259 20.1461C15.3507 19.5234 15.1065 18.8824 14.6743 18.4062C14.524 18.2596 14.3925 18.1131 14.2046 18.0032C13.8476 17.7468 13.3967 17.6553 12.9645 17.6003C12.3633 17.5637 11.7432 17.8933 11.4614 18.4428C11.405 18.571 11.3674 18.6992 11.3486 18.8457C11.3299 19.1205 11.4614 19.3769 11.6305 19.5966C12.0438 20.0545 12.6075 20.3842 13.1524 20.6772C13.8476 21.0618 14.5616 21.3915 15.2192 21.8311C15.5386 22.0325 15.8393 22.2523 16.0835 22.527C16.5908 22.9849 16.9478 23.6259 17.0042 24.3036C17.0793 24.56 17.0042 24.7981 16.9854 25.0545C16.8914 25.6772 16.6284 26.2633 16.1962 26.7212C16.1023 26.8494 15.9896 26.9593 15.858 27.0509C15.3132 27.5087 14.6367 27.7835 13.9415 27.8567C13.6597 27.9117 13.3779 27.875 13.096 27.8933C12.7954 27.8567 12.4948 27.8201 12.1942 27.7468C11.7996 27.6369 11.405 27.4721 11.0104 27.3622C10.8789 27.3256 10.7474 27.289 10.6159 27.3073C10.5407 27.3805 10.5407 27.4904 10.5219 27.6003C10.5031 27.6919 10.5031 27.7835 10.5031 27.8933C10.2025 27.8933 9.92067 27.8933 9.62004 27.8933C9.62004 26.5014 9.62004 25.1095 9.62004 23.7175C9.92067 23.7175 10.2025 23.7175 10.5031 23.7175C10.5219 24.1754 10.5971 24.6333 10.7662 25.0545C10.9353 25.5307 11.2923 25.952 11.7244 26.245C12.1754 26.5197 12.7203 26.6846 13.2651 26.6662C13.6033 26.6846 13.9415 26.6113 14.261 26.4648C14.5052 26.3366 14.7307 26.1534 14.8622 25.9153C15.0313 25.6223 15.0689 25.2743 14.9937 24.9446C14.8998 24.7065 14.7683 24.4684 14.5616 24.3036C14.261 23.9922 13.8852 23.7542 13.5094 23.5161C12.6263 22.9849 11.6493 22.5637 10.8413 21.9043C10.6347 21.7578 10.4656 21.5564 10.2777 21.3915C9.97704 21.0618 9.73278 20.6772 9.62004 20.256C9.54489 19.9629 9.50731 19.6699 9.50731 19.3585C9.54489 18.6626 9.82673 17.9849 10.3152 17.4721C10.3904 17.3439 10.5407 17.2706 10.6534 17.1607C11.1608 16.7395 11.8184 16.4831 12.4948 16.4098C12.6263 16.3915 12.739 16.4098 12.833 16.3732ZM68.9937 18.5161C69.2004 18.4794 69.4259 18.4794 69.6514 18.5161C70.2902 18.5527 70.9102 18.7908 71.4551 19.0655C71.6242 18.919 71.6618 18.6992 71.6806 18.4794C71.9436 18.4794 72.1879 18.4794 72.4509 18.4794C72.4509 18.5344 72.4697 18.6076 72.4697 18.6626C72.5073 18.8274 72.4509 19.0106 72.5073 19.1754C72.5449 19.3402 72.5073 19.5051 72.5449 19.6699C72.6013 19.8531 72.5261 20.0545 72.5825 20.2377C72.62 20.4025 72.5825 20.5673 72.62 20.7322C72.6576 20.897 72.62 21.0802 72.6576 21.245C72.714 21.4648 72.6388 21.6846 72.7328 21.9043C72.4697 21.9043 72.2255 21.9043 71.9624 21.9043C71.7933 21.3549 71.6242 20.7871 71.2484 20.3476C71.023 20.0362 70.6848 19.8164 70.309 19.6882C70.0835 19.615 69.8768 19.5417 69.6326 19.56C69.5386 19.56 69.4259 19.5051 69.3319 19.5417C69.2192 19.5783 69.1065 19.56 69.0125 19.5783C68.6931 19.6516 68.3737 19.7432 68.1107 19.9263C67.9603 20.0362 67.7912 20.1461 67.6785 20.2926C67.2088 20.8238 67.0021 21.5197 66.8894 22.1974C66.8706 22.3622 66.833 22.527 66.8518 22.7102C66.7954 22.9117 66.833 23.1314 66.8142 23.3329C66.8142 23.4977 66.7954 23.6626 66.833 23.8274C66.8894 24.6516 67.1712 25.4941 67.81 26.0618C68.2422 26.4098 68.7683 26.6296 69.3319 26.6662C69.595 26.6479 69.8768 26.7029 70.1399 26.6296C70.3278 26.593 70.5157 26.538 70.7036 26.4648C70.9666 26.3549 71.1733 26.1534 71.3988 25.9703C71.4927 25.8237 71.643 25.7139 71.737 25.5857C71.9248 25.3476 72.094 25.1095 72.2631 24.8531C72.357 24.8531 72.4134 24.9263 72.4885 24.9813C72.6388 25.0911 72.8079 25.1827 72.9582 25.2926C72.9582 25.3842 72.8831 25.4391 72.8643 25.5307C72.62 25.9703 72.3382 26.4098 71.9624 26.7761C71.5679 27.1974 71.0418 27.5087 70.4969 27.6736C69.5011 27.9666 68.4113 27.93 67.4342 27.5454C67.1148 27.4355 66.8142 27.234 66.5324 27.0509C66.2881 26.886 66.1002 26.6662 65.8935 26.4648C65.2547 25.7322 64.8977 24.7981 64.8226 23.8457C64.8413 23.6809 64.7662 23.5344 64.785 23.3695C64.7662 23.2047 64.8413 23.0216 64.8226 22.8567C64.9353 21.5747 65.5365 20.3109 66.5699 19.4868C67.2276 18.8824 68.0919 18.571 68.9937 18.5161ZM17.0418 18.6626C17.0418 18.9556 17.0418 19.2303 17.0418 19.5234C17.3424 19.5417 17.6618 19.4868 17.9624 19.5783C18.1503 19.6333 18.1691 19.8531 18.1879 19.9996C18.1879 21.3183 18.1879 22.6186 18.1879 23.9373C18.2067 24.212 18.1503 24.4868 18.2255 24.7615C18.2255 25.1644 18.3194 25.5673 18.4509 25.952C18.6013 26.3183 18.8079 26.6846 19.1086 26.9593C19.2025 27.0692 19.3152 27.1607 19.4468 27.234C20.048 27.6553 20.7996 27.7651 21.5136 27.8201C21.739 27.8018 21.9645 27.8384 22.19 27.8018C22.9415 27.7651 23.7119 27.527 24.2568 27.0142C24.8017 26.5197 25.1211 25.8054 25.1962 25.0911C25.2338 24.908 25.215 24.7248 25.2526 24.5417C25.2526 23.1131 25.2526 21.6846 25.2526 20.256C25.2338 20.0545 25.2526 19.8347 25.3653 19.6516C25.6472 19.4868 25.9854 19.5417 26.3048 19.5417C26.6054 19.56 26.9624 19.4868 27.2255 19.6699C27.357 19.8347 27.3194 20.0362 27.3194 20.2194C27.3758 20.4025 27.3382 20.5857 27.357 20.7688C27.357 22.3622 27.357 23.9739 27.357 25.5673C27.357 25.7505 27.3758 25.9336 27.3194 26.1168C27.3006 26.2999 27.357 26.538 27.2067 26.6846C26.8873 26.8494 26.5115 26.7944 26.1545 26.7944C26.1545 27.0692 26.1545 27.3439 26.1545 27.6186C27.5449 27.6186 28.9165 27.6186 30.3069 27.6186C30.3069 27.3439 30.3069 27.0692 30.3069 26.7944C29.9875 26.7944 29.6493 26.8311 29.3299 26.7212C29.1795 26.6296 29.142 26.4465 29.142 26.2816C29.142 25.4574 29.142 24.6333 29.142 23.8091C29.4802 23.8457 29.8184 23.9373 30.1566 23.919C30.3257 23.919 30.4948 23.9373 30.6639 23.9007C31.0209 23.8824 31.3591 23.7725 31.6973 23.6443C31.9979 23.4977 32.2798 23.278 32.5052 23.0399C32.7119 22.7651 32.8998 22.4538 32.9937 22.1058C33.1628 21.5563 33.1441 20.9703 32.9374 20.4208C32.8059 20.0728 32.5804 19.7798 32.3173 19.5234C31.8288 19.1021 31.2088 18.8457 30.5699 18.7542C30.3633 18.6992 30.1378 18.7542 29.9311 18.6992C27.5825 18.6992 25.215 18.6992 22.8664 18.6992C22.8664 18.9922 22.8664 19.267 22.8664 19.56C23.2046 19.5783 23.5804 19.5051 23.8998 19.6516C24.0313 19.7432 24.0313 19.9263 24.0501 20.0545C24.0877 20.201 24.0689 20.3476 24.0689 20.5124C24.0689 21.7212 24.0689 22.93 24.0689 24.1388C24.0689 24.267 24.0125 24.3769 24.0313 24.5051C24.0501 24.6699 24.0125 24.8164 23.9937 24.9813C23.9374 25.3109 23.8434 25.6589 23.618 25.9153C23.4489 26.1351 23.2234 26.2816 22.9791 26.4098C22.6221 26.5563 22.2464 26.6846 21.8706 26.6662C21.6827 26.6662 21.476 26.6846 21.2881 26.6113C20.762 26.5014 20.2735 26.1351 20.1232 25.6223C20.048 25.3659 20.0104 25.0911 19.9917 24.8164C19.9165 24.5417 19.9917 24.2303 19.9353 23.9556C19.9353 22.9117 19.9353 21.8494 19.9353 20.8054C19.9353 20.6223 19.9165 20.4391 19.9729 20.256C19.9917 20.0545 19.9353 19.8347 20.0668 19.6699C20.1795 19.5966 20.3111 19.56 20.4238 19.5417C20.6493 19.5417 20.8935 19.5417 21.119 19.5417C21.119 19.2487 21.119 18.9739 21.119 18.6809C19.8038 18.6626 18.4134 18.6626 17.0418 18.6626ZM29.1983 19.8347C29.4426 19.7981 29.6869 19.7798 29.9311 19.7981C30.3445 19.8531 30.7203 20.0911 30.9081 20.4574C31.1148 20.8054 31.1524 21.2267 31.1148 21.6296C31.0397 21.9776 30.9269 22.3622 30.6451 22.6003C30.476 22.7835 30.1942 22.875 29.9311 22.875C29.8184 22.875 29.7244 22.8384 29.6117 22.8384C29.4614 22.8567 29.3299 22.8018 29.1983 22.8018C29.1983 21.8128 29.1983 20.8238 29.1983 19.8347ZM33.1628 18.6626C35.4927 18.6626 37.8226 18.6626 40.1524 18.6626C40.1524 18.7542 40.1524 18.864 40.1712 18.9556C40.2276 19.1388 40.1712 19.3219 40.2088 19.5051C40.2651 19.7065 40.19 19.908 40.2464 20.1095C40.2839 20.2743 40.2463 20.4574 40.2839 20.6223C40.3215 20.7688 40.3027 20.9336 40.3027 21.0802C40.0209 21.0802 39.739 21.0802 39.476 21.0802C39.4008 20.7505 39.3633 20.3842 39.1942 20.0728C39.0814 19.8531 38.8372 19.7432 38.5929 19.7432C38.4802 19.7432 38.3674 19.7065 38.2359 19.7065C37.5407 19.7065 36.8455 19.7065 36.1691 19.7065C36.1691 20.604 36.1691 21.5014 36.1691 22.4172C36.7516 22.4172 37.3152 22.4172 37.8977 22.4172C38.1044 22.3988 38.3486 22.3805 38.499 22.2157C38.6493 22.0325 38.6681 21.7761 38.6868 21.538C38.7056 21.4281 38.7244 21.2999 38.7244 21.19C39.0063 21.19 39.2881 21.19 39.5699 21.19C39.5699 22.3622 39.5699 23.5344 39.5699 24.7248C39.2881 24.7248 39.0063 24.7248 38.7244 24.7248C38.7432 24.56 38.6868 24.3769 38.6868 24.212C38.6493 23.9922 38.6117 23.7542 38.4238 23.6259C38.2735 23.5161 38.1044 23.4977 37.9353 23.4977C37.3528 23.4977 36.7891 23.4977 36.2067 23.4977C36.2067 24.4501 36.2067 25.3842 36.2067 26.3366C36.2067 26.4098 36.2443 26.4831 36.2818 26.538C36.9958 26.538 37.7098 26.538 38.4238 26.538C38.7808 26.5563 39.1378 26.4098 39.382 26.1717C39.7578 25.8237 40.0021 25.3659 40.2651 24.9263C40.547 24.9263 40.8288 24.9263 41.1107 24.9263C41.1107 25.0545 41.0355 25.1827 40.9979 25.3109C40.8288 25.8054 40.6597 26.2999 40.4906 26.7944C40.4342 27.0325 40.3403 27.2706 40.2464 27.527C40.2276 27.582 40.19 27.6186 40.1336 27.6003C37.8226 27.6003 35.5115 27.6003 33.2192 27.6003C33.2192 27.3256 33.2192 27.0509 33.2192 26.7761C33.5574 26.7761 33.8956 26.8128 34.2338 26.7029C34.4029 26.593 34.4029 26.3732 34.4217 26.2084C34.4217 24.3769 34.4217 22.527 34.4217 20.6955C34.4029 20.4025 34.4593 20.1095 34.3841 19.8164C34.3653 19.7065 34.2526 19.5966 34.1399 19.5783C33.8393 19.5051 33.5386 19.5417 33.238 19.5417C33.1628 19.2303 33.1628 18.9556 33.1628 18.6626ZM40.8476 18.6626C40.8476 18.9556 40.8476 19.2303 40.8476 19.5234C41.1858 19.5417 41.5804 19.4684 41.881 19.6333C42.0313 19.8714 41.9937 20.1461 41.9937 20.4025C41.9937 22.3439 41.9937 24.2853 41.9937 26.2267C41.975 26.3915 41.975 26.593 41.8058 26.7029C41.4864 26.8128 41.167 26.7761 40.8288 26.7761C40.8288 27.0509 40.8288 27.3256 40.8288 27.6003C42.2192 27.6003 43.5908 27.6003 44.9812 27.6003C44.9812 27.3256 44.9812 27.0509 44.9812 26.7761C44.643 26.7578 44.2484 26.8311 43.9478 26.6662C43.8163 26.5564 43.8351 26.3549 43.8351 26.2084C43.7787 25.9703 43.8163 25.7322 43.7975 25.4941C43.7975 24.908 43.7975 24.3219 43.7975 23.7542C43.929 23.7542 44.0418 23.7542 44.1733 23.7542C44.38 23.9922 44.5491 24.267 44.737 24.5051C45.4885 25.5307 46.2401 26.5747 46.9917 27.6186C48.8894 27.6186 50.7871 27.6186 52.6848 27.6186C52.6848 27.3439 52.6848 27.0692 52.6848 26.7944C52.3653 26.7944 52.0271 26.8311 51.7077 26.7212C51.5386 26.6296 51.5386 26.4281 51.5198 26.245C51.5198 24.7615 51.5198 23.2596 51.5198 21.7761C51.6138 21.9043 51.6514 22.0509 51.7077 22.1791C52.5345 23.9922 53.3612 25.8054 54.1879 27.6186C54.3946 27.6186 54.62 27.6186 54.8267 27.6186C54.8455 27.5087 54.9207 27.3988 54.9583 27.2889C55.8038 25.4574 56.6305 23.6076 57.476 21.7761C57.476 23.2963 57.476 24.7981 57.476 26.3183C57.476 26.4465 57.4384 26.6113 57.3445 26.7029C57.0251 26.8494 56.6681 26.7944 56.3299 26.8128C56.3299 27.0875 56.3299 27.3622 56.3299 27.6369C59.0731 27.6369 61.8351 27.6369 64.5783 27.6369C64.5783 27.3622 64.5783 27.0875 64.5783 26.8128C64.2589 26.7944 63.9582 26.8494 63.6576 26.7578C63.5637 26.7395 63.4885 26.6662 63.4509 26.593C63.357 26.2633 63.3946 25.9153 63.3946 25.5857C63.3946 23.9373 63.3946 22.3073 63.3946 20.6589C63.3946 20.4025 63.3758 20.1461 63.4322 19.908C63.4322 19.7615 63.5449 19.6333 63.6952 19.615C63.9958 19.5417 64.2965 19.5783 64.5971 19.5783C64.5971 19.2853 64.5971 19.0106 64.5971 18.7175C62.286 18.7175 59.9562 18.7175 57.6451 18.7175C57.5699 18.8457 57.5324 18.9922 57.4572 19.1205C56.6681 20.8604 55.8789 22.582 55.0898 24.3219C54.9958 24.4868 54.9582 24.6516 54.8455 24.7981C54.8267 24.7065 54.7891 24.615 54.7328 24.5417C53.8309 22.6003 52.9478 20.6589 52.0459 18.7358C51.0877 18.7358 50.1294 18.7358 49.1712 18.7358C49.1712 19.0289 49.1712 19.3036 49.1712 19.5966C49.3779 19.5966 49.5846 19.5966 49.81 19.5966C49.9603 19.615 50.1107 19.6333 50.2046 19.7615C50.3549 19.908 50.3361 20.1278 50.3737 20.3109C50.3737 22.0875 50.3737 23.864 50.3737 25.6589C50.3737 26.0069 50.4113 26.3549 50.2985 26.6662C50.1294 26.8494 49.8664 26.8494 49.6409 26.8494C49.2839 26.8677 48.9081 26.7944 48.5887 26.6113C48.3633 26.5014 48.1942 26.2999 48.0251 26.1351C47.7244 25.8054 47.4802 25.4025 47.1983 25.0545C46.8413 24.5417 46.4656 24.0289 46.0898 23.4977C46.4468 23.4062 46.7662 23.223 47.0668 23.0032C47.3299 22.8201 47.5178 22.5637 47.6869 22.3073C47.856 22.0142 47.9311 21.6662 47.9499 21.3366C47.9687 20.7139 47.762 20.0545 47.2923 19.615C46.785 19.0838 46.0334 18.8457 45.3194 18.7725C45.1691 18.7725 45.0188 18.7725 44.8685 18.7358C43.5345 18.6626 42.1816 18.6626 40.8476 18.6626ZM59.7683 19.5234C60.1628 19.4868 60.5574 19.5234 60.952 19.5051C61.1211 19.4868 61.2714 19.5417 61.4217 19.5783C61.6284 19.7065 61.5532 19.9629 61.6096 20.1461C61.6096 22.1058 61.6096 24.0655 61.6096 26.0435C61.6096 26.1534 61.572 26.245 61.572 26.3549C61.572 26.5014 61.5157 26.6479 61.3653 26.7029C61.0647 26.7944 60.7265 26.7578 60.4071 26.7761C60.0877 26.7761 59.7307 26.8128 59.4301 26.6662C59.3173 26.538 59.2985 26.3366 59.3173 26.1717C59.3173 24.1205 59.3173 22.0692 59.3173 19.9996C59.3173 19.8897 59.3549 19.7798 59.3925 19.6699C59.5052 19.5783 59.6367 19.56 59.7683 19.5234ZM43.7975 19.7981C44.0418 19.7981 44.2672 19.7432 44.4927 19.7248C44.8497 19.7615 45.2255 19.8531 45.4697 20.1095C45.714 20.3292 45.8267 20.6223 45.8831 20.9336C45.9395 21.3183 45.8831 21.7212 45.6388 22.0325C45.5073 22.1791 45.357 22.3256 45.1879 22.4172C44.7557 22.6369 44.2672 22.7285 43.7975 22.7102C43.7975 21.7395 43.8163 20.7688 43.7975 19.7981ZM72.9019 18.6626C72.9019 18.9556 72.9019 19.2303 72.9019 19.5234C73.2401 19.5417 73.6159 19.4684 73.9353 19.615C74.048 19.7065 74.0668 19.8714 74.0668 19.9996C74.0668 20.1095 74.1044 20.201 74.1044 20.3109C74.1044 22.0875 74.1044 23.8457 74.1044 25.6223C74.1044 25.8054 74.1232 25.9886 74.0668 26.1717C74.0668 26.3366 74.0668 26.5197 73.9729 26.6479C73.8977 26.7029 73.785 26.7395 73.691 26.7578C73.428 26.8128 73.1649 26.7761 72.9207 26.7944C72.9207 27.0692 72.9207 27.3439 72.9207 27.6186C74.3111 27.6186 75.6827 27.6186 77.0731 27.6186C77.0731 27.3439 77.0731 27.0692 77.0731 26.7944C76.7537 26.7944 76.4155 26.8311 76.096 26.7212C75.9269 26.6296 75.9269 26.4281 75.9081 26.245C75.9081 25.4025 75.9081 24.5783 75.9081 23.7358C76.0397 23.7358 76.1524 23.7358 76.2839 23.7358C76.3027 23.7725 76.3215 23.8091 76.3591 23.8457C76.8288 24.4868 77.2798 25.1095 77.7495 25.7505C78.1816 26.3732 78.6514 26.9776 79.0835 27.6003C80.0042 27.6003 80.9061 27.6003 81.8267 27.6003C81.8267 27.3439 81.8267 27.0875 81.8267 26.8128C81.6576 26.7395 81.4697 26.7944 81.2818 26.7395C80.9436 26.6846 80.6054 26.538 80.3612 26.2999C80.0042 25.9886 79.7599 25.5857 79.4781 25.2194C79.0647 24.615 78.6138 24.0289 78.2004 23.4245C78.5011 23.3329 78.7829 23.2047 79.0459 23.0216C79.215 22.93 79.3466 22.7651 79.4969 22.6369C79.8163 22.3073 80.0042 21.8494 80.0418 21.3915C80.0418 21.1534 80.0605 20.9153 80.0042 20.6772C79.9478 20.4208 79.8727 20.1461 79.7223 19.9263C79.5157 19.56 79.1587 19.267 78.7829 19.0655C78.3507 18.8457 77.8622 18.7358 77.3737 18.6992C77.2234 18.7175 77.0919 18.6992 76.9416 18.6626C75.5699 18.6626 74.2359 18.6626 72.9019 18.6626ZM76.453 19.7432C76.547 19.7065 76.6597 19.7248 76.7724 19.7615C77.0543 19.7981 77.3361 19.908 77.5428 20.1095C77.7495 20.3292 77.8998 20.604 77.9562 20.9153C77.9562 21.0618 78.0313 21.2084 77.975 21.3732C77.9562 21.7578 77.7683 22.1424 77.4301 22.3439C77.261 22.4721 77.0543 22.5454 76.8664 22.6186C76.547 22.6919 76.2276 22.7651 75.8894 22.7285C75.8894 21.7578 75.8894 20.7871 75.8894 19.8164C75.9645 19.8164 76.0397 19.8164 76.1148 19.7981C76.2276 19.7432 76.3403 19.7615 76.453 19.7432Z" fill="#191A1B"/>
<path fill-rule="evenodd" clip-rule="evenodd" d="M86.0167 7.5459C86.2046 7.5459 86.3925 7.60084 86.5616 7.6741C86.881 7.83894 87.1065 8.16861 87.1253 8.53491C87.1816 8.93784 87.0125 9.35909 86.6556 9.59718C86.3173 9.83528 85.8476 9.83528 85.4906 9.6155C85.1524 9.43235 84.9645 9.04773 84.9457 8.68143C84.9645 8.33344 85.1336 7.96714 85.4343 7.74736C85.6034 7.61916 85.81 7.58253 86.0167 7.5459ZM85.8664 7.93051C85.7349 7.98546 85.5658 7.89388 85.4718 7.98546C85.453 8.46165 85.4718 8.93784 85.4718 9.41403C85.6034 9.41403 85.7349 9.41403 85.8664 9.41403C85.8664 9.21257 85.8664 9.02941 85.8664 8.82795C85.9791 8.82795 86.0919 8.82795 86.1858 8.88289C86.2986 9.04773 86.261 9.24919 86.3925 9.39571C86.524 9.41403 86.6555 9.39571 86.7683 9.39571C86.6555 9.15762 86.6931 8.82795 86.4489 8.66311C86.524 8.62648 86.5992 8.57154 86.6556 8.49828C86.7307 8.38839 86.7119 8.22355 86.6556 8.11366C86.5804 8.00377 86.4489 7.94883 86.3173 7.93051C86.167 7.94883 86.0167 7.87557 85.8664 7.93051ZM85.8664 8.22355C85.8476 8.33344 85.8664 8.44333 85.8664 8.55322C85.9979 8.55322 86.1295 8.58985 86.2422 8.51659C86.2798 8.47996 86.2986 8.42502 86.3361 8.38839C86.2986 8.31513 86.261 8.22355 86.167 8.20524C86.0543 8.18692 85.9228 8.15029 85.8664 8.22355Z" fill="#191A1B"/>
<path fill-rule="evenodd" clip-rule="evenodd" d="M85.4155 18.8646C85.7161 18.8097 86.0355 18.8646 86.3361 18.8829C86.3925 18.8829 86.4301 18.9012 86.4864 18.9012C87.238 19.0294 87.9332 19.3591 88.4969 19.8536C88.7223 20.0734 88.9666 20.2749 89.1357 20.5313C89.3612 20.7877 89.4927 21.0807 89.643 21.3738C89.9061 21.9782 90.0188 22.6375 90 23.2785C89.9812 23.4067 89.9624 23.5533 89.9624 23.6815C89.8873 24.0478 89.8121 24.4141 89.6618 24.762C89.2672 25.7144 88.4969 26.5386 87.5386 26.9599C86.2798 27.5642 84.7203 27.4544 83.5553 26.7401C83.3862 26.6485 83.2359 26.5386 83.0856 26.4104C82.2025 25.7144 81.6388 24.6522 81.5261 23.5533C81.4697 23.132 81.5073 22.7108 81.5825 22.2895C81.6952 21.7584 81.8831 21.2273 82.2025 20.7694C82.3716 20.4946 82.5783 20.2566 82.8038 20.0185C83.0104 19.8536 83.1983 19.6888 83.405 19.5423C83.9875 19.1393 84.7015 18.9012 85.4155 18.8646Z" fill="#191A1B"/>
</g>
<defs>
<clipPath id="clip0_1194_3090">
<rect width="90" height="45" fill="white"/>
</clipPath>
</defs>
</svg>
