<svg width="146" height="30" viewBox="0 0 146 30" fill="none" xmlns="http://www.w3.org/2000/svg">
<g clip-path="url(#clip0_1189_122)">
<path d="M24.9584 0.0927734H8.28496C3.72823 0.0927734 0 3.42611 0 7.50018V22.4076C0 26.4817 3.72823 29.815 8.28496 29.815H24.9584C29.5152 29.815 33.2434 26.4817 33.2434 22.4076V7.50018C33.347 3.42611 29.6187 0.0927734 24.9584 0.0927734ZM26.8226 22.4076C26.8226 23.2409 25.9941 23.9817 25.062 23.9817H8.28496C7.3529 23.9817 6.52441 23.2409 6.52441 22.4076V7.50018C6.52441 6.66685 7.3529 5.92611 8.28496 5.92611H24.9584C25.8905 5.92611 26.719 6.66685 26.719 7.50018V22.4076H26.8226Z" fill="#ED1C3B"/>
<path d="M62.4479 0.0927734H38.1108C37.8001 0.0927734 37.4894 0.370551 37.4894 0.648329V29.4446C37.4894 29.7224 37.8001 30.0002 38.1108 30.0002H43.496C43.8067 30.0002 44.1174 29.7224 44.1174 29.4446V17.8706H62.5514C63.4835 17.8706 64.312 18.6113 64.312 19.4446V29.352C64.312 29.6298 64.6227 29.9076 64.9334 29.9076H70.3186C70.6293 29.9076 70.94 29.6298 70.94 29.352V19.4446C70.94 17.778 69.3865 16.2039 68.3509 14.9076C69.3865 13.6113 70.94 12.0372 70.94 10.3706V7.50018C70.8364 3.42611 67.1082 0.0927734 62.4479 0.0927734ZM44.0138 5.92611H62.4479C63.3799 5.92611 64.2084 6.66685 64.2084 7.50018V10.4631C64.2084 11.2965 63.3799 12.0372 62.4479 12.0372H44.0138V5.92611Z" fill="#ED1C3B"/>
<path d="M99.9373 0.0927734H75.6003C75.2896 0.0927734 74.9789 0.370551 74.9789 0.648329V29.352C74.9789 29.6298 75.2896 29.9076 75.6003 29.9076H100.041C104.598 29.9076 108.326 26.5743 108.326 22.5002V19.4446C108.326 17.778 106.772 16.2039 105.737 14.9076C106.772 13.6113 108.326 12.0372 108.326 10.3706V7.50018C108.326 3.42611 104.598 0.0927734 99.9373 0.0927734ZM99.9373 5.92611C100.869 5.92611 101.698 6.66685 101.698 7.50018V10.4631C101.698 11.2965 100.869 12.0372 99.9373 12.0372H81.5033V5.92611H99.9373ZM101.801 22.4076C101.801 23.2409 100.973 23.9817 100.041 23.9817H81.5033V17.8705H99.9373C100.869 17.8705 101.698 18.6113 101.698 19.4446V22.4076H101.801Z" fill="#ED1C3B"/>
<path d="M120.753 23.9815C119.821 23.9815 118.993 23.2407 118.993 22.4074V0.555556C118.993 0.277778 118.682 0 118.371 0H112.986C112.675 0 112.365 0.277778 112.365 0.555556V22.4074C112.365 26.4815 116.093 29.8148 120.65 29.8148H145.09C145.401 29.8148 145.712 29.537 145.712 29.2593V24.4444C145.712 24.1667 145.401 23.8889 145.09 23.8889H120.753V23.9815Z" fill="#ED1C3B"/>
</g>
<defs>
<clipPath id="clip0_1189_122">
<rect width="146" height="30" fill="white"/>
</clipPath>
</defs>
</svg>
