<svg width="102" height="21" viewBox="0 0 102 21" fill="none" xmlns="http://www.w3.org/2000/svg">
<g clip-path="url(#clip0_1189_823)">
<path d="M17.4712 0.0648148H5.79957C2.60981 0.0648148 0 2.39815 0 5.25V15.6852C0 18.537 2.60981 20.8704 5.79957 20.8704H17.4712C20.661 20.8704 23.2708 18.537 23.2708 15.6852V5.25C23.3433 2.39815 20.7335 0.0648148 17.4712 0.0648148ZM18.7761 15.6852C18.7761 16.2685 18.1962 16.787 17.5437 16.787H5.79957C5.14712 16.787 4.56716 16.2685 4.56716 15.6852V5.25C4.56716 4.66667 5.14712 4.14815 5.79957 4.14815H17.4712C18.1237 4.14815 18.7036 4.66667 18.7036 5.25V15.6852H18.7761Z" fill="#ED1C3B"/>
<path d="M43.7143 0.0648148H26.678C26.4606 0.0648148 26.2431 0.259259 26.2431 0.453704V20.6111C26.2431 20.8056 26.4606 21 26.678 21H30.4478C30.6652 21 30.8827 20.8056 30.8827 20.6111V12.5093H43.7868C44.4392 12.5093 45.0192 13.0278 45.0192 13.6111V20.5463C45.0192 20.7407 45.2367 20.9352 45.4542 20.9352H49.2239C49.4414 20.9352 49.6589 20.7407 49.6589 20.5463V13.6111C49.6589 12.4444 48.5714 11.3426 47.8465 10.4352C48.5714 9.52778 49.6589 8.42592 49.6589 7.25926V5.25C49.5864 2.39815 46.9765 0.0648148 43.7143 0.0648148ZM30.8102 4.14815H43.7143C44.3667 4.14815 44.9467 4.66667 44.9467 5.25V7.32407C44.9467 7.90741 44.3667 8.42592 43.7143 8.42592H30.8102V4.14815Z" fill="#ED1C3B"/>
<path d="M69.9574 0.0648148H52.9211C52.7036 0.0648148 52.4861 0.259259 52.4861 0.453704V20.5463C52.4861 20.7407 52.7036 20.9352 52.9211 20.9352H70.0299C73.2196 20.9352 75.8294 18.6018 75.8294 15.75V13.6111C75.8294 12.4444 74.742 11.3426 74.0171 10.4352C74.742 9.52777 75.8294 8.42592 75.8294 7.25926V5.25C75.8294 2.39815 73.2196 0.0648148 69.9574 0.0648148ZM69.9574 4.14815C70.6098 4.14815 71.1898 4.66667 71.1898 5.25V7.32407C71.1898 7.9074 70.6098 8.42592 69.9574 8.42592H57.0533V4.14815H69.9574ZM71.2623 15.6852C71.2623 16.2685 70.6823 16.787 70.0299 16.787H57.0533V12.5093H69.9574C70.6098 12.5093 71.1898 13.0278 71.1898 13.6111V15.6852H71.2623Z" fill="#ED1C3B"/>
<path d="M84.5288 16.787C83.8763 16.787 83.2964 16.2685 83.2964 15.6852V0.388889C83.2964 0.194444 83.0789 0 82.8614 0H79.0917C78.8742 0 78.6567 0.194444 78.6567 0.388889V15.6852C78.6567 18.537 81.2665 20.8704 84.4563 20.8704H101.565C101.783 20.8704 102 20.6759 102 20.4815V17.1111C102 16.9167 101.783 16.7222 101.565 16.7222H84.5288V16.787Z" fill="#ED1C3B"/>
</g>
<defs>
<clipPath id="clip0_1189_823">
<rect width="102" height="21" fill="white"/>
</clipPath>
</defs>
</svg>
