<svg width="35" height="35" viewBox="0 0 35 35" fill="none" xmlns="http://www.w3.org/2000/svg">
<g clip-path="url(#clip0_1195_5629)">
<path d="M9.12247 10.2152C9.72594 10.2152 10.2152 9.72594 10.2152 9.12247C10.2152 8.519 9.72594 8.02979 9.12247 8.02979C8.519 8.02979 8.02979 8.519 8.02979 9.12247C8.02979 9.72594 8.519 10.2152 9.12247 10.2152Z" fill="#191A1B"/>
<path d="M25.8778 26.97C26.4813 26.97 26.9705 26.4808 26.9705 25.8774C26.9705 25.2739 26.4813 24.7847 25.8778 24.7847C25.2744 24.7847 24.7852 25.2739 24.7852 25.8774C24.7852 26.4808 25.2744 26.97 25.8778 26.97Z" fill="#191A1B"/>
<path d="M9.12247 26.97C9.72594 26.97 10.2152 26.4808 10.2152 25.8774C10.2152 25.2739 9.72594 24.7847 9.12247 24.7847C8.519 24.7847 8.02979 25.2739 8.02979 25.8774C8.02979 26.4808 8.519 26.97 9.12247 26.97Z" fill="#191A1B"/>
<path d="M25.8778 10.2152C26.4813 10.2152 26.9705 9.72594 26.9705 9.12247C26.9705 8.519 26.4813 8.02979 25.8778 8.02979C25.2744 8.02979 24.7852 8.519 24.7852 9.12247C24.7852 9.72594 25.2744 10.2152 25.8778 10.2152Z" fill="#191A1B"/>
<path d="M21.871 11.6724H13.1287C12.7427 11.6736 12.3729 11.8275 12.1 12.1004C11.8271 12.3734 11.6732 12.7432 11.6719 13.1291V21.8706C11.6732 22.2566 11.8271 22.6264 12.1 22.8993C12.3729 23.1722 12.7427 23.3261 13.1287 23.3273H21.871C22.6704 23.3273 23.3278 22.6717 23.3278 21.8706V13.1291C23.3263 12.7432 23.1723 12.3736 22.8995 12.1007C22.6266 11.8278 22.2569 11.6739 21.871 11.6724ZM20.4143 20.4138H14.5859V14.5859H20.4143V20.4138ZM13.1287 24.7846H15.3149V26.9699H13.1287V24.7846ZM24.785 13.1291H26.9703V15.3145H24.785V13.1291ZM8.02979 13.1291H10.2152V21.8706H8.02979V13.1291ZM24.785 19.6852H26.9703V21.8706H24.785V19.6852ZM17.5003 24.7846H21.871V26.9699H17.5003V24.7846ZM14.5859 8.02979H20.4143V10.2152H14.5859V8.02979Z" fill="#191A1B"/>
<path d="M34.9833 9.85123V7.66587H32.0694V5.84459L29.1558 2.93106H27.3345V0.0170898H25.1492V2.93106H22.9638V0.0170898H20.7785V2.93106H18.5931V0.0170898H16.4077V2.93106H14.2215V0.0170898H12.0361V2.93106H9.85075V0.0170898H7.66538V2.93106H5.84454L2.93057 5.84459V7.66587H0.0166016V9.85123H2.93057V12.0366H0.0166016V14.222H2.93057V16.4073H0.0166016V18.5927H2.93057V20.7781H0.0166016V22.9634H2.93057V25.1488H0.0166016V27.3342H2.93057V29.1554L5.84454 32.069H7.66538V34.9829H9.85075V32.069H12.0361V34.9829H14.2215V32.069H16.4077V34.9829H18.5931V32.069H20.7785V34.9829H22.9638V32.069H25.1492V34.9829H27.3345V32.069H29.1558L32.0694 29.1554V27.3342H34.9833V25.1488H32.0694V22.9634H34.9833V20.7781H32.0694V18.5927H34.9833V16.4073H32.0694V14.222H34.9833V12.0366H32.0694V9.85123H34.9833ZM29.1558 27.9487L27.9491 29.1554H7.05086L5.84454 27.9487V7.05178L7.05261 5.84459H27.9495L29.1563 7.05178L29.1558 27.9487Z" fill="#191A1B"/>
</g>
<defs>
<clipPath id="clip0_1195_5629">
<rect width="35" height="35" fill="white"/>
</clipPath>
</defs>
</svg>
