<svg width="35" height="35" viewBox="0 0 35 35" fill="none" xmlns="http://www.w3.org/2000/svg">
<path d="M30.4166 17.4994H27.8335V8.45824C27.8276 8.11952 27.6889 7.79666 27.4473 7.5592C27.2057 7.32174 26.8805 7.18868 26.5417 7.18868C26.203 7.18868 25.8778 7.32174 25.6362 7.5592C25.3946 7.79666 25.2559 8.11952 25.25 8.45824V17.4994H9.75V8.45824C9.75 8.11565 9.61391 7.78709 9.37166 7.54484C9.12942 7.3026 8.80086 7.1665 8.45827 7.1665C8.11568 7.1665 7.78713 7.3026 7.54488 7.54484C7.30263 7.78709 7.16654 8.11565 7.16654 8.45824V17.4994H4.58346C3.16289 17.4994 2 18.6623 2 20.0829V27.8329C2 29.253 3.16289 30.4159 4.58346 30.4159V32.9994H7.16654V30.4159H27.8335V32.9994H30.4166V30.4159C31.8371 30.4159 33 29.253 33 27.8329V20.0829C33 18.6623 31.8371 17.4994 30.4166 17.4994ZM30.4166 27.8329H4.58346V20.0829H30.4166V27.8329Z" fill="#191A1B"/>
<path d="M7.16654 22.6656H9.75V25.2491H7.16654V22.6656ZM12.3335 22.6656H27.8335V25.2491H12.3335V22.6656ZM20.0835 4.67361L21.9098 6.49641C24.463 3.94472 28.6182 3.94472 31.1733 6.49757L33 4.67632C29.4315 1.109 23.6493 1.109 20.0835 4.67361ZM2 4.67361L3.82668 6.49641C6.37953 3.94472 10.5347 3.94472 13.0903 6.49757L14.9165 4.67632C11.3481 1.109 5.56578 1.109 2 4.67361Z" fill="#191A1B"/>
</svg>
