<svg width="35" height="35" viewBox="0 0 35 35" fill="none" xmlns="http://www.w3.org/2000/svg">
<g clip-path="url(#clip0_1195_5539)">
<path d="M4.78906 17.6982H17.2847V20.0913H4.78906V17.6982ZM4.78906 13.0634H17.2847V15.4566H4.78906V13.0634ZM4.78906 8.42871H17.2847V10.8219H4.78906V8.42871Z" fill="#191A1B"/>
<path d="M33.8034 3.80655H33.292V0H30.8989V3.80655H28.4145V0H26.0214V3.80655H25.4339C24.773 3.80655 24.2374 4.34232 24.2374 5.00313V9.97799C24.2374 12.5313 26.0301 14.6725 28.4226 15.2126V24.7926C28.4226 24.9576 28.2885 25.0918 28.1235 25.0918H22.0737V5.88307C22.0737 4.64595 21.0672 3.63948 19.8301 3.63948H2.24359C1.00647 3.63948 0 4.64595 0 5.88307V28.8168C0 29.7874 0.61953 30.6157 1.48384 30.9277V33.8034C1.48384 34.4643 2.0196 35 2.68042 35H7.13192C7.79274 35 8.3285 34.4643 8.3285 33.8034V31.0604H13.7451V33.8034C13.7451 34.4643 14.2809 35 14.9417 35H19.3933C20.0542 35 20.5899 34.4643 20.5899 33.8034V30.9277C21.4542 30.6157 22.0737 29.7873 22.0737 28.8168V27.4848H28.1235C29.6081 27.4848 30.8158 26.2771 30.8158 24.7925V15.2123C33.2077 14.6719 35 12.531 35 9.97799V5.00313C35 4.34232 34.4643 3.80655 33.8034 3.80655ZM2.39316 6.03264H19.6805V28.6672H2.39316V6.03264ZM5.93542 32.6068H3.877V31.0604H5.93534L5.93542 32.6068ZM16.1383 32.6068V31.0604H18.1967V32.6068H16.1383ZM32.6068 9.97792C32.6068 11.6179 31.2726 12.9521 29.6327 12.9521H29.6046C27.9646 12.9521 26.6304 11.6179 26.6304 9.97792V6.19971H32.6068V9.97792Z" fill="#191A1B"/>
</g>
<defs>
<clipPath id="clip0_1195_5539">
<rect width="35" height="35" fill="white"/>
</clipPath>
</defs>
</svg>
