<svg width="35" height="35" viewBox="0 0 35 35" fill="none" xmlns="http://www.w3.org/2000/svg">
<path d="M31.9998 9.04175V5.41677C31.9998 4.08749 30.912 3 29.5831 3H5.41677C4.08749 3 3 4.08749 3 5.41677V9.04175C3 10.371 4.08749 11.4585 5.41677 11.4585V13.271C4.08749 13.2707 3 14.3581 3 15.6874V19.3124C3 20.641 4.08749 21.7292 5.41677 21.7292V23.5417C4.08749 23.5417 3 24.6295 3 25.9581V29.5831C3 30.912 4.08749 31.9998 5.41677 31.9998H29.5834C30.912 31.9998 31.9998 30.912 31.9998 29.5831V25.9581C31.9998 24.6295 30.912 23.5417 29.5831 23.5417V21.7292C30.912 21.7292 31.9998 20.641 31.9998 19.3124V15.6874C31.9998 14.3581 30.912 13.2707 29.5831 13.2707V11.4582C30.912 11.4582 31.9998 10.3707 31.9998 9.04175ZM22.3331 9.04175V5.41677H24.7499V9.04175H22.3331ZM29.5831 9.04175H27.1667V5.41677H29.5831V9.04175ZM5.41677 5.41677H19.9167V9.04175H15.0831V6.62498H12.6664V9.04175H10.25V6.62498H7.83319V9.04175H5.41641L5.41677 5.41677ZM5.41677 15.6874H19.9167V19.3124H15.0831V16.8956H12.6664V19.3124H10.25V16.8956H7.83319V19.3124H5.41641L5.41677 15.6874ZM22.3331 19.3124V15.6874H24.7499V19.3124H22.3331ZM5.41677 25.9581H19.9167V29.5831H15.0831V27.1667H12.6664V29.5831H10.25V27.1667H7.83319V29.5831H5.41641L5.41677 25.9581ZM24.7499 25.9581V29.5831H22.3331V25.9581H24.7499ZM29.5831 29.5831H27.1667V25.9581H29.5831V29.5831ZM27.1667 23.5417H7.83319V21.7292H27.1663L27.1667 23.5417ZM29.5831 19.3124H27.1667V15.6874H29.5831V19.3124ZM27.1667 13.2707H7.83319V11.4582H27.1663L27.1667 13.2707Z" fill="#191A1B"/>
</svg>
