<svg width="35" height="35" viewBox="0 0 35 35" fill="none" xmlns="http://www.w3.org/2000/svg">
<path d="M1.26782 3.29688H6.16686V31.7031M31.7072 26.8055V30.7236H12.111V26.8055M6.16686 7.21498H33.7321V26.8055H6.16686M29.7476 17.0102C29.7476 20.2561 27.1155 22.8874 23.8687 22.8874M29.7476 17.0102C29.7476 13.7644 27.1155 11.1331 23.8687 11.1331M29.7476 17.0102C29.7476 17.0102 28.3993 15.6624 25.703 16.3207M23.8687 22.8874C20.6219 22.8874 17.9899 20.2561 17.9899 17.0102M23.8687 22.8874C23.8687 22.8874 25.2169 21.5396 24.5585 18.8439M17.9899 17.0102C17.9899 13.7644 20.6219 11.1331 23.8687 11.1331M17.9899 17.0102C17.9899 17.0102 19.3381 18.3581 22.0345 17.6998M23.8687 11.1331C23.8687 11.1331 22.5205 12.4809 23.1789 15.1766M10.1514 10.1536V12.1126M14.0706 10.1536V12.1126M10.1514 14.0717V16.0307M14.0706 14.0717V16.0307M10.1514 17.9898V19.9488M14.0706 17.9898V19.9488M10.1514 21.9079V23.8669M14.0706 21.9079V23.8669M6.16686 15.0512H2.24763V9.17403H6.16686M6.16686 24.8465H2.24763V18.9693H6.16686M16.0303 26.8055V30.7236M19.9495 26.8055V30.7236M23.8687 26.8055V30.7236M27.7879 26.8055V30.7236M23.8687 18.9693C22.7884 18.9693 21.9091 18.0902 21.9091 17.0102C21.9091 15.9303 22.7884 15.0512 23.8687 15.0512C24.949 15.0512 25.8283 15.9303 25.8283 17.0102C25.8283 18.0902 24.949 18.9693 23.8687 18.9693Z" stroke="#191A1B" stroke-width="2.2" stroke-miterlimit="10"/>
</svg>
