<svg width="35" height="35" viewBox="0 0 35 35" fill="none" xmlns="http://www.w3.org/2000/svg">
<g clip-path="url(#clip0_1195_5613)">
<path d="M35 27.5L35 7.5C35 6.83696 34.7366 6.20107 34.2678 5.73223C33.7989 5.26339 33.163 5 32.5 5L2.5 5C1.83696 5 1.20107 5.26339 0.732235 5.73223C0.263393 6.20107 -8.0296e-08 6.83696 -1.09278e-07 7.5L-9.83506e-07 27.5C-1.01249e-06 28.163 0.263392 28.7989 0.732234 29.2678C1.20107 29.7366 1.83696 30 2.5 30L32.5 30C33.163 30 33.7989 29.7366 34.2678 29.2678C34.7366 28.7989 35 28.163 35 27.5ZM2.5 15L2.5 12.5L5 12.5L5 15L2.5 15ZM2.5 17.5L5 17.5L5 22.5L2.5 22.5L2.5 17.5ZM2.5 25L6.25 25C6.58152 25 6.89946 24.8683 7.13388 24.6339C7.3683 24.3995 7.5 24.0815 7.5 23.75L7.5 11.25C7.5 10.9185 7.3683 10.6005 7.13388 10.3661C6.89946 10.1317 6.58152 10 6.25 10L2.5 10L2.5 7.5L32.5 7.5L32.5 27.5L2.5 27.5L2.5 25Z" fill="#191A1B"/>
<path d="M30 23.75L30 11.25C30 10.9185 29.8683 10.6005 29.6339 10.3661C29.3995 10.1317 29.0815 10 28.75 10L11.25 10C10.9185 10 10.6005 10.1317 10.3661 10.3661C10.1317 10.6005 10 10.9185 10 11.25L10 23.75C10 24.0815 10.1317 24.3995 10.3661 24.6339C10.6005 24.8683 10.9185 25 11.25 25L28.75 25C29.0815 25 29.3995 24.8683 29.6339 24.6339C29.8683 24.3995 30 24.0815 30 23.75ZM12.5 22.5L12.5 12.5L27.5 12.5L27.5 22.5L12.5 22.5Z" fill="#191A1B"/>
</g>
<defs>
<clipPath id="clip0_1195_5613">
<rect width="35" height="35" fill="white"/>
</clipPath>
</defs>
</svg>
