<svg width="35" height="35" viewBox="0 0 35 35" fill="none" xmlns="http://www.w3.org/2000/svg">
<g clip-path="url(#clip0_1195_5604)">
<path d="M19.6874 17.5002C19.6874 18.3055 20.3402 18.9584 21.1456 18.9584C21.9509 18.9584 22.6038 18.3055 22.6038 17.5002C22.6038 16.6948 21.9509 16.042 21.1456 16.042C20.3402 16.042 19.6874 16.6948 19.6874 17.5002Z" fill="#191A1B"/>
<path d="M28.073 10.2085C28.073 10.8126 28.5627 11.3022 29.1667 11.3022C29.7708 11.3022 30.2605 10.8126 30.2605 10.2085C30.2605 9.60443 29.7708 9.11475 29.1667 9.11475C28.5627 9.11475 28.073 9.60443 28.073 10.2085Z" fill="#191A1B"/>
<path d="M28.073 24.792C28.073 25.3961 28.5627 25.8857 29.1667 25.8857C29.7708 25.8857 30.2605 25.3961 30.2605 24.792C30.2605 24.1879 29.7708 23.6982 29.1667 23.6982C28.5627 23.6982 28.073 24.1879 28.073 24.792Z" fill="#191A1B"/>
<path d="M35 27.7082L35 7.29181C35 5.6875 33.6875 4.375 32.0832 4.375L2.91635 4.375C1.31291 4.375 -2.67603e-05 5.6875 -2.68304e-05 7.29181L-2.77228e-05 27.7086C-2.77929e-05 29.3121 1.31291 30.625 2.91679 30.625L32.0832 30.625C33.6875 30.625 35 29.3121 35 27.7082ZM2.91679 7.29181L10.2082 7.29181C10.2082 8.30025 10.003 9.26057 9.63329 10.1347L6.99123 8.63931L5.45079 11.9433L7.67679 12.775C6.39754 13.8871 4.74598 14.5836 2.91722 14.5836L2.91679 7.29181ZM2.91679 27.7082L2.91679 17.5C6.03135 17.5 8.81692 16.1 10.6899 13.8998L13.541 14.9651C13.2665 15.7821 13.1259 16.6381 13.125 17.5C13.125 21.9293 16.7169 25.5207 21.1457 25.5207C25.5745 25.5207 29.1668 21.9293 29.1668 17.5C29.1668 13.0703 25.5754 9.47932 21.1461 9.47932C18.4187 9.47932 16.012 10.8439 14.5639 12.9251L12.1739 11.5728C12.7996 10.2323 13.1242 8.77111 13.125 7.29181L32.0832 7.29181L32.0832 27.7086L2.91679 27.7082ZM19.0851 15.4849L17.1325 14.3798C18.0665 13.1814 19.5086 12.3961 21.1457 12.3961C23.9641 12.3957 26.25 14.6816 26.25 17.5C26.25 20.3184 23.9641 22.6043 21.1457 22.6043C18.3273 22.6043 16.0414 20.3184 16.0414 17.5C16.0414 16.9715 16.1437 16.4732 16.2934 15.9933L18.4686 16.8061L19.0851 15.4849Z" fill="#191A1B"/>
<path d="M7.29174 19.6875L7.29174 25.5207L5.10424 25.5207L5.10424 19.6875L7.29174 19.6875ZM11.6667 19.6875L11.6667 25.5207L9.47925 25.5207L9.47925 19.6875L11.6667 19.6875Z" fill="#191A1B"/>
</g>
<defs>
<clipPath id="clip0_1195_5604">
<rect width="35" height="35" fill="white"/>
</clipPath>
</defs>
</svg>
