<svg width="35" height="35" viewBox="0 0 35 35" fill="none" xmlns="http://www.w3.org/2000/svg">
<g clip-path="url(#clip0_1195_5598)">
<path d="M6.5625 22.6035L6.5625 18.2285L10.2082 18.2285L10.2082 22.6035L6.5625 22.6035ZM12.3957 22.6035L12.3957 18.2285L16.0414 18.2285L16.0414 22.6035L12.3957 22.6035ZM18.9582 22.6035L18.9582 18.2285L22.6043 18.2285L22.6043 22.6035L18.9582 22.6035ZM24.7918 22.6035L24.7918 18.2285L28.4375 18.2285L28.4375 22.6035L24.7918 22.6035Z" fill="#191A1B"/>
<path d="M2.91681 13.1248L-6.37451e-07 13.1248L0 27.708L35 27.708L35 13.1248L32.0832 13.1248L32.0832 7.29165L2.91681 7.29165L2.91681 13.1248ZM32.0832 16.0416L32.0832 18.958C31.6964 18.958 31.3254 19.1117 31.0519 19.3852C30.7784 19.6587 30.6248 20.0296 30.6248 20.4164C30.6248 20.8032 30.7784 21.1742 31.0519 21.4477C31.3254 21.7212 31.6964 21.8748 32.0832 21.8748L32.0832 24.7912L2.91681 24.7912L2.91681 21.8731C3.29736 21.8638 3.65919 21.706 3.92504 21.4336C4.1909 21.1611 4.33971 20.7956 4.33971 20.4149C4.33971 20.0342 4.1909 19.6686 3.92504 19.3962C3.65919 19.1237 3.29736 18.966 2.91681 18.9567L2.91681 16.0416L32.0832 16.0416ZM29.1668 10.208L29.1668 13.1248L27.3437 13.1248L27.3437 10.208L29.1668 10.208ZM25.1562 10.208L25.1562 13.1248L22.9687 13.1248L22.9687 10.208L25.1562 10.208ZM20.7812 10.208L20.7812 13.1248L18.5937 13.1248L18.5937 10.208L20.7812 10.208ZM16.4062 10.208L16.4062 13.1248L14.2187 13.1248L14.2187 10.208L16.4062 10.208ZM12.0312 10.208L12.0312 13.1248L9.84374 13.1248L9.84374 10.208L12.0312 10.208ZM7.65624 10.208L7.65624 13.1248L5.83318 13.1248L5.83318 10.208L7.65624 10.208Z" fill="#191A1B"/>
</g>
<defs>
<clipPath id="clip0_1195_5598">
<rect width="35" height="35" fill="white"/>
</clipPath>
</defs>
</svg>
