<svg width="35" height="35" viewBox="0 0 35 35" fill="none" xmlns="http://www.w3.org/2000/svg">
<path d="M29.6092 8.0347V2.96875H27.1876V8.0347C25.7802 8.53602 24.7656 9.86636 24.7656 11.4452C24.7656 13.4519 26.3927 15.078 28.3984 15.078C30.4041 15.078 32.0312 13.4519 32.0312 11.4452C32.0312 9.86636 31.0165 8.53602 29.6092 8.0347ZM28.3984 12.6564C28.2393 12.6564 28.0818 12.6252 27.9348 12.5643C27.7879 12.5035 27.6543 12.4143 27.5419 12.3018C27.4294 12.1893 27.3402 12.0557 27.2794 11.9088C27.2186 11.7618 27.1874 11.6042 27.1876 11.4452C27.1876 11.124 27.3151 10.8161 27.5422 10.589C27.7693 10.3619 28.0773 10.2344 28.3984 10.2344C28.7195 10.2344 29.0275 10.3619 29.2546 10.589C29.4816 10.8161 29.6092 11.124 29.6092 11.4452C29.6093 11.6042 29.5781 11.7618 29.5173 11.9088C29.4565 12.0557 29.3674 12.1893 29.2549 12.3018C29.1424 12.4143 29.0089 12.5035 28.8619 12.5643C28.715 12.6252 28.5574 12.6564 28.3984 12.6564ZM21.1328 2.96875C19.1271 2.96875 17.5 4.59588 17.5 6.60155C17.5 7.1621 17.6373 7.68595 17.8629 8.16003L12.6564 13.3658V20.6314L8.15785 25.1299C7.68449 24.9029 7.16101 24.7656 6.60155 24.7656C4.59588 24.7656 2.96875 26.3927 2.96875 28.3984C2.96875 30.4062 4.59588 32.0312 6.60155 32.0312C8.60723 32.0312 10.2344 30.4062 10.2344 28.3984C10.2344 27.8404 10.097 27.3154 9.86999 26.8421L15.078 21.6341V14.3685L19.5754 9.87253C20.0498 10.097 20.5733 10.2344 21.1328 10.2344C23.1384 10.2344 24.7656 8.60941 24.7656 6.60155C24.7656 4.59588 23.1384 2.96875 21.1328 2.96875ZM6.60155 29.6092C5.93203 29.6092 5.39074 29.0679 5.39074 28.3984C5.39074 27.7289 5.93203 27.1876 6.60155 27.1876C7.27108 27.1876 7.81237 27.7289 7.81237 28.3984C7.81237 29.0679 7.27108 29.6092 6.60155 29.6092ZM21.1328 7.81237C20.8116 7.81237 20.5036 7.68478 20.2765 7.45768C20.0494 7.23057 19.9218 6.92255 19.9218 6.60137C19.9218 6.2802 20.0494 5.97218 20.2765 5.74507C20.5036 5.51796 20.8116 5.39038 21.1328 5.39038C21.4539 5.39038 21.762 5.51796 21.9891 5.74507C22.2162 5.97218 22.3438 6.2802 22.3438 6.60137C22.3438 6.92255 22.2162 7.23057 21.9891 7.45768C21.762 7.68478 21.4539 7.81237 21.1328 7.81237Z" fill="#191A1B"/>
<path d="M11.4452 2.96875C9.4395 2.96875 7.81237 4.59588 7.81237 6.60155C7.81237 7.1621 7.94969 7.68595 8.17565 8.16003L5.39074 10.9438V15.3003C3.98339 15.8016 2.96875 17.132 2.96875 18.7108C2.96875 20.7186 4.59588 22.3436 6.60155 22.3436C8.60723 22.3436 10.2344 20.7186 10.2344 18.7108C10.2344 17.132 9.21972 15.8016 7.81237 15.3003V11.9469L9.88779 9.87253C10.3622 10.097 10.8846 10.2344 11.4452 10.2344C13.4508 10.2344 15.078 8.60941 15.078 6.60155C15.078 4.59588 13.4508 2.96875 11.4452 2.96875ZM6.60155 19.922C6.44249 19.9221 6.28497 19.8908 6.138 19.83C5.99103 19.7691 5.8575 19.6799 5.74504 19.5674C5.63258 19.4549 5.5434 19.3214 5.48261 19.1744C5.42182 19.0274 5.3906 18.8698 5.39074 18.7108C5.39074 18.3897 5.51831 18.0817 5.74538 17.8546C5.97245 17.6275 6.28043 17.5 6.60155 17.5C6.92268 17.5 7.23066 17.6275 7.45773 17.8546C7.6848 18.0817 7.81237 18.3897 7.81237 18.7108C7.81251 18.8698 7.78129 19.0274 7.7205 19.1744C7.65971 19.3214 7.57053 19.4549 7.45807 19.5674C7.34561 19.6799 7.21208 19.7691 7.06511 19.83C6.91814 19.8908 6.76062 19.9221 6.60155 19.922ZM11.4452 7.81237C11.2844 7.81515 11.1247 7.7859 10.9754 7.72631C10.8261 7.66672 10.6901 7.57799 10.5755 7.46529C10.4608 7.3526 10.3697 7.2182 10.3076 7.06993C10.2454 6.92167 10.2134 6.76251 10.2134 6.60174C10.2134 6.44096 10.2454 6.2818 10.3076 6.13354C10.3697 5.98527 10.4608 5.85087 10.5755 5.73818C10.6901 5.62549 10.8261 5.53675 10.9754 5.47717C11.1247 5.41758 11.2844 5.38832 11.4452 5.3911C11.7626 5.3966 12.0652 5.52657 12.2878 5.75301C12.5103 5.97945 12.635 6.28424 12.635 6.60174C12.635 6.91923 12.5103 7.22402 12.2878 7.45046C12.0652 7.6769 11.7626 7.80687 11.4452 7.81237ZM21.1328 12.6564C19.1271 12.6564 17.5 14.2813 17.5 16.2902C17.5 17.8691 18.5146 19.2005 19.922 19.6996V23.0531L17.8465 25.1299C17.3732 24.9029 16.8497 24.7656 16.2892 24.7656C14.2835 24.7656 12.6564 26.3927 12.6564 28.3984C12.6564 30.4041 14.2835 32.0312 16.2892 32.0312C18.2956 32.0312 19.922 30.4041 19.922 28.3984C19.922 27.8404 19.7846 27.3154 19.5587 26.8421L22.3436 24.0561V19.6996C23.752 19.2005 24.7656 17.8691 24.7656 16.2902C24.7659 15.813 24.6721 15.3405 24.4897 14.8995C24.3072 14.4586 24.0396 14.0579 23.7023 13.7204C23.3649 13.383 22.9643 13.1153 22.5234 12.9327C22.0825 12.7501 21.61 12.6562 21.1328 12.6564ZM16.2892 29.6092C15.968 29.6092 15.6601 29.4816 15.433 29.2546C15.2059 29.0275 15.0783 28.7195 15.0783 28.3984C15.0783 28.0773 15.2059 27.7693 15.433 27.5422C15.6601 27.3151 15.968 27.1876 16.2892 27.1876C16.9583 27.1876 17.5 27.7289 17.5 28.3984C17.5 29.0679 16.9583 29.6092 16.2892 29.6092ZM21.1328 17.5011C20.8115 17.5011 20.5033 17.3734 20.2761 17.1462C20.0489 16.919 19.9212 16.6108 19.9212 16.2895C19.9212 15.9682 20.0489 15.66 20.2761 15.4328C20.5033 15.2056 20.8115 15.078 21.1328 15.078C21.2919 15.0779 21.4495 15.1093 21.5965 15.1702C21.7435 15.2311 21.8771 15.3204 21.9896 15.433C22.102 15.5456 22.1912 15.6793 22.2519 15.8264C22.3127 15.9735 22.3438 16.1311 22.3436 16.2902C22.3436 16.6114 22.216 16.9193 21.9889 17.1464C21.7619 17.3735 21.4539 17.5011 21.1328 17.5011ZM28.3984 17.5C26.3927 17.5 24.7656 19.1249 24.7656 21.1328C24.7656 22.7127 25.7802 24.0419 27.1876 24.5433V32.0312H29.6092V24.5433C31.0176 24.0445 32.0312 22.7127 32.0312 21.1328C32.0312 19.1249 30.4051 17.5 28.3984 17.5ZM28.3984 22.3436C28.2376 22.3464 28.0779 22.3171 27.9286 22.2575C27.7793 22.1979 27.6433 22.1092 27.5287 21.9965C27.414 21.8838 27.3229 21.7494 27.2608 21.6012C27.1986 21.4529 27.1666 21.2937 27.1666 21.133C27.1666 20.9722 27.1986 20.813 27.2608 20.6648C27.3229 20.5165 27.414 20.3821 27.5287 20.2694C27.6433 20.1567 27.7793 20.068 27.9286 20.0084C28.0779 19.9488 28.2376 19.9195 28.3984 19.9223C28.7158 19.9278 29.0184 20.0578 29.241 20.2842C29.4635 20.5107 29.5882 20.8155 29.5882 21.133C29.5882 21.4505 29.4635 21.7552 29.241 21.9817C29.0184 22.2081 28.7158 22.3381 28.3984 22.3436Z" fill="#191A1B"/>
</svg>
