<svg width="35" height="35" viewBox="0 0 35 35" fill="none" xmlns="http://www.w3.org/2000/svg">
<path d="M32.431 16.3335C33.1121 16.3326 33.765 16.0616 34.2465 15.58C34.7281 15.0985 34.9991 14.4456 35 13.7645V4.9025C34.9991 4.22144 34.7281 3.56854 34.2465 3.08696C33.765 2.60538 33.1121 2.33442 32.431 2.3335H2.569C1.88794 2.33442 1.23505 2.60538 0.753465 3.08696C0.271885 3.56854 0.000925979 4.22144 0 4.9025V13.7657C0 15.1808 1.15267 16.3335 2.569 16.3335H3.5V18.6668H2.569C1.88794 18.6678 1.23505 18.9387 0.753465 19.4203C0.271885 19.9019 0.000925979 20.5548 0 21.2358V30.099C0 31.5142 1.15267 32.6668 2.569 32.6668H32.4322C33.113 32.6656 33.7656 32.3945 34.2469 31.913C34.7283 31.4314 34.9991 30.7787 35 30.0978V21.2347C34.9988 20.5538 34.7277 19.9012 34.2461 19.4199C33.7646 18.9386 33.1119 18.6678 32.431 18.6668H31.5V16.3335H32.431ZM2.33333 13.7645V4.9025C2.33333 4.77183 2.43833 4.66683 2.569 4.66683H32.4322C32.5617 4.66683 32.6667 4.77183 32.6667 4.9025V13.7657C32.6667 13.8952 32.5617 14.0002 32.431 14.0002H2.569C2.53801 14.0003 2.50729 13.9943 2.47863 13.9825C2.44997 13.9708 2.42393 13.9534 2.40201 13.9315C2.3801 13.9096 2.36275 13.8835 2.35096 13.8549C2.33917 13.8262 2.33318 13.7955 2.33333 13.7645ZM32.6667 21.2358V30.099C32.6667 30.2285 32.5617 30.3335 32.431 30.3335H2.569C2.53801 30.3337 2.50729 30.3277 2.47863 30.3159C2.44997 30.3041 2.42393 30.2867 2.40201 30.2648C2.3801 30.2429 2.36275 30.2169 2.35096 30.1882C2.33917 30.1595 2.33318 30.1288 2.33333 30.0978V21.2347C2.33333 21.1052 2.43833 21.0002 2.569 21.0002H32.431C32.5617 21.0002 32.6667 21.1052 32.6667 21.2358ZM29.1667 18.6668H5.83333V16.3335H29.1667V18.6668Z" fill="#191A1B"/>
<path d="M15.1667 26.8333C15.811 26.8333 16.3333 26.311 16.3333 25.6667C16.3333 25.0223 15.811 24.5 15.1667 24.5C14.5223 24.5 14 25.0223 14 25.6667C14 26.311 14.5223 26.8333 15.1667 26.8333Z" fill="#191A1B"/>
<path d="M10.5 26.8333C11.1444 26.8333 11.6667 26.311 11.6667 25.6667C11.6667 25.0223 11.1444 24.5 10.5 24.5C9.85571 24.5 9.33337 25.0223 9.33337 25.6667C9.33337 26.311 9.85571 26.8333 10.5 26.8333Z" fill="#191A1B"/>
<path d="M5.83329 26.8333C6.47762 26.8333 6.99996 26.311 6.99996 25.6667C6.99996 25.0223 6.47762 24.5 5.83329 24.5C5.18896 24.5 4.66663 25.0223 4.66663 25.6667C4.66663 26.311 5.18896 26.8333 5.83329 26.8333Z" fill="#191A1B"/>
<path d="M29.1667 24.5H21C20.6906 24.5 20.3939 24.6229 20.1751 24.8417C19.9563 25.0605 19.8334 25.3572 19.8334 25.6667C19.8334 25.9761 19.9563 26.2728 20.1751 26.4916C20.3939 26.7104 20.6906 26.8333 21 26.8333H29.1667C29.4761 26.8333 29.7729 26.7104 29.9917 26.4916C30.2105 26.2728 30.3334 25.9761 30.3334 25.6667C30.3334 25.3572 30.2105 25.0605 29.9917 24.8417C29.7729 24.6229 29.4761 24.5 29.1667 24.5Z" fill="#191A1B"/>
<path d="M15.1667 10.5003C15.811 10.5003 16.3333 9.97799 16.3333 9.33366C16.3333 8.68933 15.811 8.16699 15.1667 8.16699C14.5223 8.16699 14 8.68933 14 9.33366C14 9.97799 14.5223 10.5003 15.1667 10.5003Z" fill="#191A1B"/>
<path d="M10.5 10.5003C11.1444 10.5003 11.6667 9.97799 11.6667 9.33366C11.6667 8.68933 11.1444 8.16699 10.5 8.16699C9.85571 8.16699 9.33337 8.68933 9.33337 9.33366C9.33337 9.97799 9.85571 10.5003 10.5 10.5003Z" fill="#191A1B"/>
<path d="M5.83329 10.5003C6.47762 10.5003 6.99996 9.97799 6.99996 9.33366C6.99996 8.68933 6.47762 8.16699 5.83329 8.16699C5.18896 8.16699 4.66663 8.68933 4.66663 9.33366C4.66663 9.97799 5.18896 10.5003 5.83329 10.5003Z" fill="#191A1B"/>
<path d="M21 10.5003H29.1667C29.4761 10.5003 29.7729 10.3774 29.9917 10.1586C30.2105 9.93982 30.3334 9.64308 30.3334 9.33366C30.3334 9.02424 30.2105 8.72749 29.9917 8.5087C29.7729 8.28991 29.4761 8.16699 29.1667 8.16699H21C20.6906 8.16699 20.3939 8.28991 20.1751 8.5087C19.9563 8.72749 19.8334 9.02424 19.8334 9.33366C19.8334 9.64308 19.9563 9.93982 20.1751 10.1586C20.3939 10.3774 20.6906 10.5003 21 10.5003Z" fill="#191A1B"/>
</svg>
