<svg width="35" height="35" viewBox="0 0 35 35" fill="none" xmlns="http://www.w3.org/2000/svg">
<path d="M17.5 9.75C15.9138 9.75 2 9.6415 2 5.875C2 2.1085 15.9138 2 17.5 2C19.0862 2 33 2.1085 33 5.875C33 9.6415 19.0862 9.75 17.5 9.75ZM4.05117 5.875C4.99667 6.60867 9.53429 7.8125 17.5 7.8125C25.4657 7.8125 30.0033 6.60867 30.9488 5.875C30.0033 5.14133 25.4657 3.9375 17.5 3.9375C9.53429 3.9375 4.99667 5.14133 4.05117 5.875ZM17.5 17.5C15.9138 17.5 2 17.3915 2 13.625C2.00015 13.3778 2.09479 13.14 2.26455 12.9603C2.4343 12.7806 2.66633 12.6726 2.91311 12.6584C3.1599 12.6442 3.40278 12.7249 3.59202 12.884C3.78126 13.043 3.90255 13.2684 3.93104 13.5139C4.52779 14.2282 9.11321 15.5625 17.5 15.5625C25.8868 15.5625 30.4722 14.2282 31.069 13.5139C31.0975 13.2684 31.2187 13.043 31.408 12.884C31.5972 12.7249 31.8401 12.6442 32.0869 12.6584C32.3337 12.6726 32.5657 12.7806 32.7355 12.9603C32.9052 13.14 32.9998 13.3778 33 13.625C33 17.3915 19.0862 17.5 17.5 17.5ZM31.0625 13.6237C31.0625 13.625 31.0625 13.625 31.0625 13.6237V13.6237ZM3.9375 13.6237C3.9375 13.625 3.9375 13.625 3.9375 13.6237V13.6237ZM17.5 25.25C15.9138 25.25 2 25.1415 2 21.375C2.00015 21.1278 2.09479 20.89 2.26455 20.7103C2.4343 20.5306 2.66633 20.4226 2.91311 20.4084C3.1599 20.3942 3.40278 20.4749 3.59202 20.634C3.78126 20.793 3.90255 21.0184 3.93104 21.2639C4.52779 21.9782 9.11321 23.3125 17.5 23.3125C25.8868 23.3125 30.4722 21.9782 31.069 21.2639C31.0975 21.0184 31.2187 20.793 31.408 20.634C31.5972 20.4749 31.8401 20.3942 32.0869 20.4084C32.3337 20.4226 32.5657 20.5306 32.7355 20.7103C32.9052 20.89 32.9998 21.1278 33 21.375C33 25.1415 19.0862 25.25 17.5 25.25ZM31.0625 21.3737C31.0625 21.375 31.0625 21.375 31.0625 21.3737V21.3737ZM3.9375 21.3737C3.9375 21.375 3.9375 21.375 3.9375 21.3737V21.3737Z" fill="#191A1B"/>
<path d="M31.0974 6.02483H31.1103M17.5 9.75C15.9138 9.75 2 9.6415 2 5.875C2 2.1085 15.9138 2 17.5 2C19.0862 2 33 2.1085 33 5.875C33 9.6415 19.0862 9.75 17.5 9.75ZM4.05117 5.875C4.99667 6.60867 9.53429 7.8125 17.5 7.8125C25.4657 7.8125 30.0033 6.60867 30.9488 5.875C30.0033 5.14133 25.4657 3.9375 17.5 3.9375C9.53429 3.9375 4.99667 5.14133 4.05117 5.875ZM17.5 17.5C15.9138 17.5 2 17.3915 2 13.625C2.00015 13.3778 2.09479 13.14 2.26455 12.9603C2.4343 12.7806 2.66633 12.6726 2.91311 12.6584C3.1599 12.6442 3.40278 12.7249 3.59202 12.884C3.78126 13.043 3.90255 13.2684 3.93104 13.5139C4.52779 14.2282 9.11321 15.5625 17.5 15.5625C25.8868 15.5625 30.4722 14.2282 31.069 13.5139C31.0975 13.2684 31.2187 13.043 31.408 12.884C31.5972 12.7249 31.8401 12.6442 32.0869 12.6584C32.3337 12.6726 32.5657 12.7806 32.7355 12.9603C32.9052 13.14 32.9998 13.3778 33 13.625C33 17.3915 19.0862 17.5 17.5 17.5ZM31.0625 13.6237C31.0625 13.625 31.0625 13.625 31.0625 13.6237ZM3.9375 13.6237C3.9375 13.625 3.9375 13.625 3.9375 13.6237ZM17.5 25.25C15.9138 25.25 2 25.1415 2 21.375C2.00015 21.1278 2.09479 20.89 2.26455 20.7103C2.4343 20.5306 2.66633 20.4226 2.91311 20.4084C3.1599 20.3942 3.40278 20.4749 3.59202 20.634C3.78126 20.793 3.90255 21.0184 3.93104 21.2639C4.52779 21.9782 9.11321 23.3125 17.5 23.3125C25.8868 23.3125 30.4722 21.9782 31.069 21.2639C31.0975 21.0184 31.2187 20.793 31.408 20.634C31.5972 20.4749 31.8401 20.3942 32.0869 20.4084C32.3337 20.4226 32.5657 20.5306 32.7355 20.7103C32.9052 20.89 32.9998 21.1278 33 21.375C33 25.1415 19.0862 25.25 17.5 25.25ZM31.0625 21.3737C31.0625 21.375 31.0625 21.375 31.0625 21.3737ZM3.9375 21.3737C3.9375 21.375 3.9375 21.375 3.9375 21.3737Z" stroke="#191A1B" stroke-width="0.5"/>
<path d="M17.5 33C15.9138 33 2 32.8915 2 29.125V5.875C2 5.61807 2.10206 5.37167 2.28374 5.18999C2.46542 5.00831 2.71182 4.90625 2.96875 4.90625C3.22568 4.90625 3.47208 5.00831 3.65376 5.18999C3.83544 5.37167 3.9375 5.61807 3.9375 5.875V29.0204C4.55879 29.7385 9.14292 31.0625 17.5 31.0625C25.8571 31.0625 30.4412 29.7385 31.0625 29.0204V5.875C31.0625 5.61807 31.1646 5.37167 31.3462 5.18999C31.5279 5.00831 31.7743 4.90625 32.0312 4.90625C32.2882 4.90625 32.5346 5.00831 32.7163 5.18999C32.8979 5.37167 33 5.61807 33 5.875V29.125C33 32.8915 19.0862 33 17.5 33Z" fill="#191A1B" stroke="#191A1B" stroke-width="0.5"/>
<path d="M8.45829 21.3748C9.17166 21.3748 9.74996 20.7965 9.74996 20.0832C9.74996 19.3698 9.17166 18.7915 8.45829 18.7915C7.74492 18.7915 7.16663 19.3698 7.16663 20.0832C7.16663 20.7965 7.74492 21.3748 8.45829 21.3748Z" fill="#191A1B" stroke="#191A1B" stroke-width="0.5"/>
<path d="M8.45829 13.6248C9.17166 13.6248 9.74996 13.0465 9.74996 12.3332C9.74996 11.6198 9.17166 11.0415 8.45829 11.0415C7.74492 11.0415 7.16663 11.6198 7.16663 12.3332C7.16663 13.0465 7.74492 13.6248 8.45829 13.6248Z" fill="#191A1B" stroke="#191A1B" stroke-width="0.5"/>
<path d="M8.45829 29.1248C9.17166 29.1248 9.74996 28.5465 9.74996 27.8332C9.74996 27.1198 9.17166 26.5415 8.45829 26.5415C7.74492 26.5415 7.16663 27.1198 7.16663 27.8332C7.16663 28.5465 7.74492 29.1248 8.45829 29.1248Z" fill="#191A1B" stroke="#191A1B" stroke-width="0.5"/>
</svg>
