<svg width="100" height="100" viewBox="0 0 100 100" fill="none" xmlns="http://www.w3.org/2000/svg">
<path fill-rule="evenodd" clip-rule="evenodd" d="M39.0613 76.8525L48.9367 86.728C50.1242 87.9154 50.1242 89.8522 48.9367 91.0397L44.8624 95.114C43.675 96.3014 41.7382 96.3014 40.5507 95.114L28.3577 82.921L37.7362 77.5062C38.1764 77.2853 38.6181 77.0674 39.0613 76.8525ZM98.3168 39.4313C99.5959 39.8472 100.296 41.2214 99.8798 42.5005C99.4637 43.7796 98.0897 44.4795 96.8106 44.0636L87.9411 41.1818C86.662 40.7659 85.9622 39.3917 86.378 38.1126C86.7939 36.8335 88.1681 36.1337 89.4472 36.5498L98.3168 39.4313ZM88.272 26.3846C87.1053 27.0582 85.6136 26.6584 84.9402 25.4917C84.2666 24.3252 84.6664 22.8333 85.8329 22.1599L93.8443 17.5344C95.011 16.8608 96.5027 17.2606 97.1761 18.4271C97.8497 19.5938 97.4499 21.0855 96.2834 21.7591L88.272 26.3846ZM74.7917 5.92554C75.071 4.60985 76.3641 3.76979 77.68 4.04907C78.9957 4.32834 79.8358 5.62147 79.5565 6.93736L77.6172 16.0596C77.3379 17.3752 76.0448 18.2153 74.7291 17.936C73.4134 17.6568 72.5734 16.3636 72.8526 15.0479L74.7917 5.92554ZM49.2969 8.72257C46.967 10.0677 46.161 13.0751 47.5064 15.4051L74.2435 61.7153C75.5889 64.0454 78.5961 64.8509 80.9262 63.5058C83.2562 62.1606 84.0619 59.1532 82.7167 56.8233L73.6208 41.0688L74.8096 40.3824C78.9534 37.9898 80.3864 32.6421 77.994 28.4981C75.6015 24.3543 70.2536 22.9213 66.1098 25.3137L64.9209 26.0001L55.9794 10.5129C54.6342 8.18333 51.627 7.37741 49.2969 8.72257ZM3.88548 71.2849L6.01623 74.9756C9.63889 81.2502 17.7365 83.42 24.0112 79.7973L33.3164 74.425L15.8815 44.227L6.57641 49.5993C0.301847 53.222 -1.86793 61.3195 1.75473 67.5941L3.88548 71.2849ZM20.0054 41.6556C30.1 34.7225 37.8712 27.0105 43.8996 18.9145L69.2464 62.8167C59.221 63.9893 48.6564 66.8636 37.6049 72.1392L20.0054 41.6556Z" fill="#EAEBEE"/>
</svg>
