<svg width="16" height="16" viewBox="0 0 16 16" fill="none" xmlns="http://www.w3.org/2000/svg">
<g clip-path="url(#clip0_1832_281)">
<path d="M15.485 11.52C15.4413 11.4853 12.2662 9.19669 11.3947 9.36096C10.9787 9.43456 10.7408 9.71831 10.2634 10.2863C10.1866 10.3781 10.0021 10.5978 9.85863 10.7541C9.55696 10.6557 9.26269 10.5359 8.97806 10.3957C7.50894 9.68044 6.32194 8.49345 5.60672 7.02433C5.46637 6.73974 5.3466 6.44547 5.2483 6.14376C5.40511 5.99976 5.62485 5.81522 5.71872 5.73628C6.28408 5.26159 6.56836 5.02372 6.64196 4.60663C6.7929 3.7426 4.50587 0.545667 4.48187 0.516866C4.37811 0.368631 4.24269 0.245315 4.08542 0.15584C3.92814 0.0663644 3.75295 0.0129673 3.5725 -0.000488281C2.64553 -0.000488281 -0.000976562 3.43272 -0.000976562 4.01088C-0.000976562 4.04448 0.0475588 7.46008 4.25946 11.7445C8.53964 15.9516 11.9547 16.0002 11.9883 16.0002C12.567 16.0002 15.9997 13.3537 15.9997 12.4267C15.9864 12.2469 15.9333 12.0723 15.8443 11.9155C15.7553 11.7587 15.6326 11.6236 15.485 11.52Z" fill="#2BDF27"/>
</g>
<defs>
<clipPath id="clip0_1832_281">
<rect width="16" height="16" fill="white"/>
</clipPath>
</defs>
</svg>
