<svg width="35" height="35" viewBox="0 0 35 35" fill="none" xmlns="http://www.w3.org/2000/svg">
<g clip-path="url(#clip0_1189_192)">
<path d="M32.0545 17.5001C32.0545 12.2552 25.5421 8.01562 17.5 8.01562C9.45783 8.01562 2.94543 12.2552 2.94543 17.5001C2.94543 18.6802 3.29509 19.8166 3.907 20.8656C4.12553 21.2589 4.12553 21.7397 3.907 22.1331C3.29509 23.1821 2.94543 24.3185 2.94543 25.4986C2.94543 30.7434 9.45783 34.983 17.5 34.983C25.5421 34.983 32.0545 30.7434 32.0545 25.4986C32.0545 24.3185 31.7048 23.1821 31.0929 22.1331C30.8744 21.7397 30.8744 21.2589 31.0929 20.8656C31.7048 19.8166 32.0545 18.6802 32.0545 17.5001ZM17.5 32.0547C10.6379 32.0547 5.83012 28.6018 5.83012 25.4986C5.83012 24.5807 6.87909 24.0562 7.70953 24.4933C10.2883 26.023 13.7411 26.9409 17.5 26.9409C21.2588 26.9409 24.7117 26.023 27.2904 24.4933C28.0771 24.0125 29.1698 24.537 29.1698 25.4986C29.1698 28.6018 24.362 32.0547 17.5 32.0547ZM17.5 24.0562C10.6379 24.0562 5.83012 20.6033 5.83012 17.5001C5.83012 14.3969 10.6379 10.944 17.5 10.944C24.362 10.944 29.1698 14.3969 29.1698 17.5001C29.1698 20.6033 24.362 24.0562 17.5 24.0562Z" fill="#191A1B"/>
<path d="M2.20246 11.6871C3.4094 11.6871 4.38782 10.7087 4.38782 9.50177C4.38782 8.29483 3.4094 7.31641 2.20246 7.31641C0.995511 7.31641 0.0170898 8.29483 0.0170898 9.50177C0.0170898 10.7087 0.995511 11.6871 2.20246 11.6871Z" fill="#2BDF27"/>
<path d="M32.7975 11.6871C34.0045 11.6871 34.9829 10.7087 34.9829 9.50177C34.9829 8.29483 34.0045 7.31641 32.7975 7.31641C31.5906 7.31641 30.6122 8.29483 30.6122 9.50177C30.6122 10.7087 31.5906 11.6871 32.7975 11.6871Z" fill="#2BDF27"/>
<path d="M17.5001 4.38782C18.707 4.38782 19.6854 3.4094 19.6854 2.20246C19.6854 0.995511 18.707 0.0170898 17.5001 0.0170898C16.2931 0.0170898 15.3147 0.995511 15.3147 2.20246C15.3147 3.4094 16.2931 4.38782 17.5001 4.38782Z" fill="#2BDF27"/>
<path d="M19.6854 16.7571C19.6854 17.9809 18.7239 18.9425 17.5001 18.9425C16.2763 18.9425 15.3147 17.9809 15.3147 16.7571C15.3147 15.5333 16.2763 14.5718 17.5001 14.5718C18.7239 14.5718 19.6854 15.577 19.6854 16.7571Z" fill="#2BDF27"/>
</g>
<defs>
<clipPath id="clip0_1189_192">
<rect width="35" height="35" fill="white"/>
</clipPath>
</defs>
</svg>
