<svg width="35" height="35" viewBox="0 0 35 35" fill="none" xmlns="http://www.w3.org/2000/svg">
<g clip-path="url(#clip0_1189_202)">
<path d="M0.0170898 1.32831V14.7465C0.0170898 15.4895 0.585285 16.0577 1.32831 16.0577H14.7465C15.4895 16.0577 16.0577 15.4895 16.0577 14.7465V1.32831C16.0577 0.585285 15.4895 0.0170898 14.7465 0.0170898H1.32831C0.585285 0.0170898 0.0170898 0.585285 0.0170898 1.32831ZM11.8181 13.1293H4.2567C3.51368 13.1293 2.94548 12.5611 2.94548 11.8181V4.2567C2.94548 3.51368 3.51368 2.94548 4.2567 2.94548H11.8181C12.5611 2.94548 13.1293 3.51368 13.1293 4.2567V11.8181C13.1293 12.5611 12.5611 13.1293 11.8181 13.1293ZM32.0546 18.9424H21.8707C20.2536 18.9424 18.9424 20.2536 18.9424 21.8707V32.0546C18.9424 33.6717 20.2536 34.9829 21.8707 34.9829H32.0546C33.6717 34.9829 34.9829 33.6717 34.9829 32.0546V21.8707C34.9829 20.2536 33.6717 18.9424 32.0546 18.9424ZM30.7433 32.0546H23.182C22.4389 32.0546 21.8707 31.4864 21.8707 30.7433V23.182C21.8707 22.4389 22.4389 21.8707 23.182 21.8707H30.7433C31.4864 21.8707 32.0546 22.4389 32.0546 23.182V30.7433C32.0546 31.4864 31.4864 32.0546 30.7433 32.0546ZM26.9845 0.0170898C22.5701 0.0170898 18.9861 3.60109 18.9861 8.01553C18.9861 12.43 22.5701 16.014 26.9845 16.014C31.3989 16.014 34.9829 12.43 34.9829 8.01553C34.9829 3.60109 31.3989 0.0170898 26.9845 0.0170898ZM26.9845 13.1293C24.1435 13.1293 21.8707 10.8565 21.8707 8.01553C21.8707 5.17455 24.1435 2.90177 26.9845 2.90177C29.7818 2.90177 32.0983 5.17455 32.0983 8.01553C32.0983 10.8565 29.7818 13.1293 26.9845 13.1293ZM7.62216 21.084L1.06607 33.0598C0.585285 33.934 1.24089 34.9829 2.20246 34.9829H15.2709C16.2762 34.9829 16.8881 33.934 16.4073 33.0598L9.89494 21.084C9.41416 20.1662 8.10294 20.1662 7.62216 21.084ZM9.89494 27.1593L11.5121 30.1314C11.9929 31.0056 11.3373 32.0546 10.3757 32.0546H7.14138C6.13611 32.0546 5.52421 31.0056 6.00499 30.1314L7.62216 27.1593C8.10294 26.2415 9.41416 26.2415 9.89494 27.1593Z" fill="#191A1B"/>
<path fill-rule="evenodd" clip-rule="evenodd" d="M26.9845 0.0170898C22.5701 0.0170898 18.9861 3.60109 18.9861 8.01553C18.9861 12.43 22.5701 16.014 26.9845 16.014C31.399 16.014 34.983 12.43 34.983 8.01553C34.983 3.60109 31.399 0.0170898 26.9845 0.0170898ZM26.9844 13.1241C29.8055 13.1241 32.0924 10.8372 32.0924 8.01613C32.0924 5.19506 29.8055 2.90812 26.9844 2.90812C24.1633 2.90812 21.8764 5.19506 21.8764 8.01613C21.8764 10.8372 24.1633 13.1241 26.9844 13.1241Z" fill="#2BDF27"/>
</g>
<defs>
<clipPath id="clip0_1189_202">
<rect width="35" height="35" fill="white"/>
</clipPath>
</defs>
</svg>
