<svg width="28" height="28" viewBox="0 0 28 28" fill="none" xmlns="http://www.w3.org/2000/svg">
<g clip-path="url(#clip0_1193_461)">
<path d="M27.1821 0.817916C25.224 -1.14017 20.154 0.643087 14.6294 4.80402C14.2448 5.08375 13.7552 5.08375 13.3706 4.80402C7.84601 0.643087 2.741 -1.14017 0.817874 0.817916C-1.14021 2.776 0.643045 7.84605 4.80398 13.4056C5.08371 13.7902 5.08371 14.2798 4.80398 14.6644C0.643045 20.189 -1.14021 25.294 0.817874 27.2521C2.77596 29.2102 7.84601 27.4269 13.4056 23.266C13.7902 22.9863 14.2797 22.9863 14.6644 23.266C20.189 27.4269 25.294 29.2102 27.2171 27.2521C29.1752 25.294 27.3919 20.224 23.231 14.6644C22.9513 14.2798 22.9513 13.7902 23.231 13.4056C27.3919 7.84605 29.1402 2.74104 27.1821 0.817916ZM24.9093 2.35641C25.3289 2.35641 25.5038 2.46131 25.5387 2.46131C25.6436 2.56621 25.9583 3.89491 24.4898 6.93694C23.8604 8.26564 23.0212 9.66428 21.9722 11.0979C21.5876 11.6573 20.7834 11.6923 20.3638 11.2028C19.8043 10.6084 19.2099 9.97897 18.6155 9.38455C18.0211 8.79013 17.3917 8.19571 16.7973 7.63626C16.3077 7.1817 16.3427 6.41245 16.9022 6.02783C20.2939 3.58022 23.231 2.35641 24.9093 2.35641ZM19.14 13.3007C19.4896 13.6853 19.4896 14.2798 19.14 14.6994C18.4756 15.4686 17.7413 16.2379 16.9721 17.0071C16.2028 17.7764 15.4336 18.4757 14.6993 19.14C14.3147 19.4897 13.7203 19.4897 13.3007 19.14C12.5314 18.4757 11.7622 17.7414 10.9929 16.9721C10.2237 16.2029 9.52437 15.4336 8.86002 14.6994C8.51036 14.3147 8.51036 13.7203 8.86002 13.3007C9.52437 12.5315 10.2587 11.7622 11.0279 10.993C11.7972 10.2237 12.5664 9.52441 13.3007 8.86006C13.6853 8.5104 14.2797 8.5104 14.6993 8.86006C15.4686 9.52441 16.2378 10.2587 17.0071 11.0279C17.7413 11.7972 18.4756 12.5315 19.14 13.3007ZM2.35637 3.0907C2.35637 2.67111 2.46127 2.49628 2.46127 2.46131C2.56617 2.35641 3.89487 2.04172 6.9369 3.51029C8.2656 4.13967 9.66423 4.97885 11.0978 6.02783C11.6573 6.41245 11.6923 7.21667 11.2027 7.63626C10.6083 8.19571 9.97893 8.79013 9.38451 9.38455C8.79009 9.97897 8.19567 10.6084 7.63621 11.2028C7.18166 11.6923 6.41241 11.6573 6.02779 11.0979C3.58018 7.70619 2.35637 4.76906 2.35637 3.0907ZM3.09065 25.6437C2.67106 25.6437 2.49623 25.5388 2.46127 25.5388C2.35637 25.4339 2.04168 24.1052 3.51024 21.0631C4.13963 19.7344 4.97881 18.3358 6.02779 16.9022C6.41241 16.3428 7.21662 16.3078 7.63621 16.7973C8.19567 17.3917 8.79009 18.0211 9.38451 18.6155C9.97893 19.21 10.6083 19.8044 11.2027 20.3638C11.6923 20.8184 11.6573 21.5876 11.0978 21.9723C7.70615 24.4199 4.76901 25.6437 3.09065 25.6437ZM25.6436 24.9094C25.6436 25.329 25.5387 25.5038 25.5387 25.5388C25.4338 25.6437 24.1051 25.9584 21.0631 24.4898C19.7344 23.8604 18.3358 23.0212 16.9022 21.9723C16.3427 21.5876 16.3077 20.7834 16.7973 20.3638C17.3917 19.8044 18.0211 19.2449 18.6155 18.6155C19.2099 18.0211 19.8043 17.3917 20.3638 16.7973C20.8183 16.3078 21.5876 16.3428 21.9722 16.9022C24.4198 20.2939 25.6436 23.231 25.6436 24.9094Z" fill="#191A1B"/>
<path d="M14.0174 11.5889C12.6723 11.5889 11.5717 12.6895 11.5717 14.0346C11.5717 15.3798 12.6723 16.4804 14.0174 16.4804C15.3626 16.4804 16.4632 15.3798 16.4632 14.0346C16.4632 12.6895 15.3626 11.5889 14.0174 11.5889ZM14.0174 14.8417C13.5772 14.8417 13.2103 14.4748 13.2103 14.0346C13.2103 13.5944 13.5772 13.2275 14.0174 13.2275C14.4577 13.2275 14.8245 13.5944 14.8245 14.0346C14.8245 14.4748 14.4577 14.8417 14.0174 14.8417Z" fill="#2BDF27"/>
</g>
<defs>
<clipPath id="clip0_1193_461">
<rect width="28" height="28" fill="white"/>
</clipPath>
</defs>
</svg>
