<svg width="33" height="35" viewBox="0 0 33 35" fill="none" xmlns="http://www.w3.org/2000/svg">
<path d="M31.1832 8.11802H23.0207C22.5515 8.11802 22.0824 7.88346 21.801 7.46126L17.6728 0.706079C17.1099 -0.18523 15.8433 -0.18523 15.2803 0.706079L11.1522 7.46126C10.9176 7.88346 10.4485 8.11802 9.93249 8.11802H1.81689C0.737937 8.11802 0.0342714 9.3377 0.597203 10.2759L4.58464 16.7966C4.8661 17.2657 4.8661 17.8286 4.58464 18.2508L0.597203 24.7714C0.0342714 25.7096 0.691025 26.9293 1.81689 26.9293H9.9794C10.4485 26.9293 10.9176 27.1639 11.1991 27.5861L15.3273 34.3413C15.8902 35.2326 17.1568 35.2326 17.7197 34.3413L21.8479 27.5861C22.0824 27.1639 22.5515 26.9293 23.0676 26.9293H31.2301C32.309 26.9293 33.0127 25.7096 32.4498 24.7714L28.4623 18.2508C28.1809 17.7817 28.1809 17.2187 28.4623 16.7966L32.4498 10.2759C32.9658 9.3377 32.309 8.11802 31.1832 8.11802ZM25.6477 23.7394H21.2849C20.8158 23.7394 20.3467 23.9739 20.0653 24.3961L17.7197 28.2897C17.1568 29.1811 15.8902 29.1811 15.3273 28.2897L12.9348 24.3961C12.7002 23.9739 12.2311 23.7394 11.7151 23.7394H7.35239C6.27343 23.7394 5.56977 22.5197 6.1327 21.5815L8.19678 18.2039C8.47825 17.7348 8.47825 17.1718 8.19678 16.7496L6.17961 13.372C5.61668 12.4338 6.27343 11.2141 7.3993 11.2141H11.762C12.2311 11.2141 12.7002 10.9796 12.9817 10.5574L15.3742 6.66378C15.9371 5.77247 17.2037 5.77247 17.7666 6.66378L20.1591 10.5574C20.3936 10.9796 20.8628 11.2141 21.3788 11.2141H25.7415C26.8204 11.2141 27.5241 12.4338 26.9612 13.372L24.8971 16.7496C24.6156 17.2188 24.6156 17.7817 24.8971 18.2039L26.9612 21.5815C27.3834 22.5666 26.7266 23.7394 25.6477 23.7394Z" fill="#191A1B"/>
<path d="M13.9668 20.6434H11.4805C11.0583 20.6434 10.7769 20.1743 11.0114 19.799L12.2311 17.8288C12.3249 17.6411 12.3249 17.4066 12.2311 17.2189L11.0114 15.2487C10.7769 14.8734 11.0583 14.4043 11.4805 14.4043H13.9668C14.1545 14.4043 14.3421 14.3104 14.4359 14.1228L16.0309 11.5427C16.2654 11.1674 16.7815 11.1674 17.016 11.5427L18.611 14.1228C18.7048 14.3104 18.8925 14.4043 19.0801 14.4043H21.5664C21.9886 14.4043 22.2701 14.8734 22.0355 15.2487L20.8158 17.2189C20.722 17.4066 20.722 17.6411 20.8158 17.8288L22.0355 19.799C22.2701 20.1743 21.9886 20.6434 21.5664 20.6434H19.0801C18.8925 20.6434 18.7048 20.7373 18.611 20.9249L16.9691 23.505C16.7346 23.8803 16.2185 23.8803 15.984 23.505L14.389 20.9249C14.3421 20.7373 14.1545 20.6434 13.9668 20.6434Z" fill="#2BDF27"/>
</svg>
