<svg width="28" height="28" viewBox="0 0 28 28" fill="none" xmlns="http://www.w3.org/2000/svg">
<g clip-path="url(#clip0_1193_485)">
<path d="M0 18.1434V26.9048C0 27.5254 0.474576 28 1.09518 28H9.85658C10.4772 28 10.9518 27.5254 10.9518 26.9048V20.5893C10.9518 19.9687 11.4263 19.4941 12.0469 19.4941H15.9531C16.5737 19.4941 17.0482 19.9687 17.0482 20.5893V26.9048C17.0482 27.5254 17.5228 28 18.1434 28H26.9048C27.5254 28 28 27.5254 28 26.9048V18.1434C28 17.5228 27.5254 17.0482 26.9048 17.0482H20.5893C19.9687 17.0482 19.4941 16.5737 19.4941 15.9531V12.0469C19.4941 11.4263 19.9687 10.9518 20.5893 10.9518H26.9048C27.5254 10.9518 28 10.4772 28 9.85658V1.09518C28 0.474576 27.5254 0 26.9048 0H18.1434C17.5228 0 17.0482 0.474576 17.0482 1.09518V7.41069C17.0482 8.03129 16.5737 8.50587 15.9531 8.50587H9.63755C9.01695 8.50587 8.54237 8.98044 8.54237 9.60104V15.9531C8.54237 16.5737 8.0678 17.0482 7.4472 17.0482H1.09518C0.511082 17.0482 0 17.5228 0 18.1434ZM19.4941 20.5893C19.4941 19.9687 19.9687 19.4941 20.5893 19.4941H24.4954C25.116 19.4941 25.5906 19.9687 25.5906 20.5893V24.4954C25.5906 25.116 25.116 25.5906 24.4954 25.5906H20.5893C19.9687 25.5906 19.4941 25.116 19.4941 24.4954V20.5893ZM19.4941 3.54107C19.4941 2.92047 19.9687 2.44589 20.5893 2.44589H24.4954C25.116 2.44589 25.5906 2.92047 25.5906 3.54107V7.4472C25.5906 8.0678 25.116 8.54237 24.4954 8.54237H20.5893C19.9687 8.54237 19.4941 8.0678 19.4941 7.4472V3.54107ZM12.0469 10.9518H15.9531C16.5737 10.9518 17.0482 11.4263 17.0482 12.0469V15.9531C17.0482 16.5737 16.5737 17.0482 15.9531 17.0482H12.0469C11.4263 17.0482 10.9518 16.5737 10.9518 15.9531V12.0469C10.9518 11.4628 11.4628 10.9518 12.0469 10.9518ZM3.54107 19.4941H7.4472C8.0678 19.4941 8.54237 19.9687 8.54237 20.5893V24.4954C8.54237 25.116 8.0678 25.5906 7.4472 25.5906H3.54107C2.92047 25.5906 2.44589 25.116 2.44589 24.4954V20.5893C2.44589 19.9687 2.92047 19.4941 3.54107 19.4941Z" fill="#191A1B"/>
<path d="M0.00741553 1.10259V9.53545C0.00741553 10.5211 1.1756 10.9957 1.86922 10.3021L10.3021 1.86922C10.9957 1.1756 10.5211 0.00741553 9.53545 0.00741553H1.10259C0.481992 0.00741553 0.00741553 0.481992 0.00741553 1.10259ZM3.54849 2.45331H5.59281C5.84835 2.45331 5.99438 2.78186 5.81185 2.96439L2.96439 5.81185C2.78186 5.99438 2.45331 5.88486 2.45331 5.59281V3.54849C2.45331 2.92789 2.92789 2.45331 3.54849 2.45331Z" fill="#191A1B"/>
<path d="M0.00740433 1.1025V9.53536C0.00740433 10.521 1.17559 10.9956 1.8692 10.302L10.3021 1.86912C10.9957 1.17551 10.5211 0.00732422 9.53544 0.00732422H1.10258C0.481981 0.00732422 0.00740433 0.481901 0.00740433 1.1025ZM3.54847 2.45322H5.5928C5.84834 2.45322 5.99437 2.78177 5.81184 2.9643L2.96438 5.81176C2.78185 5.99429 2.4533 5.88477 2.4533 5.59272V3.54839C2.4533 2.92779 2.92787 2.45322 3.54847 2.45322Z" fill="#2BDF27"/>
</g>
<defs>
<clipPath id="clip0_1193_485">
<rect width="28" height="28" fill="white"/>
</clipPath>
</defs>
</svg>
