<svg width="17" height="17" viewBox="0 0 17 17" fill="none" xmlns="http://www.w3.org/2000/svg">
<path d="M16.4572 15.4843L12.4111 11.2762C13.4518 10.0415 14.0222 8.47852 14.0214 6.86374C14.0214 3.07913 10.9423 0 7.15769 0C3.37308 0 0.293945 3.07913 0.293945 6.86374C0.293945 10.6484 3.37308 13.7275 7.15769 13.7275C8.57848 13.7275 9.93243 13.299 11.09 12.4854L15.1668 16.7255C15.3372 16.9024 15.5664 17 15.812 17C16.0444 17 16.265 16.9114 16.4324 16.7502C16.6033 16.5855 16.7018 16.3597 16.7065 16.1224C16.7111 15.8851 16.6215 15.6556 16.4572 15.4843ZM7.15769 1.79054C9.95511 1.79054 12.2309 4.06632 12.2309 6.86374C12.2309 9.66117 9.95511 11.9369 7.15769 11.9369C4.36027 11.9369 2.08449 9.66117 2.08449 6.86374C2.08449 4.06632 4.36027 1.79054 7.15769 1.79054Z" fill="#51A8C3"/>
</svg>
