<svg width="100" height="100" viewBox="0 0 100 100" fill="none" xmlns="http://www.w3.org/2000/svg">
<path d="M26.0646 29.1863C27.7888 29.1863 29.1865 27.7885 29.1865 26.0643C29.1865 24.3401 27.7888 22.9424 26.0646 22.9424C24.3404 22.9424 22.9426 24.3401 22.9426 26.0643C22.9426 27.7885 24.3404 29.1863 26.0646 29.1863Z" fill="#2BDF27"/>
<path d="M73.9365 77.0574C75.6607 77.0574 77.0585 75.6596 77.0585 73.9354C77.0585 72.2112 75.6607 70.8135 73.9365 70.8135C72.2123 70.8135 70.8146 72.2112 70.8146 73.9354C70.8146 75.6596 72.2123 77.0574 73.9365 77.0574Z" fill="#2BDF27"/>
<path d="M26.0646 77.0574C27.7888 77.0574 29.1865 75.6596 29.1865 73.9354C29.1865 72.2112 27.7888 70.8135 26.0646 70.8135C24.3404 70.8135 22.9426 72.2112 22.9426 73.9354C22.9426 75.6596 24.3404 77.0574 26.0646 77.0574Z" fill="#2BDF27"/>
<path d="M73.9365 29.1863C75.6607 29.1863 77.0585 27.7885 77.0585 26.0643C77.0585 24.3401 75.6607 22.9424 73.9365 22.9424C72.2123 22.9424 70.8146 24.3401 70.8146 26.0643C70.8146 27.7885 72.2123 29.1863 73.9365 29.1863Z" fill="#2BDF27"/>
<path d="M62.489 33.3497H37.5109C36.4081 33.3533 35.3516 33.793 34.5718 34.5728C33.792 35.3526 33.3523 36.4091 33.3487 37.5119V62.4875C33.3523 63.5903 33.792 64.6468 34.5718 65.4266C35.3516 66.2064 36.4081 66.6461 37.5109 66.6497H62.489C64.773 66.6497 66.6512 64.7765 66.6512 62.4875V37.5119C66.6469 36.4093 66.207 35.3532 65.4274 34.5735C64.6478 33.7939 63.5916 33.354 62.489 33.3497ZM58.3268 58.3253H41.6743V41.6741H58.3268V58.3253ZM37.5109 70.8131H43.7573V77.057H37.5109V70.8131ZM70.8146 37.5119H77.0585V43.7558H70.8146V37.5119ZM22.9426 37.5119H29.1865V62.4875H22.9426V37.5119ZM70.8146 56.2436H77.0585V62.4875H70.8146V56.2436ZM50.0012 70.8131H62.489V77.057H50.0012V70.8131ZM41.6743 22.9424H58.3268V29.1863H41.6743V22.9424Z" fill="white"/>
<path d="M99.9524 28.1464V21.9025H91.6268V16.6988L83.3024 8.37445H78.0988V0.0488281H71.8549V8.37445H65.611V0.0488281H59.3671V8.37445H53.1232V0.0488281H46.8792V8.37445H40.6329V0.0488281H34.389V8.37445H28.145V0.0488281H21.9011V8.37445H16.6987L8.37311 16.6988V21.9025H0.0474854V28.1464H8.37311V34.3903H0.0474854V40.6342H8.37311V46.8781H0.0474854V53.122H8.37311V59.3659H0.0474854V65.6098H8.37311V71.8537H0.0474854V78.0976H8.37311V83.3013L16.6987 91.6256H21.9011V99.9513H28.145V91.6256H34.389V99.9513H40.6329V91.6256H46.8792V99.9513H53.1232V91.6256H59.3671V99.9513H65.611V91.6256H71.8549V99.9513H78.0988V91.6256H83.3024L91.6268 83.3013V78.0976H99.9524V71.8537H91.6268V65.6098H99.9524V59.3659H91.6268V53.122H99.9524V46.8781H91.6268V40.6342H99.9524V34.3903H91.6268V28.1464H99.9524ZM83.3024 79.8534L79.8545 83.3013H20.1454L16.6987 79.8534V20.1479L20.1504 16.6988H79.8558L83.3037 20.1479L83.3024 79.8534Z" fill="white"/>
</svg>
