<svg width="100" height="100" viewBox="0 0 100 100" fill="none" xmlns="http://www.w3.org/2000/svg">
<g clip-path="url(#clip0_1832_271)">
<path d="M64.2857 85.6607C62.4714 86.3893 60.5964 87 58.6571 87.4464L57.8714 97.6821C57.8228 98.3128 57.538 98.9019 57.0738 99.3316C56.6097 99.7614 56.0004 100 55.3679 100H44.6286C43.997 100 43.3886 99.7618 42.9251 99.3327C42.4616 98.9036 42.1772 98.3154 42.1286 97.6857L41.3429 87.45C37.2019 86.4954 33.2497 84.8549 29.65 82.5964L21.8464 89.2857C21.3665 89.6974 20.7488 89.9125 20.1169 89.888C19.4851 89.8635 18.8859 89.6012 18.4393 89.1536L10.8464 81.5607C10.3996 81.1137 10.1378 80.5146 10.1133 79.883C10.0888 79.2514 10.3034 78.6339 10.7143 78.1536L17.4036 70.35C15.148 66.7487 13.5078 62.7971 12.55 58.6571L2.31429 57.8714C1.68425 57.822 1.09603 57.5368 0.667043 57.0727C0.238057 56.6086 -0.000139095 55.9998 6.09371e-08 55.3679V44.6286C6.09371e-08 43.3179 1.01071 42.2286 2.31429 42.1286L12.55 41.3429C13.5046 37.2019 15.1451 33.2497 17.4036 29.65L10.7179 21.8464C10.3068 21.3672 10.0916 20.7504 10.1155 20.1195C10.1393 19.4885 10.4003 18.8897 10.8464 18.4429L18.4393 10.85C18.8867 10.4039 19.4857 10.1426 20.117 10.1181C20.7484 10.0937 21.3658 10.3078 21.8464 10.7179L29.65 17.4071C33.2513 15.1516 37.2029 13.5113 41.3429 12.5536L42.1286 2.31786C42.1772 1.68718 42.462 1.09808 42.9262 0.668354C43.3903 0.238624 43.9996 -6.9301e-05 44.6321 1.50927e-08H55.3714C56.6821 1.50927e-08 57.7714 1.01071 57.8714 2.31429L57.9179 2.91071C55.3597 6.83452 53.8767 11.3613 53.6172 16.0381C53.3578 20.715 54.3309 25.378 56.4393 29.5607C53.4927 28.6329 50.3804 28.3532 47.3157 28.7407C44.2509 29.1282 41.3061 30.1737 38.6832 31.8056C36.0603 33.4376 33.8212 35.6173 32.1195 38.1955C30.4178 40.7737 29.2936 43.6893 28.824 46.7426C28.3544 49.7958 28.5505 52.9145 29.3989 55.8849C30.2472 58.8553 31.7278 61.6072 33.7391 63.9518C35.7504 66.2965 38.2449 68.1786 41.0516 69.4691C43.8583 70.7597 46.9108 71.4281 50 71.4286C55.2773 71.4304 60.3676 69.4745 64.2857 65.9393V85.6607Z" fill="#EAEBEE"/>
<path d="M89.2863 34.9607V91.0714C89.2863 93.4394 88.3456 95.7104 86.6711 97.3849C84.9967 99.0593 82.7257 100 80.3577 100C77.9897 100 75.7187 99.0593 74.0442 97.3849C72.3698 95.7104 71.4291 93.4394 71.4291 91.0714V34.9607C68.2593 33.3451 65.5885 30.8981 63.7023 27.8815C61.8161 24.8649 60.7856 21.3923 60.721 17.8351C60.6564 14.2779 61.5602 10.7701 63.3357 7.68708C65.1112 4.60401 67.6915 2.06168 70.8005 0.332138C71.0755 0.182138 71.4291 0.396424 71.4291 0.71071V21.4286L80.3577 25L89.2863 21.4286V0.71071C89.2863 0.396424 89.6398 0.182139 89.9148 0.33571C93.025 2.0639 95.6066 4.60556 97.3829 7.68849C99.1593 10.7714 100.064 14.2795 99.9991 17.837C99.9345 21.3945 98.9034 24.8674 97.0163 27.8838C95.1292 30.9003 92.4571 33.3465 89.2863 34.9607Z" fill="#EAEBEE"/>
</g>
<defs>
<clipPath id="clip0_1832_271">
<rect width="100" height="100" fill="white"/>
</clipPath>
</defs>
</svg>
