<svg width="91" height="19" viewBox="0 0 91 19" fill="none" xmlns="http://www.w3.org/2000/svg">
<g clip-path="url(#clip0_1189_389)">
<path fill-rule="evenodd" clip-rule="evenodd" d="M0 18.9622C2.81425 14.3681 5.6285 9.793 8.44275 5.19897L14.1247 5.87957L6.00254 19H0V18.9622ZM11.1501 0.907432C11.6132 0.321362 12.3613 -0.0378418 13.0916 -3.08491e-05C15.8702 -3.08491e-05 18.6489 -3.08491e-05 21.4275 -3.08491e-05C21.4275 1.28554 21.4097 2.57111 21.4453 3.87559C21.8015 2.76017 22.4784 1.75818 23.3868 1.05868C24.2595 0.359173 25.3639 -3.08491e-05 26.4504 -3.08491e-05C31.7405 -0.0189363 37.0305 -3.08491e-05 42.3206 -3.08491e-05C42.3206 1.72037 42.3206 3.44077 42.3206 5.16116C31.0458 5.16116 19.771 5.16116 8.49618 5.16116C9.08397 4.14027 9.70738 3.17609 10.313 2.1741C10.5802 1.75818 10.8295 1.30445 11.1501 0.907432ZM42.944 -3.08491e-05C42.944 3.87559 42.944 7.73231 42.944 11.6079C42.7481 11.1731 42.57 10.7194 42.3206 10.3224C41.5013 8.99897 40.1298 7.99698 38.6514 7.86465L34.0204 7.46763C29.8702 7.31639 25.5776 6.76813 21.4275 6.46564C21.659 7.52435 21.9975 8.58305 22.7277 9.35818C23.6005 10.3413 25.0433 10.9084 26.3079 11.003L36.9415 11.9104C37.3155 11.9293 37.7074 11.9293 38.0636 12.0428C38.2595 12.1184 38.4198 12.2885 38.5445 12.4587C38.7405 12.8368 38.6158 13.3472 38.3308 13.6308C38.0992 13.8577 37.7608 13.801 37.4936 13.8388C32.0433 13.8388 26.5929 13.8388 21.1425 13.8388C21.1425 11.3622 21.1425 8.90445 21.1425 6.42783L16.3155 6.04972V19H38.3486C38.7226 18.9433 39.0967 18.8676 39.4707 18.7542C40.4326 18.4517 41.3053 17.8467 41.9466 17.0338C42.5165 16.3343 42.8906 15.4836 43.1043 14.595C43.4249 16.4855 44.7786 18.1114 46.4886 18.6975C46.9695 18.8865 47.4682 18.9243 47.9669 19H58.8499C59.3842 18.9054 59.9364 18.792 60.4351 18.5841C61.2545 18.2059 62.0025 17.6199 62.5191 16.8637C62.8753 16.391 63.0891 15.8238 63.3206 15.2567C63.3384 16.5044 63.3206 17.7522 63.3206 19H80.687C81.916 18.8676 83.1094 18.3383 83.9822 17.393C85.0331 16.3343 85.5852 14.7651 85.5674 13.2338C85.514 11.4945 84.659 9.81191 83.3053 8.80992C82.6463 8.29947 81.8448 8.01589 81.0433 7.82684C80.402 7.73231 79.743 7.7134 79.084 7.65669L63.6234 6.69251C63.855 8.46962 65.369 9.88753 66.8473 10.5681C67.4707 10.8139 68.1298 10.9651 68.7888 10.984L79.9033 11.8915C80.1883 11.9293 80.5089 11.9482 80.7226 12.1562C81.0967 12.4398 81.0789 13.0258 80.8473 13.4039C80.6692 13.6119 80.3486 13.5741 80.0992 13.593L63.3384 13.5363C63.3384 11.2487 63.3384 8.94226 63.3384 6.6547L58.6361 6.35221C58.6361 8.11042 58.6361 9.88753 58.6361 11.6457C58.6361 12.0428 58.6361 12.4587 58.5293 12.8557C58.4224 13.196 58.1908 13.4796 57.9059 13.6686C57.5496 13.8955 57.1221 13.8955 56.7125 13.8955C54.3791 13.8766 52.0636 13.8955 49.7303 13.8955C49.3741 13.8955 49 13.8766 48.6616 13.7253C48.341 13.5552 48.0738 13.2527 47.9669 12.8935C47.8601 12.4965 47.8601 12.0617 47.8601 11.6457C47.8779 9.66067 47.8601 7.65669 47.8601 5.67161C47.1298 5.57708 46.3995 5.61489 45.6692 5.53927C44.7964 5.48256 43.9415 5.38803 43.0687 5.36912C43.0687 5.31241 43.0687 5.18007 43.0687 5.12335C44.6718 5.12335 46.257 5.12335 47.8601 5.12335C47.8601 3.40295 47.8601 1.68256 47.8601 -0.0378418C46.2392 -3.08491e-05 44.6005 -3.08491e-05 42.944 -3.08491e-05ZM58.6539 -3.08491e-05C60.2926 -3.08491e-05 61.9313 -3.08491e-05 63.5522 -3.08491e-05C63.5522 1.30445 63.5344 2.60892 63.57 3.9134C63.7659 3.40295 63.9618 2.89251 64.2646 2.43878C65.1196 1.11539 66.5445 0.207929 68.0585 0.0566856C68.5929 0.0188746 69.1272 0.0566856 69.6616 0.0377801C74.9695 0.0377801 80.2774 0.0377801 85.5674 0.0377801C85.5674 1.73927 85.5674 3.45967 85.5674 5.16116C76.5903 5.16116 67.631 5.16116 58.6539 5.16116C58.6539 3.44077 58.6539 1.72037 58.6539 -3.08491e-05ZM88.5776 1.68256C88.5776 1.89052 88.5776 2.07957 88.5776 2.28753C88.8626 2.28753 89.1476 2.28753 89.4326 2.28753C89.4682 2.09848 89.5573 1.85271 89.3791 1.73927C89.112 1.64475 88.827 1.72037 88.5776 1.68256ZM88.1323 1.30445C88.631 1.32335 89.1476 1.24773 89.6463 1.39897C90.0025 1.62584 89.9847 2.21191 89.6819 2.47659C89.9313 2.77907 89.7888 3.23281 89.9491 3.59201C89.7888 3.59201 89.6285 3.59201 89.4504 3.59201C89.4326 3.28952 89.3969 2.98703 89.3435 2.68455C89.0763 2.68455 88.827 2.68455 88.5598 2.70345C88.5598 3.00594 88.5598 3.28952 88.5598 3.59201C88.4529 3.59201 88.2392 3.59201 88.1323 3.59201C88.1323 2.83579 88.1323 2.07957 88.1323 1.30445ZM88.7557 0.699472C89.5216 0.567133 90.3053 1.03977 90.6081 1.77708C90.8575 2.40096 90.8397 3.19499 90.3944 3.72435C89.8957 4.48057 88.827 4.72634 88.0967 4.2348C87.598 3.97012 87.2595 3.42186 87.1883 2.83579C87.0458 1.8338 87.7761 0.756188 88.7557 0.699472ZM91 2.81688C90.8931 3.36514 90.6794 3.93231 90.2341 4.2537C89.486 4.9532 88.2214 4.85868 87.5445 4.08355C86.8855 3.42186 86.743 2.23082 87.2417 1.41788C87.4911 0.945243 87.9542 0.62385 88.4529 0.453701C89.0763 0.321362 89.8066 0.434795 90.2875 0.907432C90.6972 1.24773 90.8753 1.75818 91 2.28753V2.81688Z" fill="#A1A4A7"/>
</g>
<defs>
<clipPath id="clip0_1189_389">
<rect width="91" height="19" fill="white"/>
</clipPath>
</defs>
</svg>
