<svg width="21" height="17" viewBox="0 0 21 17" fill="none" xmlns="http://www.w3.org/2000/svg">
<path fill-rule="evenodd" clip-rule="evenodd" d="M1.90036 7.40583C7.25115 5.18425 10.8192 3.71963 12.6044 3.01206C17.7018 0.991693 18.761 0.640708 19.4513 0.629093C19.6031 0.626565 19.9426 0.662436 20.1625 0.832496C20.4888 1.08475 20.4906 1.63231 20.4544 1.9947C20.1782 4.7605 18.983 11.4723 18.3749 14.57C18.1176 15.8807 17.6109 16.3203 17.1205 16.3632C16.0546 16.4567 15.2452 15.6919 14.2129 15.0471C12.5974 14.0379 11.6848 13.4097 10.1166 12.425C8.30447 11.287 9.47925 10.6616 10.512 9.63937C10.7823 9.37188 15.4786 5.30115 15.5695 4.93185C15.5809 4.88567 15.5915 4.71349 15.4841 4.62262C15.3768 4.53174 15.2184 4.56276 15.1041 4.5875C14.9421 4.62255 12.3614 6.24806 7.36199 9.46398C6.62945 9.94335 5.96595 10.1769 5.3715 10.1647C4.7161 10.1512 3.4555 9.81155 2.51833 9.52124C1.36886 9.1652 0.455277 8.97689 0.534862 8.37222C0.576304 8.05717 1.03145 7.73509 1.90036 7.40583Z" fill="white" fill-opacity="0.5"/>
</svg>
