<svg width="23" height="13" viewBox="0 0 23 13" fill="none" xmlns="http://www.w3.org/2000/svg">
<path d="M20.393 5.51841C20.7201 5.13237 20.9797 4.82262 21.1715 4.58892C22.5526 2.91243 23.1512 1.84148 22.9677 1.37457L22.8957 1.26521C22.8479 1.19953 22.7239 1.13921 22.5245 1.08462C22.3249 1.03006 22.0694 1.02134 21.7582 1.05736L18.3095 1.07957C18.2297 1.07232 18.1492 1.07401 18.0699 1.08462C17.99 1.0957 17.9382 1.10683 17.9141 1.11744C17.8901 1.12856 17.8702 1.13748 17.8544 1.14474L17.8065 1.17756C17.7666 1.1993 17.7228 1.23768 17.6749 1.29251C17.627 1.34731 17.5868 1.41082 17.5551 1.48396C17.1799 2.36587 16.7528 3.18601 16.2738 3.9441C15.9783 4.39606 15.7068 4.78814 15.4596 5.11935C15.2121 5.45131 15.0045 5.69542 14.8368 5.85183C14.6692 6.00852 14.5174 6.13452 14.3818 6.22896C14.2459 6.32407 14.1423 6.36392 14.0706 6.34944C14.0025 6.33588 13.9346 6.32123 13.867 6.30549C13.7552 6.24009 13.6652 6.15097 13.5976 6.03776C13.5297 5.92505 13.4839 5.7828 13.4598 5.61139C13.436 5.44023 13.4217 5.29249 13.418 5.16839C13.4138 5.04456 13.4159 4.86976 13.4241 4.64352C13.4321 4.41752 13.436 4.26473 13.436 4.18434C13.436 3.90765 13.4421 3.60685 13.454 3.28238C13.4659 2.95815 13.476 2.70103 13.4839 2.51148C13.4918 2.3222 13.4958 2.12157 13.4958 1.91008C13.4958 1.69907 13.4818 1.53295 13.4537 1.41252C13.4254 1.29218 13.3834 1.17492 13.3281 1.06268C13.2721 0.94994 13.1903 0.862285 13.0824 0.800508C12.9746 0.738455 12.841 0.68946 12.6814 0.652733C12.258 0.565078 11.7191 0.518253 11.0647 0.51056C9.5797 0.496556 8.62568 0.583935 8.20261 0.77321C8.03497 0.853606 7.88318 0.962721 7.74756 1.1013C7.60373 1.26186 7.5839 1.34948 7.68781 1.36348C8.16692 1.42916 8.50595 1.58609 8.70556 1.83379L8.7775 1.96488C8.83328 2.05999 8.8891 2.22756 8.94514 2.468C9.00096 2.70848 9.03691 2.97453 9.05302 3.26617C9.09295 3.79825 9.09295 4.25361 9.05302 4.63291C9.0131 5.01217 8.9753 5.30721 8.93935 5.51822C8.90336 5.7297 8.84944 5.90087 8.77776 6.03196C8.70582 6.16352 8.65799 6.24368 8.63393 6.27287C8.60986 6.30183 8.59003 6.32017 8.57417 6.32747C8.47098 6.36365 8.36136 6.38215 8.25082 6.38203C8.13896 6.38203 8.0033 6.33082 7.84361 6.22869C7.68388 6.12707 7.5181 5.98655 7.34674 5.80789C7.17487 5.6295 6.98157 5.37963 6.7658 5.05876C6.55029 4.7384 6.32657 4.3591 6.0952 3.92189L5.90376 3.60464C5.78399 3.40089 5.62029 3.10368 5.41273 2.71377C5.20517 2.32386 5.02137 1.94677 4.86194 1.58199C4.79795 1.42916 4.70221 1.31255 4.57453 1.23216L4.51478 1.19933C4.47486 1.17034 4.41087 1.13921 4.32308 1.10659C4.23441 1.0736 4.142 1.04971 4.04755 1.03539L0.766383 1.05712C0.431107 1.05712 0.203715 1.12667 0.0839487 1.26521L0.0360768 1.33066C0.0118816 1.36735 0 1.42577 0 1.50569C0 1.58609 0.0240656 1.68436 0.0719375 1.80073C0.551046 2.82872 1.07198 3.82003 1.63464 4.77461C2.19762 5.7297 2.68653 6.49887 3.10165 7.08192C3.51677 7.66545 3.93984 8.2154 4.37112 8.73301C4.8024 9.25062 5.08769 9.58206 5.22729 9.72767C5.36688 9.87375 5.47663 9.98314 5.55651 10.0558L5.85584 10.3184C6.04729 10.4932 6.3289 10.7028 6.70017 10.9471C7.07139 11.1914 7.48232 11.4319 7.93369 11.6685C8.38454 11.9056 8.90967 12.0985 9.50828 12.2482C10.1069 12.3978 10.6897 12.4579 11.2566 12.4285H12.6337C12.9132 12.4067 13.1247 12.3269 13.2683 12.188L13.3162 12.1334C13.3479 12.09 13.378 12.0224 13.406 11.9314C13.4338 11.8403 13.4482 11.7399 13.4482 11.6308C13.4399 11.3175 13.4661 11.0345 13.5259 10.7834C13.5856 10.5318 13.6536 10.3426 13.7295 10.2146C13.8054 10.0874 13.891 9.97971 13.987 9.89205C14.0828 9.8044 14.1504 9.75201 14.1906 9.73367C14.2305 9.7158 14.2626 9.70301 14.2864 9.69528C14.4778 9.63705 14.7033 9.69359 14.963 9.86475C15.2224 10.0364 15.466 10.2474 15.6936 10.499C15.921 10.7505 16.1944 11.0327 16.5138 11.3464C16.833 11.6597 17.1124 11.8929 17.352 12.046L17.5916 12.1776C17.7512 12.2647 17.9586 12.3449 18.2143 12.4181C18.4697 12.4907 18.6934 12.5091 18.8848 12.4726L21.9505 12.4287C22.2538 12.4287 22.4894 12.3833 22.6571 12.292C22.8247 12.2015 22.9244 12.1006 22.9564 11.9915C22.9881 11.8821 22.9902 11.7588 22.9625 11.6199C22.9345 11.4816 22.9065 11.385 22.8787 11.3304C22.8507 11.2759 22.8247 11.23 22.8007 11.1938C22.4014 10.5378 21.6391 9.73217 20.5134 8.77735L20.4894 8.75561L20.4775 8.74453L20.4656 8.73388H20.4536C19.9425 8.28917 19.6193 7.99027 19.4837 7.83697C19.2362 7.54584 19.1801 7.25057 19.3161 6.9517C19.4112 6.72507 19.7703 6.24754 20.393 5.51841Z" fill="white" fill-opacity="0.5"/>
</svg>
