<svg width="18" height="18" viewBox="0 0 18 18" fill="none" xmlns="http://www.w3.org/2000/svg">
<g clip-path="url(#clip0_1189_1133)">
<path d="M16.9569 15.9843L12.9109 11.7762C13.9516 10.5415 14.522 8.97852 14.5212 7.36374C14.5212 3.57913 11.4421 0.5 7.65744 0.5C3.87284 0.5 0.793701 3.57913 0.793701 7.36374C0.793701 11.1484 3.87284 14.2275 7.65744 14.2275C9.07824 14.2275 10.4322 13.799 11.5898 12.9854L15.6665 17.2255C15.8369 17.4024 16.0661 17.5 16.3117 17.5C16.5442 17.5 16.7647 17.4114 16.9322 17.2502C17.103 17.0855 17.2016 16.8597 17.2062 16.6224C17.2109 16.3851 17.1212 16.1556 16.9569 15.9843ZM7.65744 2.29054C10.4549 2.29054 12.7306 4.56632 12.7306 7.36374C12.7306 10.1612 10.4549 12.4369 7.65744 12.4369C4.86002 12.4369 2.58424 10.1612 2.58424 7.36374C2.58424 4.56632 4.86002 2.29054 7.65744 2.29054Z" fill="#191A1B"/>
</g>
<defs>
<clipPath id="clip0_1189_1133">
<rect width="17" height="17" fill="white" transform="translate(0.5 0.5)"/>
</clipPath>
</defs>
</svg>
