<svg width="13" height="13" viewBox="0 0 13 13" fill="none" xmlns="http://www.w3.org/2000/svg">
<g clip-path="url(#clip0_1189_1095)">
<path d="M7.69098 6.51066L12.753 1.44855C13.0824 1.11928 13.0824 0.586873 12.753 0.257637C12.4237 -0.0716376 11.8913 -0.0716376 11.5621 0.257637L6.49994 5.31971L1.43799 0.257637C1.10856 -0.0716376 0.576349 -0.0716376 0.247075 0.257637C-0.0823582 0.586912 -0.0823582 1.11928 0.247075 1.44855L5.30898 6.51066L0.247114 11.5727C-0.0823187 11.902 -0.0823187 12.4344 0.247114 12.7636C0.32522 12.842 0.418033 12.9041 0.520221 12.9464C0.622409 12.9888 0.731958 13.0105 0.842572 13.0104C1.05814 13.0104 1.27379 12.9279 1.43803 12.7636L6.49994 7.70158L11.5621 12.7636C11.6402 12.842 11.733 12.9041 11.8352 12.9464C11.9374 12.9888 12.0469 13.0105 12.1575 13.0104C12.3731 13.0104 12.5888 12.9279 12.753 12.7636C13.0824 12.4344 13.0824 11.902 12.753 11.5727L7.69098 6.51066Z" fill="#A1A4A7"/>
</g>
<defs>
<clipPath id="clip0_1189_1095">
<rect width="13" height="13" fill="white"/>
</clipPath>
</defs>
</svg>
