<svg width="21" height="15" viewBox="0 0 21 15" fill="none" xmlns="http://www.w3.org/2000/svg">
<path d="M20.5089 2.56189C20.0889 1.29867 18.6992 0.533652 17.4201 0.358257C12.8197 -0.119419 8.18034 -0.119419 3.57985 0.358257C2.30082 0.533652 0.907247 1.29121 0.491083 2.56189C-0.163694 5.82286 -0.163694 9.17714 0.491083 12.4381C0.911065 13.6995 2.30082 14.4663 3.57985 14.6417C8.18034 15.1194 12.8197 15.1194 17.4201 14.6417C18.6992 14.4663 20.0928 13.7088 20.5089 12.4381C21.1637 9.17714 21.1637 5.82286 20.5089 2.56189ZM7.98775 11.4324V3.56574L14.5395 7.49907C12.3307 8.82572 10.1869 10.1113 7.98775 11.4324Z" fill="white" fill-opacity="0.5"/>
</svg>
